<svg width="59" height="55" viewBox="0 0 59 55" fill="none" xmlns="http://www.w3.org/2000/svg">
<path d="M31.8911 7.00002C28 7.00002 32.2505 7.01155 32.4286 7.0346C39.4916 7.52853 44.9761 13.3901 45 20.4703V23.5M24 7L14.5394 7.00002C7.08303 6.98611 1.02426 13.0139 1 20.4703V40.6726C1.02426 48.129 7.08303 54.1568 14.5394 54.1429H31.4606C38.9157 54.1568 44.974 48.1309 45 40.6757V29" stroke="#576999" stroke-linecap="round" stroke-linejoin="round"/>
<path d="M45.0001 20.9704C45.2763 20.9704 45.5001 20.7465 45.5001 20.4704C45.5001 20.1942 45.2763 19.9704 45.0001 19.9704V20.9704ZM32.4287 20.4704H31.9287C31.9287 20.7465 32.1525 20.9704 32.4287 20.9704V20.4704ZM32.9287 7.03467C32.9287 6.75853 32.7048 6.53467 32.4287 6.53467C32.1525 6.53467 31.9287 6.75853 31.9287 7.03467H32.9287ZM38 47C38.2761 47 38.5 46.7761 38.5 46.5C38.5 46.2239 38.2761 46 38 46V47ZM7 46C6.72386 46 6.5 46.2239 6.5 46.5C6.5 46.7761 6.72386 47 7 47V46ZM30 35C30.2761 35 30.5 34.7761 30.5 34.5C30.5 34.2239 30.2761 34 30 34V35ZM7 34C6.72386 34 6.5 34.2239 6.5 34.5C6.5 34.7761 6.72386 35 7 35V34ZM34 41C34.2761 41 34.5 40.7761 34.5 40.5C34.5 40.2239 34.2761 40 34 40V41ZM7 40C6.72386 40 6.5 40.2239 6.5 40.5C6.5 40.7761 6.72386 41 7 41V40ZM25 29C25.2761 29 25.5 28.7761 25.5 28.5C25.5 28.2239 25.2761 28 25 28V29ZM7 28C6.72386 28 6.5 28.2239 6.5 28.5C6.5 28.7761 6.72386 29 7 29V28ZM45.0001 19.9704H32.4287V20.9704H45.0001V19.9704ZM32.9287 20.4704V7.03467H31.9287V20.4704H32.9287ZM38 46H7V47H38V46ZM30 34H7V35H30V34ZM34 40H7V41H34V40ZM25 28H7V29H25V28Z" fill="#576999"/>
<path fill-rule="evenodd" clip-rule="evenodd" d="M25 14.5901C25.0001 8.10706 29.5798 2.52688 35.9384 1.26235C42.297 -0.00218655 48.6633 3.40114 51.1438 9.3909C53.6244 15.3807 51.5283 22.2886 46.1374 25.8898C40.7466 29.4911 33.5625 28.7827 28.9789 24.1979C26.4312 21.6495 25 18.1936 25 14.5901Z" stroke="#576999" stroke-width="1.5" stroke-linecap="round" stroke-linejoin="round"/>
<path d="M52.1755 28.1768L58 34.0013" stroke="#576999" stroke-width="1.5" stroke-linecap="round" stroke-linejoin="round"/>
<rect x="7" y="16" width="13" height="8" rx="1" fill="#576999"/>
</svg>
