<svg width="70" height="70" viewBox="0 0 70 70" fill="none" xmlns="http://www.w3.org/2000/svg">
<path d="M8.30005 23.1319C8.30005 20.2581 8.30113 18.1536 8.52004 16.5432C8.73692 14.9479 9.15921 13.9124 9.94806 13.1322C10.7377 12.3512 11.7869 11.9326 13.4027 11.7177C15.0323 11.501 17.1615 11.5 20.0667 11.5H50.7334C53.6386 11.5 55.7678 11.501 57.3974 11.7177C59.0132 11.9326 60.0624 12.3512 60.852 13.1322C61.6409 13.9124 62.0632 14.9479 62.2801 16.5432C62.499 18.1536 62.5 20.2581 62.5 23.1319V49.9286H8.30005V23.1319Z" stroke="#576999"/>
<path d="M9.84449 49.9285C8.4073 49.9285 7.30005 51.1661 7.30005 52.6189C7.30005 55.2816 9.32263 57.4999 11.8889 57.4999H58.9112C61.4775 57.4999 63.5 55.2816 63.5 52.6189C63.5 51.1661 62.3928 49.9285 60.9556 49.9285H9.84449Z" stroke="#576999"/>
<path fill-rule="evenodd" clip-rule="evenodd" d="M53.5 26.3795C55.8953 26.4344 57.908 25.2318 58 23.6907C57.908 22.1495 55.8953 20.9469 53.5 21.0018C51.1047 20.9469 49.092 22.1495 49 23.6907C49.0107 24.5054 49.6114 25.2702 50.6245 25.759L50.6071 27L52.5357 26.3174C52.8531 26.3588 53.1762 26.3796 53.5 26.3795Z" fill="#576999"/>
<path fill-rule="evenodd" clip-rule="evenodd" d="M18.5 26.3795C16.1047 26.4344 14.092 25.2318 14 23.6907C14.092 22.1495 16.1047 20.9469 18.5 21.0018C20.8953 20.9469 22.908 22.1495 23 23.6907C22.9893 24.5054 22.3886 25.2702 21.3755 25.759L21.3929 27L19.4643 26.3174C19.1469 26.3588 18.8238 26.3796 18.5 26.3795Z" fill="#576999"/>
<circle cx="16.5" cy="23.5" r="0.5" fill="white"/>
<circle cx="18.5" cy="23.5" r="0.5" fill="white"/>
<circle cx="20.5" cy="23.5" r="0.5" fill="white"/>
<path fill-rule="evenodd" clip-rule="evenodd" d="M31 19.7541C31.008 20.271 31.2929 20.7645 31.792 21.1259C32.2911 21.4872 32.9636 21.6869 33.6614 21.6809H34.5L35.0886 22.5057C35.1973 22.5873 35.4997 23.654 35.5 23.1436C35.4997 23.6539 35.8034 22.5873 35.9121 22.5057L36.5 21.6809H37.3386C38.0364 21.6869 38.7089 21.4872 39.208 21.1259C39.7071 20.7645 39.992 20.271 40 19.7541V17.4158C39.9827 16.3396 39 16 37.3386 16L34 16.0001C32 16 31.0173 16.3396 31 17.4158V19.7541Z" fill="#576999"/>
<circle cx="33.5" cy="18.5" r="0.5" fill="white"/>
<circle cx="35.5" cy="18.5" r="0.5" fill="white"/>
<circle cx="37.5" cy="18.5" r="0.5" fill="white"/>
<circle cx="49.1252" cy="34.1667" r="3.44167" stroke="#576999" stroke-width="0.7"/>
<path d="M57 45.8335C57 43.7449 56.1703 41.7419 54.6935 40.265C53.2166 38.7882 51.2136 37.9585 49.125 37.9585C47.0364 37.9585 45.0334 38.7882 43.5565 40.265C42.0797 41.7419 41.25 43.7449 41.25 45.8335" stroke="#576999" stroke-width="0.7"/>
<circle cx="22.8752" cy="34.1667" r="3.44167" stroke="#576999" stroke-width="0.7"/>
<path d="M30.75 45.8335C30.75 43.7449 29.9203 41.7419 28.4435 40.265C26.9666 38.7882 24.9636 37.9585 22.875 37.9585C20.7864 37.9585 18.7834 38.7882 17.3065 40.265C15.8297 41.7419 15 43.7449 15 45.8335" stroke="#576999" stroke-width="0.7"/>
<circle cx="36.0002" cy="29.7917" r="3.44167" stroke="#576999" stroke-width="0.7"/>
<path d="M43.5833 40.2918C43.2917 38.2502 43.0453 37.3669 41.5685 35.89C40.0916 34.4132 38.0886 33.5835 36 33.5835C33.9114 33.5835 31.9084 34.4132 30.4315 35.89C28.9547 37.3669 28.8542 38.2502 28.5625 40.2918" stroke="#576999" stroke-width="0.7"/>
</svg>
