<svg width="70" height="70" viewBox="0 0 70 70" fill="none" xmlns="http://www.w3.org/2000/svg">
<rect x="23.5352" y="20.3184" width="10.2629" height="12.7391" stroke="#576999" stroke-width="0.88"/>
<path d="M30.379 28.295H27.035L26.419 30H25.363L28.135 22.377H29.29L32.051 30H30.995L30.379 28.295ZM30.093 27.481L28.707 23.609L27.321 27.481H30.093Z" fill="#576999"/>
<path d="M7 24.0561C6.75699 24.0561 6.56 24.2531 6.56 24.4961C6.56 24.7391 6.75699 24.9361 7 24.9361V24.0561ZM18.1429 24.9361C18.3859 24.9361 18.5829 24.7391 18.5829 24.4961C18.5829 24.2531 18.3859 24.0561 18.1429 24.0561V24.9361ZM23 46.06C22.757 46.06 22.56 46.257 22.56 46.5C22.56 46.743 22.757 46.94 23 46.94V46.06ZM50 46.94C50.243 46.94 50.44 46.743 50.44 46.5C50.44 46.257 50.243 46.06 50 46.06V46.94ZM23 38.56C22.757 38.56 22.56 38.757 22.56 39C22.56 39.243 22.757 39.44 23 39.44V38.56ZM50 39.44C50.243 39.44 50.44 39.243 50.44 39C50.44 38.757 50.243 38.56 50 38.56V39.44ZM33 53.56C32.757 53.56 32.56 53.757 32.56 54C32.56 54.243 32.757 54.44 33 54.44V53.56ZM50 54.44C50.243 54.44 50.44 54.243 50.44 54C50.44 53.757 50.243 53.56 50 53.56V54.44ZM40 21.06C39.757 21.06 39.56 21.257 39.56 21.5C39.56 21.743 39.757 21.94 40 21.94V21.06ZM43 21.94C43.243 21.94 43.44 21.743 43.44 21.5C43.44 21.257 43.243 21.06 43 21.06V21.94ZM40.4286 30.7906C40.1856 30.7906 39.9886 30.9875 39.9886 31.2305C39.9886 31.4736 40.1856 31.6705 40.4286 31.6705V30.7906ZM50.3333 31.6705C50.5763 31.6705 50.7733 31.4736 50.7733 31.2305C50.7733 30.9875 50.5763 30.7906 50.3333 30.7906V31.6705ZM7 35.0756C6.75699 35.0756 6.56 35.2726 6.56 35.5156C6.56 35.7586 6.75699 35.9556 7 35.9556V35.0756ZM18.1429 35.9556C18.3859 35.9556 18.5829 35.7586 18.5829 35.5156C18.5829 35.2726 18.3859 35.0756 18.1429 35.0756V35.9556ZM7 46.0952C6.75699 46.0952 6.56 46.2922 6.56 46.5352C6.56 46.7782 6.75699 46.9752 7 46.9752V46.0952ZM18.1429 46.9752C18.3859 46.9752 18.5829 46.7782 18.5829 46.5352C18.5829 46.2922 18.3859 46.0952 18.1429 46.0952V46.9752ZM7 24.9361H18.1429V24.0561H7V24.9361ZM23 46.94H50V46.06H23V46.94ZM23 39.44H50V38.56H23V39.44ZM33 54.44H50V53.56H33V54.44ZM40 21.94H43V21.06H40V21.94ZM40.4286 31.6705H50.3333V30.7906H40.4286V31.6705ZM7 35.9556H18.1429V35.0756H7V35.9556ZM7 46.9752H18.1429V46.0952H7V46.9752ZM14.8686 53.8821V17.1501H13.9886V53.8821H14.8686ZM14.8686 17.1501C14.8686 13.3404 17.9928 10.2437 21.8571 10.2437V9.36371C17.5161 9.36371 13.9886 12.8452 13.9886 17.1501H14.8686ZM21.8571 10.2437H51.5715V9.36371H21.8571V10.2437ZM51.5715 10.2437C55.4358 10.2437 58.56 13.3404 58.56 17.1501H59.44C59.44 12.8452 55.9125 9.36371 51.5715 9.36371V10.2437ZM58.56 17.1501V53.8821H59.44V17.1501H58.56ZM58.56 53.8821C58.56 57.6917 55.4358 60.7884 51.5715 60.7884V61.6684C55.9125 61.6684 59.44 58.187 59.44 53.8821H58.56ZM51.5715 60.7884H21.8571V61.6684H51.5715V60.7884ZM21.8571 60.7884C17.9928 60.7884 14.8686 57.6917 14.8686 53.8821H13.9886C13.9886 58.187 17.5161 61.6684 21.8571 61.6684V60.7884Z" fill="url(#paint0_linear_318_217)"/>
<path fill-rule="evenodd" clip-rule="evenodd" d="M50.209 17.4898L44.311 24.8488C44.2101 24.9658 44.1501 25.1125 44.14 25.2668L44 28.2898C44.0413 28.6899 44.385 28.9899 44.787 28.9768L47.787 28.2658C47.938 28.2274 48.0729 28.1419 48.172 28.0218L54.212 20.4898M50.212 17.4898L51.8 15.5098C52.1697 14.9841 52.8879 14.843 53.429 15.1898L55.666 17.0518C55.8833 17.2695 56.0046 17.565 56.0029 17.8726C56.0012 18.1803 55.8767 18.4744 55.657 18.6898L54.212 20.4898M50.212 17.4898C50.5006 19.4154 52.2826 20.7519 54.212 20.4898L50.212 17.4898Z" fill="white"/>
<path d="M50.4821 17.7086C50.603 17.5578 50.5787 17.3375 50.4279 17.2167C50.2771 17.0958 50.0568 17.12 49.9359 17.2709L50.4821 17.7086ZM44.311 24.8488L44.5763 25.0775L44.5841 25.0676L44.311 24.8488ZM44.14 25.2668L43.7907 25.244L43.7904 25.2506L44.14 25.2668ZM44 28.2898L43.6504 28.2736C43.6496 28.2909 43.6501 28.3084 43.6518 28.3257L44 28.2898ZM44.787 28.9768L44.7984 29.3266C44.8218 29.3258 44.845 29.3227 44.8677 29.3173L44.787 28.9768ZM47.787 28.2658L47.8677 28.6064L47.8732 28.605L47.787 28.2658ZM48.172 28.0218L48.442 28.2445L48.445 28.2407L48.172 28.0218ZM54.485 20.7087C54.606 20.5579 54.5818 20.3376 54.431 20.2167C54.2802 20.0958 54.0599 20.12 53.939 20.2708L54.485 20.7087ZM49.939 17.2708C49.818 17.4216 49.8422 17.6419 49.993 17.7628C50.1438 17.8837 50.3641 17.8595 50.485 17.7087L49.939 17.2708ZM51.8 15.5098L52.073 15.7287C52.0776 15.723 52.0821 15.7171 52.0863 15.7111L51.8 15.5098ZM53.429 15.1898L53.6529 14.9208C53.6418 14.9115 53.6301 14.9029 53.6178 14.8951L53.429 15.1898ZM55.666 17.0518L55.9137 16.8045C55.9061 16.7969 55.8982 16.7896 55.8899 16.7828L55.666 17.0518ZM56.0029 17.8726L56.3529 17.8746V17.8746L56.0029 17.8726ZM55.657 18.6898L55.412 18.4398C55.4021 18.4495 55.3928 18.4598 55.3841 18.4707L55.657 18.6898ZM53.9391 20.2707C53.8181 20.4214 53.8422 20.6417 53.9929 20.7627C54.1436 20.8837 54.3639 20.8596 54.4849 20.7089L53.9391 20.2707ZM50.5581 17.4379C50.5295 17.2467 50.3513 17.115 50.1601 17.1436C49.969 17.1723 49.8372 17.3505 49.8659 17.5416L50.5581 17.4379ZM54.2591 20.8366C54.4507 20.8105 54.5848 20.6342 54.5588 20.4426C54.5328 20.2511 54.3564 20.1169 54.1649 20.1429L54.2591 20.8366ZM49.9359 17.2709L44.0379 24.6299L44.5841 25.0676L50.4821 17.7086L49.9359 17.2709ZM44.0459 24.6202C43.8953 24.7949 43.8057 25.0139 43.7907 25.244L44.4893 25.2895C44.4944 25.2112 44.5248 25.1367 44.5761 25.0773L44.0459 24.6202ZM43.7904 25.2506L43.6504 28.2736L44.3496 28.306L44.4896 25.283L43.7904 25.2506ZM43.6518 28.3257C43.712 28.9086 44.2127 29.3457 44.7984 29.3266L44.7756 28.6269C44.5572 28.6341 44.3706 28.4711 44.3482 28.2539L43.6518 28.3257ZM44.8677 29.3173L47.8677 28.6063L47.7063 27.9252L44.7063 28.6362L44.8677 29.3173ZM47.8732 28.605C48.0963 28.5483 48.2955 28.4221 48.442 28.2445L47.902 27.799C47.8502 27.8618 47.7797 27.9065 47.7008 27.9265L47.8732 28.605ZM48.445 28.2407L54.485 20.7087L53.939 20.2708L47.899 27.8028L48.445 28.2407ZM50.485 17.7087L52.073 15.7287L51.527 15.2908L49.939 17.2708L50.485 17.7087ZM52.0863 15.7111C52.3482 15.3388 52.8569 15.2388 53.2402 15.4844L53.6178 14.8951C52.9189 14.4472 51.9913 14.6294 51.5137 15.3084L52.0863 15.7111ZM53.2051 15.4588L55.4421 17.3208L55.8899 16.7828L53.6529 14.9208L53.2051 15.4588ZM55.4183 17.299C55.5696 17.4507 55.6541 17.6565 55.6529 17.8707L56.3529 17.8746C56.3551 17.4736 56.197 17.0883 55.9137 16.8045L55.4183 17.299ZM55.6529 17.8707C55.6518 18.085 55.565 18.2898 55.412 18.4398L55.902 18.9397C56.1884 18.659 56.3507 18.2756 56.3529 17.8746L55.6529 17.8707ZM55.3841 18.4707L53.9391 20.2707L54.4849 20.7089L55.9299 18.9089L55.3841 18.4707ZM49.8659 17.5416C50.1828 19.6566 52.14 21.1245 54.2591 20.8366L54.1649 20.1429C52.4252 20.3793 50.8183 19.1742 50.5581 17.4379L49.8659 17.5416Z" fill="#576999"/>
<defs>
<linearGradient id="paint0_linear_318_217" x1="33" y1="9.80371" x2="33" y2="61.2284" gradientUnits="userSpaceOnUse">
<stop stop-color="#576999"/>
<stop offset="1" stop-color="#576999"/>
</linearGradient>
</defs>
</svg>
