<svg width="100" height="100" viewBox="0 0 100 100" fill="none" xmlns="http://www.w3.org/2000/svg">
<path d="M66.6066 72.0327C66.6066 72.447 66.9424 72.7827 67.3566 72.7827C67.7708 72.7827 68.1066 72.447 68.1066 72.0327H66.6066ZM68.1066 67.9955C68.1066 67.5813 67.7708 67.2455 67.3566 67.2455C66.9424 67.2455 66.6066 67.5813 66.6066 67.9955H68.1066ZM59.3995 57.3581C59.3995 57.7723 59.7353 58.1081 60.1495 58.1081C60.5637 58.1081 60.8995 57.7723 60.8995 57.3581H59.3995ZM60.1495 55.0764L59.3995 55.0696V55.0764H60.1495ZM67.357 47.8094L67.3501 48.5595L67.3638 48.5593L67.357 47.8094ZM74.5644 55.0764H75.3144L75.3144 55.0696L74.5644 55.0764ZM73.8144 57.3581C73.8144 57.7723 74.1502 58.1081 74.5644 58.1081C74.9786 58.1081 75.3144 57.7723 75.3144 57.3581H73.8144ZM60.5194 58.0096C60.879 57.804 61.0039 57.3458 60.7983 56.9862C60.5928 56.6266 60.1346 56.5017 59.775 56.7073L60.5194 58.0096ZM55 66.2658L54.25 66.2598V66.2658H55ZM55 69.7263H54.25C54.25 69.7321 54.2501 69.7379 54.2502 69.7437L55 69.7263ZM65.591 80.1078V79.3578C65.5852 79.3578 65.5794 79.3579 65.5736 79.358L65.591 80.1078ZM69.1228 80.1078L69.1403 79.358C69.1344 79.3579 69.1286 79.3578 69.1228 79.3578V80.1078ZM79.7138 69.7263L80.4636 69.7437C80.4638 69.7379 80.4638 69.7321 80.4638 69.7263H79.7138ZM79.7138 66.2658H80.4639L80.4638 66.2597L79.7138 66.2658ZM74.9364 56.7072C74.5767 56.5017 74.1186 56.6267 73.9132 56.9864C73.7077 57.3461 73.8327 57.8042 74.1923 58.0097L74.9364 56.7072ZM59.7682 56.7119C59.4108 56.9213 59.2908 57.3808 59.5002 57.7382C59.7096 58.0955 60.169 58.2155 60.5264 58.0061L59.7682 56.7119ZM65.5911 55.8849L65.5889 56.6349H65.5911V55.8849ZM69.1229 55.8849V56.6349L69.125 56.6348L69.1229 55.8849ZM74.1876 58.0061C74.545 58.2155 75.0044 58.0955 75.2138 57.7382C75.4232 57.3808 75.3032 56.9213 74.9458 56.7119L74.1876 58.0061ZM68.1066 72.0327V67.9955H66.6066V72.0327H68.1066ZM60.8995 57.3581V55.0764H59.3995V57.3581H60.8995ZM60.8995 55.0833C60.9329 51.4287 63.8388 48.5274 67.3501 48.5593L67.3638 47.0594C62.9869 47.0196 59.4402 50.6243 59.3995 55.0696L60.8995 55.0833ZM67.3638 48.5593C70.8752 48.5274 73.781 51.4287 73.8144 55.0833L75.3144 55.0696C75.2737 50.6243 71.7271 47.0196 67.3501 47.0594L67.3638 48.5593ZM73.8144 55.0764V57.3581H75.3144V55.0764H73.8144ZM59.775 56.7073C56.3857 58.6447 54.2818 62.2956 54.25 66.2598L55.75 66.2718C55.7776 62.8281 57.6052 59.6754 60.5194 58.0096L59.775 56.7073ZM54.25 66.2658V69.7263H55.75V66.2658H54.25ZM54.2502 69.7437C54.3955 76.0073 59.4606 81.0005 65.6084 80.8576L65.5736 79.358C60.2911 79.4808 55.8768 75.182 55.7498 69.7089L54.2502 69.7437ZM65.591 80.8578H69.1228V79.3578H65.591V80.8578ZM69.1054 80.8576C75.2532 81.0005 80.3183 76.0073 80.4636 69.7437L78.964 69.7089C78.8371 75.182 74.4227 79.4808 69.1403 79.358L69.1054 80.8576ZM80.4638 69.7263V66.2658H78.9638V69.7263H80.4638ZM80.4638 66.2597C80.4315 62.295 78.3266 58.644 74.9364 56.7072L74.1923 58.0097C77.1074 59.675 78.9358 62.8278 78.9639 66.2719L80.4638 66.2597ZM60.5264 58.0061C62.0696 57.102 63.815 56.6298 65.5889 56.6348L65.5932 55.1349C63.5494 55.129 61.541 55.6733 59.7682 56.7119L60.5264 58.0061ZM65.5911 56.6349H69.1229V55.1349H65.5911V56.6349ZM69.125 56.6348C70.899 56.6298 72.6444 57.102 74.1876 58.0061L74.9458 56.7119C73.173 55.6733 71.1646 55.129 69.1208 55.1349L69.125 56.6348Z" fill="#576999"/>
<path d="M80 50.5V27C80 23.134 76.866 20 73 20H27C23.134 20 20 23.134 20 27V73C20 76.866 23.134 80 27 80H53" stroke="#576999"/>
<path d="M31 28.5H69" stroke="#576999" stroke-linecap="round"/>
<path d="M31 50.5H49" stroke="#576999" stroke-linecap="round"/>
<path d="M31 36.5H69" stroke="#576999" stroke-linecap="round"/>
<path d="M31 58.5H49" stroke="#576999" stroke-linecap="round"/>
<path d="M31 43.5H69" stroke="#576999" stroke-linecap="round"/>
<path d="M31 65.5H49" stroke="#576999" stroke-linecap="round"/>
<path d="M31 72H49" stroke="#576999" stroke-linecap="round"/>
</svg>
