<svg width="70" height="70" viewBox="0 0 70 70" fill="none" xmlns="http://www.w3.org/2000/svg">
<path d="M32 18.375C32.2071 18.375 32.375 18.2071 32.375 18C32.375 17.7929 32.2071 17.625 32 17.625V18.375ZM18 17.625C17.7929 17.625 17.625 17.7929 17.625 18C17.625 18.2071 17.7929 18.375 18 18.375V17.625ZM32 23.875C32.2071 23.875 32.375 23.7071 32.375 23.5C32.375 23.2929 32.2071 23.125 32 23.125V23.875ZM18 23.125C17.7929 23.125 17.625 23.2929 17.625 23.5C17.625 23.7071 17.7929 23.875 18 23.875V23.125ZM32.2857 29.3038C32.4928 29.3038 32.6607 29.1359 32.6607 28.9288C32.6607 28.7217 32.4928 28.5538 32.2857 28.5538V29.3038ZM18 28.5538C17.7929 28.5538 17.625 28.7217 17.625 28.9288C17.625 29.1359 17.7929 29.3038 18 29.3038V28.5538ZM32 17.625H18V18.375H32V17.625ZM32 23.125H18V23.875H32V23.125ZM32.2857 28.5538H18V29.3038H32.2857V28.5538Z" fill="#576999"/>
<rect x="10.5" y="8.5" width="49" height="50" rx="14.5" stroke="#576999"/>
<path fill-rule="evenodd" clip-rule="evenodd" d="M40.7077 17H45.3423C47.39 17 49.05 18.6416 49.05 20.6667V20.7813L50.8482 19.6693C51.4197 19.3161 52.14 19.2974 52.7294 19.6205C53.3189 19.9436 53.6846 20.5575 53.6846 21.224V23.776C53.6859 24.4431 53.3208 25.0583 52.7311 25.3823C52.1414 25.7063 51.4203 25.6879 50.8482 25.3343L49.05 24.2188V24.3333C49.05 26.3584 47.39 28 45.3423 28H40.7077C38.66 28 37 26.3584 37 24.3333V20.6667C37 18.6416 38.66 17 40.7077 17Z" stroke="#576999" stroke-width="0.7" stroke-linecap="round" stroke-linejoin="round"/>
<path fill-rule="evenodd" clip-rule="evenodd" d="M43.0244 24.3334C42.0006 24.3334 41.1707 23.5127 41.1707 22.5002C41.1707 21.4878 42.0006 20.667 43.0244 20.667C44.0482 20.667 44.8781 21.4878 44.8781 22.5002C44.8781 22.9864 44.6828 23.4527 44.3352 23.7965C43.9875 24.1403 43.516 24.3334 43.0244 24.3334Z" stroke="#0FCB02" stroke-width="0.7" stroke-linecap="round" stroke-linejoin="round"/>
<path d="M49.0499 20.781V24.2183" stroke="#576999" stroke-width="0.7" stroke-linecap="round"/>
<path fill-rule="evenodd" clip-rule="evenodd" d="M47.6237 51.0029C46.8071 51.0157 46.0637 50.5336 45.7423 49.7828C45.4208 49.032 45.5851 48.1613 46.1581 47.5793C46.731 46.9972 47.5989 46.8192 48.3548 47.1287C49.1106 47.4382 49.6044 48.1739 49.6045 48.9906C49.6087 49.5201 49.4023 50.0296 49.0309 50.407C48.6594 50.7844 48.1533 50.9987 47.6237 51.0029Z" stroke="#576999" stroke-width="0.7" stroke-linecap="round" stroke-linejoin="round"/>
<path d="M46.5716 38.3525C46.7649 38.3525 46.9216 38.1958 46.9216 38.0025C46.9216 37.8092 46.7649 37.6525 46.5716 37.6525V38.3525ZM41 37.6525C40.8067 37.6525 40.65 37.8092 40.65 38.0025C40.65 38.1958 40.8067 38.3525 41 38.3525V37.6525ZM46.5716 41.1383C46.7649 41.1383 46.9216 40.9816 46.9216 40.7883C46.9216 40.595 46.7649 40.4383 46.5716 40.4383V41.1383ZM41 40.4383C40.8067 40.4383 40.65 40.595 40.65 40.7883C40.65 40.9816 40.8067 41.1383 41 41.1383V40.4383ZM44.7144 43.9241C44.9077 43.9241 45.0644 43.7674 45.0644 43.5741C45.0644 43.3808 44.9077 43.2241 44.7144 43.2241V43.9241ZM41 43.2241C40.8067 43.2241 40.65 43.3808 40.65 43.5741C40.65 43.7674 40.8067 43.9241 41 43.9241V43.2241ZM49.2534 48.9907C49.2534 49.184 49.4101 49.3407 49.6034 49.3407C49.7967 49.3407 49.9534 49.184 49.9534 48.9907H49.2534ZM49.9534 41.2526C49.9534 41.0593 49.7967 40.9026 49.6034 40.9026C49.4101 40.9026 49.2534 41.0593 49.2534 41.2526H49.9534ZM49.6035 41.2527H49.2535C49.2535 41.3519 49.2956 41.4465 49.3694 41.5128C49.4431 41.5792 49.5415 41.6112 49.6402 41.6008L49.6035 41.2527ZM49.6035 39.8598H49.9535C49.9535 39.8535 49.9533 39.8472 49.953 39.8409L49.6035 39.8598ZM50.1177 38.5168L49.8702 38.2693V38.2693L50.1177 38.5168ZM51.4607 38.0026L51.4418 38.3521C51.4481 38.3524 51.4544 38.3526 51.4607 38.3526V38.0026ZM52.5333 38.0026V38.3526L52.5349 38.3526L52.5333 38.0026ZM54.0044 39.3917L53.6549 39.4101V39.4101L54.0044 39.3917ZM52.6874 40.9277L52.6523 40.5795L52.6507 40.5796L52.6874 40.9277ZM46.5716 37.6525H41V38.3525H46.5716V37.6525ZM46.5716 40.4383H41V41.1383H46.5716V40.4383ZM44.7144 43.2241H41V43.9241H44.7144V43.2241ZM49.9534 48.9907V41.2526H49.2534V48.9907H49.9534ZM49.9535 41.2527V39.8598H49.2535V41.2527H49.9535ZM49.953 39.8409C49.9313 39.4397 50.0811 39.0483 50.3652 38.7643L49.8702 38.2693C49.4456 38.6939 49.2215 39.2791 49.254 39.8787L49.953 39.8409ZM50.3652 38.7643C50.6492 38.4802 51.0407 38.3303 51.4418 38.3521L51.4797 37.6531C50.88 37.6206 50.2948 37.8446 49.8702 38.2693L50.3652 38.7643ZM51.4607 38.3526H52.5333V37.6526H51.4607V38.3526ZM52.5349 38.3526C53.1306 38.3498 53.6235 38.8152 53.6549 39.4101L54.3539 39.3733C54.3029 38.4053 53.5009 37.648 52.5316 37.6526L52.5349 38.3526ZM53.6549 39.4101C53.6862 40.005 53.2449 40.5196 52.6523 40.5795L52.7226 41.2759C53.6869 41.1786 54.4049 40.3412 54.3539 39.3733L53.6549 39.4101ZM52.6507 40.5796L49.5668 40.9046L49.6402 41.6008L52.7241 41.2758L52.6507 40.5796Z" fill="#576999"/>
<path fill-rule="evenodd" clip-rule="evenodd" d="M27.6921 38H22.3081C21.1591 38.0063 20.0598 38.4689 19.2519 39.2858C18.444 40.1027 17.9937 41.2071 18.0001 42.356V47.644C18.0001 47.8134 18.0098 47.9827 18.0291 48.151C18.2713 50.3343 20.1114 51.9895 22.3081 52H27.6921C28.841 51.9937 29.9403 51.5311 30.7482 50.7142C31.5562 49.8973 32.0064 48.7929 32.0001 47.644V42.356C32.0064 41.2071 31.5562 40.1027 30.7482 39.2858C29.9403 38.4689 28.841 38.0063 27.6921 38Z" stroke="#576999" stroke-width="0.75" stroke-linecap="round" stroke-linejoin="round"/>
<path fill-rule="evenodd" clip-rule="evenodd" d="M22.0531 41.5461C22.0531 41.8261 21.8261 42.0531 21.5461 42.0531C21.2661 42.0531 21.0391 41.8261 21.0391 41.5461C21.0391 41.2661 21.2661 41.0391 21.5461 41.0391C21.8261 41.0391 22.0531 41.2661 22.0531 41.5461Z" stroke="#576999" stroke-width="0.75" stroke-linecap="round" stroke-linejoin="round"/>
<path d="M18.0291 48.151C18.5656 47.67 19.0641 47.1481 19.5201 46.59C20.1947 45.6773 21.3903 45.3185 22.4561 45.709C24.9801 46.509 27.2331 49.448 29.3941 47.92C30.1877 47.3144 30.8019 46.5046 31.1711 45.577C31.3883 45.0675 31.6666 44.5863 32.0001 44.144" stroke="#576999" stroke-width="0.75" stroke-linecap="round" stroke-linejoin="round"/>
</svg>
