<svg width="100" height="100" viewBox="0 0 100 100" fill="none" xmlns="http://www.w3.org/2000/svg">
<circle cx="50" cy="50" r="48.5" fill="#576999" stroke="white"/>
<path d="M31.5309 48.7623L32.5598 50.743L26.2769 54.0067L28.5449 58.3728L33.4434 55.8282L34.4723 57.8089L29.5737 60.3535L32.937 66.8281L30.509 68.0893L22.82 53.2872L31.5309 48.7623ZM49.1586 58.4017L42.6753 54.251L40.8224 55.2135L43.898 61.1344L41.47 62.3956L33.781 47.5935L38.8925 44.9383C40.0284 44.3483 41.0901 44.0492 42.0775 44.0411C43.0792 44.0256 43.945 44.252 44.675 44.7202C45.4192 45.181 46.0052 45.8232 46.433 46.6467C46.9345 47.6122 47.1078 48.6401 46.9529 49.7302C46.8048 50.7988 46.2224 51.7774 45.2056 52.6662L52.0551 56.8971L49.1586 58.4017ZM39.8156 53.2754L42.4992 51.8814C43.4079 51.4094 43.9714 50.8282 44.1897 50.1378C44.4223 49.4401 44.3394 48.7078 43.9411 47.9411C43.5428 47.1744 43.0059 46.6961 42.3303 46.5061C41.6473 46.302 40.8443 46.4396 39.9214 46.919L37.2379 48.313L39.8156 53.2754ZM50.6836 41.3015L52.9405 45.6463L58.0521 42.9911L59.0809 44.9718L53.9694 47.627L56.3259 52.1635L62.0764 49.1764L63.1052 51.1571L54.9268 55.4054L47.2268 40.582L55.4052 36.3337L56.4341 38.3144L50.6836 41.3015ZM61.8526 35.4998L64.1095 39.8446L69.221 37.1894L70.2499 39.1701L65.1384 41.8253L67.4949 46.3618L73.2453 43.3747L74.2742 45.3554L66.0958 49.6037L58.3957 34.7803L66.5742 30.532L67.603 32.5127L61.8526 35.4998Z" fill="white"/>
</svg>
