<svg width="70" height="70" viewBox="0 0 70 70" fill="none" xmlns="http://www.w3.org/2000/svg">
<path d="M6 69.5965H12.0351V53H6V69.5965ZM34.6667 62.0526H24.1053L20.9519 60.9512L21.4498 59.533L24.1053 60.5439H28.36C29.3407 60.5439 30.1404 59.7442 30.1404 58.7635C30.1404 58.0242 29.6726 57.3604 28.9786 57.0888L18.0249 53H15.0526V66.6091L25.614 69.5965L49 63.5614C48.9849 61.9018 36.3414 62.0526 34.6667 62.0526Z" fill="#576999"/>
<path d="M38.6502 34.7867C38.6502 34.5934 38.4935 34.4367 38.3002 34.4367C38.1069 34.4367 37.9502 34.5934 37.9502 34.7867H38.6502ZM38.3002 58.9997H37.9502C37.9502 59.1159 38.0079 59.2245 38.1041 59.2896C38.2004 59.3547 38.3227 59.3678 38.4306 59.3245L38.3002 58.9997ZM58.4042 50.9287L58.5346 51.2535C58.6672 51.2002 58.7542 51.0716 58.7542 50.9287H58.4042ZM58.7542 34.1497C58.7542 33.9564 58.5975 33.7997 58.4042 33.7997C58.2109 33.7997 58.0542 33.9564 58.0542 34.1497H58.7542ZM38.5127 34.5086C38.3591 34.3912 38.1394 34.4206 38.0221 34.5741C37.9047 34.7277 37.9341 34.9474 38.0877 35.0648L38.5127 34.5086ZM45.4682 40.2642L45.2557 40.5423C45.3597 40.6218 45.4995 40.6365 45.6178 40.5805L45.4682 40.2642ZM58.5433 34.466C58.7181 34.3834 58.7927 34.1747 58.7101 34C58.6274 33.8253 58.4187 33.7506 58.244 33.8333L58.5433 34.466ZM38.1698 34.4618C37.9904 34.5338 37.9034 34.7376 37.9754 34.917C38.0474 35.0964 38.2512 35.1834 38.4306 35.1114L38.1698 34.4618ZM58.5346 27.0404C58.714 26.9684 58.801 26.7646 58.729 26.5852C58.657 26.4058 58.4532 26.3188 58.2738 26.3908L58.5346 27.0404ZM58.2738 27.0406C58.4532 27.1126 58.657 27.0256 58.729 26.8462C58.801 26.6668 58.7139 26.463 58.5345 26.391L58.2738 27.0406ZM38.4305 18.3235C38.2511 18.2515 38.0473 18.3386 37.9753 18.518C37.9034 18.6974 37.9904 18.9011 38.1698 18.9731L38.4305 18.3235ZM58.5756 26.4148C58.4071 26.32 58.1937 26.3798 58.099 26.5483C58.0042 26.7168 58.064 26.9302 58.2325 27.0249L58.5756 26.4148ZM65.5826 30.7553L65.732 31.0718C65.8504 31.0159 65.9277 30.8986 65.9323 30.7678C65.937 30.6369 65.8682 30.5144 65.7541 30.4503L65.5826 30.7553ZM58.2441 33.8339C58.0693 33.9164 57.9945 34.125 58.0771 34.2998C58.1596 34.4746 58.3682 34.5494 58.543 34.4668L58.2441 33.8339ZM58.1337 26.4811C58.004 26.6245 58.015 26.8458 58.1584 26.9755C58.3017 27.1052 58.523 27.0942 58.6527 26.9509L58.1337 26.4811ZM66.9997 17.2065L67.2592 17.4414C67.3385 17.3538 67.3682 17.2321 67.3383 17.1178C67.3084 17.0036 67.2228 16.9121 67.1108 16.8746L66.9997 17.2065ZM45.4677 10L45.5788 9.6681C45.4419 9.62226 45.2908 9.66525 45.1985 9.77633L45.4677 10ZM38.013 18.4248C37.8895 18.5735 37.9099 18.7942 38.0586 18.9177C38.2072 19.0412 38.4279 19.0208 38.5514 18.8722L38.013 18.4248ZM18.0482 26.391C17.8688 26.463 17.7818 26.6668 17.8538 26.8462C17.9258 27.0256 18.1295 27.1126 18.3089 27.0406L18.0482 26.391ZM38.4129 18.9731C38.5923 18.9011 38.6794 18.6974 38.6074 18.518C38.5354 18.3386 38.3316 18.2515 38.1522 18.3235L38.4129 18.9731ZM18.35 27.0207C18.5185 26.9259 18.5783 26.7126 18.4836 26.5441C18.3889 26.3756 18.1755 26.3158 18.007 26.4105L18.35 27.0207ZM11 30.7511L10.8285 30.446C10.7144 30.5101 10.6456 30.6325 10.6502 30.7633C10.6548 30.8941 10.732 31.0114 10.8502 31.0674L11 30.7511ZM18.0287 34.4659C18.2034 34.5486 18.4121 34.4741 18.4948 34.2993C18.5776 34.1246 18.503 33.9159 18.3283 33.8332L18.0287 34.4659ZM18.309 26.3908C18.1296 26.3188 17.9258 26.4058 17.8538 26.5852C17.7818 26.7646 17.8688 26.9684 18.0482 27.0404L18.309 26.3908ZM38.1522 35.1114C38.3316 35.1834 38.5354 35.0964 38.6074 34.917C38.6794 34.7376 38.5924 34.5338 38.413 34.4618L38.1522 35.1114ZM17.917 26.9487C18.0455 27.0931 18.2668 27.106 18.4112 26.9775C18.5556 26.849 18.5685 26.6277 18.44 26.4833L17.917 26.9487ZM11 18.6485L10.8617 18.327C10.7584 18.3714 10.6827 18.4628 10.6583 18.5726C10.6339 18.6823 10.6638 18.7972 10.7385 18.8812L11 18.6485ZM31.104 10L31.3733 9.77646C31.2742 9.65704 31.1083 9.61716 30.9657 9.67849L31.104 10ZM38.0132 18.872C38.1366 19.0208 38.3573 19.0413 38.506 18.9178C38.6548 18.7944 38.6753 18.5737 38.5518 18.425L38.0132 18.872ZM38.6326 34.7902C38.6326 34.5969 38.4759 34.4402 38.2826 34.4402C38.0893 34.4402 37.9326 34.5969 37.9326 34.7902H38.6326ZM38.2826 58.9997L38.1522 59.3245C38.26 59.3678 38.3824 59.3547 38.4786 59.2896C38.5749 59.2245 38.6326 59.1159 38.6326 58.9997H38.2826ZM18.1786 50.9287H17.8286C17.8286 51.0716 17.9155 51.2002 18.0482 51.2535L18.1786 50.9287ZM18.5286 34.1497C18.5286 33.9564 18.3719 33.7997 18.1786 33.7997C17.9853 33.7997 17.8286 33.9564 17.8286 34.1497H18.5286ZM38.4949 35.0649C38.6486 34.9476 38.6781 34.728 38.5608 34.5743C38.4436 34.4207 38.2239 34.3912 38.0703 34.5084L38.4949 35.0649ZM31.1041 40.2642L30.9544 40.5805C31.0727 40.6365 31.2124 40.6218 31.3164 40.5424L31.1041 40.2642ZM18.3283 33.8333C18.1535 33.7506 17.9449 33.8253 17.8622 34C17.7795 34.1747 17.8542 34.3834 18.0289 34.466L18.3283 33.8333ZM37.9502 34.7867V58.9997H38.6502V34.7867H37.9502ZM38.4306 59.3245L58.5346 51.2535L58.2738 50.6039L38.1698 58.6749L38.4306 59.3245ZM58.7542 50.9287V34.1497H58.0542V50.9287H58.7542ZM38.0877 35.0648L45.2557 40.5423L45.6807 39.9861L38.5127 34.5086L38.0877 35.0648ZM45.6178 40.5805L58.5433 34.466L58.244 33.8333L45.3185 39.9478L45.6178 40.5805ZM38.4306 35.1114L58.5346 27.0404L58.2738 26.3908L38.1698 34.4618L38.4306 35.1114ZM58.5345 26.391L38.4305 18.3235L38.1698 18.9731L58.2738 27.0406L58.5345 26.391ZM58.2325 27.0249L65.411 31.0604L65.7541 30.4503L58.5756 26.4148L58.2325 27.0249ZM65.4331 30.4389L58.2441 33.8339L58.543 34.4668L65.732 31.0718L65.4331 30.4389ZM58.6527 26.9509L67.2592 17.4414L66.7402 16.9716L58.1337 26.4811L58.6527 26.9509ZM67.1108 16.8746L45.5788 9.6681L45.3566 10.3319L66.8886 17.5384L67.1108 16.8746ZM45.1985 9.77633L38.013 18.4248L38.5514 18.8722L45.7369 10.2237L45.1985 9.77633ZM18.3089 27.0406L38.4129 18.9731L38.1522 18.3235L18.0482 26.391L18.3089 27.0406ZM18.007 26.4105L10.8285 30.446L11.1715 31.0562L18.35 27.0207L18.007 26.4105ZM10.8502 31.0674L18.0287 34.4659L18.3283 33.8332L11.1498 30.4347L10.8502 31.0674ZM18.0482 27.0404L38.1522 35.1114L38.413 34.4618L18.309 26.3908L18.0482 27.0404ZM18.44 26.4833L11.2615 18.4158L10.7385 18.8812L17.917 26.9487L18.44 26.4833ZM11.1383 18.97L31.2423 10.3215L30.9657 9.67849L10.8617 18.327L11.1383 18.97ZM30.8347 10.2235L38.0132 18.872L38.5518 18.425L31.3733 9.77646L30.8347 10.2235ZM37.9326 34.7902V58.9997H38.6326V34.7902H37.9326ZM38.413 58.6749L18.309 50.6039L18.0482 51.2535L38.1522 59.3245L38.413 58.6749ZM18.5286 50.9287V34.1497H17.8286V50.9287H18.5286ZM38.0703 34.5084L30.8918 39.9859L31.3164 40.5424L38.4949 35.0649L38.0703 34.5084ZM31.2538 39.9478L18.3283 33.8333L18.0289 34.466L30.9544 40.5805L31.2538 39.9478Z" fill="#576999"/>
<path d="M40.65 4.5C40.65 5.63037 39.526 6.65 38 6.65C36.474 6.65 35.35 5.63037 35.35 4.5C35.35 3.36963 36.474 2.35 38 2.35C39.526 2.35 40.65 3.36963 40.65 4.5Z" fill="#576999" stroke="white" stroke-width="0.7"/>
<circle cx="45" cy="11" r="3.65" fill="#576999" stroke="white" stroke-width="0.7"/>
<path d="M37.65 13.5C37.65 16.3764 35.5375 18.65 33 18.65C30.4625 18.65 28.35 16.3764 28.35 13.5C28.35 10.6236 30.4625 8.35 33 8.35C35.5375 8.35 37.65 10.6236 37.65 13.5Z" fill="#576999" stroke="white" stroke-width="0.7"/>
<circle cx="43.5" cy="22.5" r="5.15" fill="#576999" stroke="white" stroke-width="0.7"/>
</svg>
