<svg width="67" height="67" viewBox="0 0 67 67" fill="none" xmlns="http://www.w3.org/2000/svg">
<g filter="url(#filter0_d_597_1675)">
<circle cx="49.6267" cy="33.1062" r="13.3733" fill="white"/>
</g>
<g filter="url(#filter1_d_597_1675)">
<circle cx="36.2529" cy="17.3733" r="13.3733" fill="white"/>
</g>
<g filter="url(#filter2_d_597_1675)">
<circle cx="36.2529" cy="49.6267" r="13.3733" fill="white"/>
</g>
<g filter="url(#filter3_d_597_1675)">
<circle cx="17.3733" cy="23.6662" r="13.3733" fill="white"/>
</g>
<g filter="url(#filter4_d_597_1675)">
<circle cx="17.3733" cy="44.1199" r="13.3733" fill="white"/>
</g>
<g filter="url(#filter5_d_597_1675)">
<circle cx="17.3737" cy="23.6669" r="7.86663" fill="#576999"/>
</g>
<g filter="url(#filter6_d_597_1675)">
<circle cx="36.2534" cy="16.5868" r="7.86663" fill="#576999"/>
</g>
<path fill-rule="evenodd" clip-rule="evenodd" d="M36.9963 16.5781H34.7232C34.0541 16.6087 33.4614 16.9856 33.1925 17.5512C32.8681 18.1385 33.5155 18.6936 34.2684 18.6936H37.451C38.2044 18.6936 38.8518 18.1385 38.527 17.5512C38.258 16.9856 37.6653 16.6087 36.9963 16.5781Z" stroke="white" stroke-width="0.7" stroke-linecap="round" stroke-linejoin="round"/>
<path fill-rule="evenodd" clip-rule="evenodd" d="M37.2369 14.4631C37.2369 15.1641 36.6207 15.7324 35.8604 15.7324C35.1002 15.7324 34.4839 15.1641 34.4839 14.4631C34.4839 13.7621 35.1002 13.1938 35.8604 13.1938C36.2255 13.1938 36.5756 13.3276 36.8338 13.5656C37.0919 13.8036 37.2369 14.1265 37.2369 14.4631Z" stroke="white" stroke-width="0.7" stroke-linecap="round" stroke-linejoin="round"/>
<path d="M17.1502 23.5459C18.2149 23.5459 19.0781 22.6923 19.0781 21.6394C19.0781 20.5865 18.2149 19.7329 17.1502 19.7329C16.0855 19.7329 15.2224 20.5865 15.2224 21.6394C15.2224 22.6923 16.0855 23.5459 17.1502 23.5459Z" stroke="white" stroke-width="0.7" stroke-miterlimit="10"/>
<path d="M14.2266 25.2138C14.5228 24.7067 14.9488 24.2856 15.4618 23.9928C15.9747 23.7 16.5565 23.5459 17.1488 23.5459C17.741 23.5459 18.3228 23.7 18.8358 23.9928C19.3487 24.2856 19.7747 24.7067 20.071 25.2139" stroke="white" stroke-width="0.7" stroke-linecap="round" stroke-linejoin="round"/>
<g filter="url(#filter7_d_597_1675)">
<circle cx="49.6271" cy="33.1069" r="7.86663" fill="#576999"/>
</g>
<path fill-rule="evenodd" clip-rule="evenodd" d="M51.9148 31.9427C51.9809 32.7308 51.3115 33.4191 50.4129 33.4869C49.5143 33.4191 48.8449 32.7308 48.911 31.9427C48.8452 31.1547 49.5145 30.4668 50.4129 30.3989C51.3113 30.4668 51.9806 31.1547 51.9148 31.9427V31.9427Z" stroke="white" stroke-width="0.7" stroke-linecap="round" stroke-linejoin="round"/>
<path d="M48.7551 33.873C47.0979 34.3536 48.6739 36.1889 50.4137 36.1889C52.1535 36.1889 53.7295 34.3536 52.0723 33.873" stroke="white" stroke-width="0.7" stroke-linecap="round" stroke-linejoin="round"/>
<g filter="url(#filter8_d_597_1675)">
<circle cx="37.0395" cy="50.413" r="7.86663" fill="#576999"/>
</g>
<path fill-rule="evenodd" clip-rule="evenodd" d="M38.2196 49.2105C38.2196 49.8022 37.6913 50.2819 37.0396 50.2819C36.3879 50.2819 35.8596 49.8022 35.8596 49.2105C35.8596 48.6188 36.3879 48.1392 37.0396 48.1392C37.3526 48.1392 37.6527 48.252 37.874 48.453C38.0953 48.6539 38.2196 48.9264 38.2196 49.2105Z" stroke="white" stroke-width="0.7" stroke-linecap="round" stroke-linejoin="round"/>
<path fill-rule="evenodd" clip-rule="evenodd" d="M38.4163 51.3535H35.663C35.1199 51.3535 34.6797 51.7532 34.6797 52.2463C34.6797 52.7394 35.1199 53.1391 35.663 53.1391H38.4163C38.9594 53.1391 39.3997 52.7394 39.3997 52.2463C39.3997 51.7532 38.9594 51.3535 38.4163 51.3535V51.3535Z" stroke="white" stroke-width="0.7" stroke-linecap="round" stroke-linejoin="round"/>
<g filter="url(#filter9_d_597_1675)">
<circle cx="17.3737" cy="44.1201" r="7.86663" fill="#576999"/>
</g>
<path fill-rule="evenodd" clip-rule="evenodd" d="M18.7895 42.1389C18.7895 42.823 18.1556 43.3775 17.3736 43.3775C16.5917 43.3775 15.9578 42.823 15.9578 42.1389C15.9578 41.4549 16.5917 40.9004 17.3736 40.9004C17.7491 40.9004 18.1093 41.0309 18.3748 41.2632C18.6403 41.4954 18.7895 41.8105 18.7895 42.1389Z" stroke="white" stroke-width="0.7" stroke-linecap="round" stroke-linejoin="round"/>
<path fill-rule="evenodd" clip-rule="evenodd" d="M18.5846 44.2036H16.1616C16.0093 44.2038 15.8581 44.2262 15.7142 44.2701C14.0576 44.77 15.6335 46.6807 17.3731 46.6807C19.1127 46.6807 20.6886 44.77 19.0316 44.2701C18.8878 44.2263 18.7368 44.2038 18.5846 44.2036Z" stroke="white" stroke-width="0.7" stroke-linecap="round" stroke-linejoin="round"/>
<g filter="url(#filter10_d_597_1675)">
<circle cx="32.32" cy="33.8933" r="12.5866" fill="#F4F7FF"/>
</g>
<path fill-rule="evenodd" clip-rule="evenodd" d="M32.1228 28.3867C28.7586 28.3867 26.0266 30.9508 26.0266 34.1082C26.0266 37.2657 28.7586 39.8298 32.1228 39.8298C32.3622 39.8298 32.5974 39.8137 32.83 39.7882L32.8372 39.795L32.8454 39.7865C35.8691 39.4505 38.2191 37.036 38.2191 34.1082C38.2191 31.1809 35.8691 28.7682 32.8463 28.4312C32.8386 28.4253 32.8318 28.4185 32.8237 28.4126V28.41L32.8101 28.4257C32.5839 28.4016 32.355 28.3867 32.1228 28.3867ZM31.8971 28.8211V30.9296H29.9372C30.3513 30.1061 30.919 29.392 31.5972 28.8355C31.6961 28.8271 31.7968 28.8249 31.8971 28.8211ZM32.3486 28.8211C32.4493 28.8254 32.5505 28.8266 32.6494 28.8355C33.329 29.392 33.898 30.1049 34.313 30.9296H32.3486V28.8211ZM30.8024 28.9618C30.2315 29.5408 29.7689 30.206 29.4342 30.9296H27.6139C28.4006 29.9455 29.5283 29.2496 30.8029 28.9618H30.8024ZM33.4423 28.9618C34.7172 29.2494 35.8454 29.9453 36.6323 30.9296H34.8142C34.4786 30.2058 34.0149 29.5405 33.4428 28.9618H33.4423ZM27.3073 31.3534H29.2536C28.9362 32.1691 28.7635 33.0282 28.7424 33.8963H26.4895C26.5258 32.9971 26.8072 32.1215 27.3068 31.3534H27.3073ZM29.7467 31.3534H31.8971V33.8963H29.1939C29.2187 33.0249 29.4058 32.1643 29.7467 31.3534ZM32.3486 31.3534H34.5026C34.8436 32.1643 35.0306 33.0249 35.0554 33.8963H32.3486V31.3534ZM34.9949 31.3534H36.9384C37.4381 32.1215 37.7195 32.9971 37.7558 33.8963H35.5069C35.4853 33.0281 35.3122 32.1691 34.9944 31.3534H34.9949ZM26.489 34.3202H28.7419C28.763 35.1883 28.9357 36.0473 29.2531 36.8631H27.3064C26.807 36.0949 26.5257 35.2194 26.4895 34.3202H26.489ZM29.1935 34.3202H31.8971V36.8631H29.7467C29.4058 36.0522 29.2187 35.1916 29.1939 34.3202H29.1935ZM32.3482 34.3202H35.0436C34.9958 35.1182 34.7636 35.9955 34.3581 36.8631H32.3486V34.3202H32.3482ZM35.4956 34.3202H37.7558C37.7195 35.2194 37.4383 36.0949 36.9389 36.8631H34.8485C35.2292 36.0027 35.4518 35.1322 35.4961 34.3202H35.4956ZM27.6139 37.2869H29.4351C29.7698 38.0104 30.2324 38.6757 30.8034 39.2546C29.5282 38.9673 28.3999 38.2714 27.613 37.2869H27.6139ZM29.9377 37.2869H31.8975V39.3954C31.7977 39.3911 31.697 39.3894 31.5986 39.3809C30.9194 38.8245 30.3522 38.1112 29.9377 37.2869ZM32.3491 37.2869H34.1387C33.7358 38.0467 33.225 38.7518 32.62 39.3826C32.5306 39.3903 32.4394 39.392 32.3491 39.3954V37.2869ZM34.6467 37.2869H36.6327C35.8166 38.3106 34.6328 39.0221 33.3005 39.2894C33.833 38.675 34.2847 38.0027 34.6458 37.2869H34.6467Z" fill="#576999"/>
<defs>
<filter id="filter0_d_597_1675" x="32.2534" y="15.7329" width="34.7466" height="34.7466" filterUnits="userSpaceOnUse" color-interpolation-filters="sRGB">
<feFlood flood-opacity="0" result="BackgroundImageFix"/>
<feColorMatrix in="SourceAlpha" type="matrix" values="0 0 0 0 0 0 0 0 0 0 0 0 0 0 0 0 0 0 127 0" result="hardAlpha"/>
<feOffset/>
<feGaussianBlur stdDeviation="2"/>
<feComposite in2="hardAlpha" operator="out"/>
<feColorMatrix type="matrix" values="0 0 0 0 0 0 0 0 0 0 0 0 0 0 0 0 0 0 0.13 0"/>
<feBlend mode="normal" in2="BackgroundImageFix" result="effect1_dropShadow_597_1675"/>
<feBlend mode="normal" in="SourceGraphic" in2="effect1_dropShadow_597_1675" result="shape"/>
</filter>
<filter id="filter1_d_597_1675" x="18.8796" y="0" width="34.7466" height="34.7466" filterUnits="userSpaceOnUse" color-interpolation-filters="sRGB">
<feFlood flood-opacity="0" result="BackgroundImageFix"/>
<feColorMatrix in="SourceAlpha" type="matrix" values="0 0 0 0 0 0 0 0 0 0 0 0 0 0 0 0 0 0 127 0" result="hardAlpha"/>
<feOffset/>
<feGaussianBlur stdDeviation="2"/>
<feComposite in2="hardAlpha" operator="out"/>
<feColorMatrix type="matrix" values="0 0 0 0 0 0 0 0 0 0 0 0 0 0 0 0 0 0 0.13 0"/>
<feBlend mode="normal" in2="BackgroundImageFix" result="effect1_dropShadow_597_1675"/>
<feBlend mode="normal" in="SourceGraphic" in2="effect1_dropShadow_597_1675" result="shape"/>
</filter>
<filter id="filter2_d_597_1675" x="18.8796" y="32.2534" width="34.7466" height="34.7466" filterUnits="userSpaceOnUse" color-interpolation-filters="sRGB">
<feFlood flood-opacity="0" result="BackgroundImageFix"/>
<feColorMatrix in="SourceAlpha" type="matrix" values="0 0 0 0 0 0 0 0 0 0 0 0 0 0 0 0 0 0 127 0" result="hardAlpha"/>
<feOffset/>
<feGaussianBlur stdDeviation="2"/>
<feComposite in2="hardAlpha" operator="out"/>
<feColorMatrix type="matrix" values="0 0 0 0 0 0 0 0 0 0 0 0 0 0 0 0 0 0 0.13 0"/>
<feBlend mode="normal" in2="BackgroundImageFix" result="effect1_dropShadow_597_1675"/>
<feBlend mode="normal" in="SourceGraphic" in2="effect1_dropShadow_597_1675" result="shape"/>
</filter>
<filter id="filter3_d_597_1675" x="0" y="6.29297" width="34.7466" height="34.7466" filterUnits="userSpaceOnUse" color-interpolation-filters="sRGB">
<feFlood flood-opacity="0" result="BackgroundImageFix"/>
<feColorMatrix in="SourceAlpha" type="matrix" values="0 0 0 0 0 0 0 0 0 0 0 0 0 0 0 0 0 0 127 0" result="hardAlpha"/>
<feOffset/>
<feGaussianBlur stdDeviation="2"/>
<feComposite in2="hardAlpha" operator="out"/>
<feColorMatrix type="matrix" values="0 0 0 0 0 0 0 0 0 0 0 0 0 0 0 0 0 0 0.13 0"/>
<feBlend mode="normal" in2="BackgroundImageFix" result="effect1_dropShadow_597_1675"/>
<feBlend mode="normal" in="SourceGraphic" in2="effect1_dropShadow_597_1675" result="shape"/>
</filter>
<filter id="filter4_d_597_1675" x="0" y="26.7466" width="34.7466" height="34.7466" filterUnits="userSpaceOnUse" color-interpolation-filters="sRGB">
<feFlood flood-opacity="0" result="BackgroundImageFix"/>
<feColorMatrix in="SourceAlpha" type="matrix" values="0 0 0 0 0 0 0 0 0 0 0 0 0 0 0 0 0 0 127 0" result="hardAlpha"/>
<feOffset/>
<feGaussianBlur stdDeviation="2"/>
<feComposite in2="hardAlpha" operator="out"/>
<feColorMatrix type="matrix" values="0 0 0 0 0 0 0 0 0 0 0 0 0 0 0 0 0 0 0.13 0"/>
<feBlend mode="normal" in2="BackgroundImageFix" result="effect1_dropShadow_597_1675"/>
<feBlend mode="normal" in="SourceGraphic" in2="effect1_dropShadow_597_1675" result="shape"/>
</filter>
<filter id="filter5_d_597_1675" x="6.50708" y="12.8003" width="21.7332" height="21.7334" filterUnits="userSpaceOnUse" color-interpolation-filters="sRGB">
<feFlood flood-opacity="0" result="BackgroundImageFix"/>
<feColorMatrix in="SourceAlpha" type="matrix" values="0 0 0 0 0 0 0 0 0 0 0 0 0 0 0 0 0 0 127 0" result="hardAlpha"/>
<feOffset/>
<feGaussianBlur stdDeviation="1.5"/>
<feComposite in2="hardAlpha" operator="out"/>
<feColorMatrix type="matrix" values="0 0 0 0 0 0 0 0 0 0 0 0 0 0 0 0 0 0 0.25 0"/>
<feBlend mode="normal" in2="BackgroundImageFix" result="effect1_dropShadow_597_1675"/>
<feBlend mode="normal" in="SourceGraphic" in2="effect1_dropShadow_597_1675" result="shape"/>
</filter>
<filter id="filter6_d_597_1675" x="25.3867" y="5.72021" width="21.7332" height="21.7334" filterUnits="userSpaceOnUse" color-interpolation-filters="sRGB">
<feFlood flood-opacity="0" result="BackgroundImageFix"/>
<feColorMatrix in="SourceAlpha" type="matrix" values="0 0 0 0 0 0 0 0 0 0 0 0 0 0 0 0 0 0 127 0" result="hardAlpha"/>
<feOffset/>
<feGaussianBlur stdDeviation="1.5"/>
<feComposite in2="hardAlpha" operator="out"/>
<feColorMatrix type="matrix" values="0 0 0 0 0 0 0 0 0 0 0 0 0 0 0 0 0 0 0.25 0"/>
<feBlend mode="normal" in2="BackgroundImageFix" result="effect1_dropShadow_597_1675"/>
<feBlend mode="normal" in="SourceGraphic" in2="effect1_dropShadow_597_1675" result="shape"/>
</filter>
<filter id="filter7_d_597_1675" x="38.7605" y="22.2402" width="21.7332" height="21.7334" filterUnits="userSpaceOnUse" color-interpolation-filters="sRGB">
<feFlood flood-opacity="0" result="BackgroundImageFix"/>
<feColorMatrix in="SourceAlpha" type="matrix" values="0 0 0 0 0 0 0 0 0 0 0 0 0 0 0 0 0 0 127 0" result="hardAlpha"/>
<feOffset/>
<feGaussianBlur stdDeviation="1.5"/>
<feComposite in2="hardAlpha" operator="out"/>
<feColorMatrix type="matrix" values="0 0 0 0 0 0 0 0 0 0 0 0 0 0 0 0 0 0 0.25 0"/>
<feBlend mode="normal" in2="BackgroundImageFix" result="effect1_dropShadow_597_1675"/>
<feBlend mode="normal" in="SourceGraphic" in2="effect1_dropShadow_597_1675" result="shape"/>
</filter>
<filter id="filter8_d_597_1675" x="26.1729" y="39.5464" width="21.7332" height="21.7334" filterUnits="userSpaceOnUse" color-interpolation-filters="sRGB">
<feFlood flood-opacity="0" result="BackgroundImageFix"/>
<feColorMatrix in="SourceAlpha" type="matrix" values="0 0 0 0 0 0 0 0 0 0 0 0 0 0 0 0 0 0 127 0" result="hardAlpha"/>
<feOffset/>
<feGaussianBlur stdDeviation="1.5"/>
<feComposite in2="hardAlpha" operator="out"/>
<feColorMatrix type="matrix" values="0 0 0 0 0 0 0 0 0 0 0 0 0 0 0 0 0 0 0.25 0"/>
<feBlend mode="normal" in2="BackgroundImageFix" result="effect1_dropShadow_597_1675"/>
<feBlend mode="normal" in="SourceGraphic" in2="effect1_dropShadow_597_1675" result="shape"/>
</filter>
<filter id="filter9_d_597_1675" x="6.50708" y="33.2534" width="21.7332" height="21.7334" filterUnits="userSpaceOnUse" color-interpolation-filters="sRGB">
<feFlood flood-opacity="0" result="BackgroundImageFix"/>
<feColorMatrix in="SourceAlpha" type="matrix" values="0 0 0 0 0 0 0 0 0 0 0 0 0 0 0 0 0 0 127 0" result="hardAlpha"/>
<feOffset/>
<feGaussianBlur stdDeviation="1.5"/>
<feComposite in2="hardAlpha" operator="out"/>
<feColorMatrix type="matrix" values="0 0 0 0 0 0 0 0 0 0 0 0 0 0 0 0 0 0 0.25 0"/>
<feBlend mode="normal" in2="BackgroundImageFix" result="effect1_dropShadow_597_1675"/>
<feBlend mode="normal" in="SourceGraphic" in2="effect1_dropShadow_597_1675" result="shape"/>
</filter>
<filter id="filter10_d_597_1675" x="16.7334" y="18.3066" width="31.1733" height="31.1733" filterUnits="userSpaceOnUse" color-interpolation-filters="sRGB">
<feFlood flood-opacity="0" result="BackgroundImageFix"/>
<feColorMatrix in="SourceAlpha" type="matrix" values="0 0 0 0 0 0 0 0 0 0 0 0 0 0 0 0 0 0 127 0" result="hardAlpha"/>
<feOffset/>
<feGaussianBlur stdDeviation="1.5"/>
<feComposite in2="hardAlpha" operator="out"/>
<feColorMatrix type="matrix" values="0 0 0 0 0 0 0 0 0 0 0 0 0 0 0 0 0 0 0.25 0"/>
<feBlend mode="normal" in2="BackgroundImageFix" result="effect1_dropShadow_597_1675"/>
<feBlend mode="normal" in="SourceGraphic" in2="effect1_dropShadow_597_1675" result="shape"/>
</filter>
</defs>
</svg>
