<svg width="55" height="39" viewBox="0 0 55 39" fill="none" xmlns="http://www.w3.org/2000/svg">
<path fill-rule="evenodd" clip-rule="evenodd" d="M6.7436 34.7186C6.80871 34.6951 6.86671 34.6557 6.91214 34.604C6.95756 34.5522 6.98892 34.4899 7.00324 34.4229L7.42645 34.365C7.43997 34.3632 7.45313 34.3594 7.46548 34.3536L7.46443 34.3512C7.49025 34.3392 7.51155 34.3194 7.52527 34.2946C7.539 34.2699 7.54443 34.2415 7.5408 34.2135L7.49969 33.8972L7.35812 32.8938C7.35795 32.8909 7.35769 32.888 7.35734 32.8851L7.35721 32.8835L7.24556 32.0937C7.13145 31.2838 6.46589 30.6871 5.67499 30.615L5.65004 30.435C5.63796 30.3533 5.60073 30.2774 5.54344 30.2174C5.48614 30.1575 5.41155 30.1164 5.32982 30.0999L5.18028 30.0633L5.06319 30.1371C4.98938 30.1752 4.92919 30.2348 4.89079 30.3078C4.85239 30.3808 4.83764 30.4638 4.84854 30.5454L4.87436 30.7269C4.13589 31.0113 3.66222 31.764 3.7763 32.5725L3.88777 33.3632C3.88829 33.3677 3.88905 33.3723 3.89004 33.3767L4.03076 34.3747L4.07215 34.6903C4.07442 34.7078 4.08015 34.7246 4.08901 34.7398C4.09788 34.7551 4.1097 34.7684 4.1238 34.7791C4.13791 34.7898 4.15401 34.7977 4.17119 34.8022C4.18837 34.8067 4.20628 34.8078 4.2239 34.8055L4.64938 34.7461C4.68785 34.8191 4.74811 34.8787 4.82198 34.9167C4.89585 34.9546 4.97976 34.9692 5.06229 34.9584C5.16825 34.9432 5.26388 34.8873 5.32843 34.8029C5.39298 34.7184 5.42123 34.6121 5.40705 34.5072C5.39178 34.4024 5.33529 34.3078 5.24986 34.244C5.16444 34.1802 5.05699 34.1523 4.9509 34.1665C4.86841 34.1784 4.79162 34.2151 4.73097 34.2717C4.67032 34.3283 4.62875 34.4019 4.6119 34.4827L4.32203 34.5223L4.29798 34.3396L4.15308 33.3127C4.10208 32.93 4.20669 32.543 4.44393 32.2366C4.68117 31.9302 5.03167 31.7293 5.41848 31.6782C5.6109 31.6505 5.80696 31.6608 5.99535 31.7084C6.18374 31.756 6.36072 31.8401 6.51609 31.9557C6.67145 32.0713 6.80213 32.2162 6.90057 32.3821C6.99902 32.5479 7.06328 32.7314 7.08965 32.9219C7.09053 32.927 7.0917 32.932 7.09316 32.9369L7.23296 33.9341L7.25714 34.1186L6.96689 34.1587C6.88984 34.0128 6.72616 33.9218 6.55306 33.9456C6.44711 33.9607 6.35147 34.0166 6.28695 34.1011C6.22243 34.1855 6.19426 34.2918 6.20856 34.3967C6.21712 34.4553 6.23868 34.5113 6.27167 34.5606C6.30466 34.61 6.34828 34.6515 6.39941 34.6823C6.45053 34.713 6.5079 34.7322 6.5674 34.7385C6.6269 34.7448 6.68707 34.738 6.7436 34.7186ZM6.62761 34.4735C6.64563 34.4711 6.663 34.4652 6.67874 34.4562C6.70165 34.4429 6.71999 34.4231 6.7314 34.3994C6.74281 34.3757 6.74676 34.3491 6.74273 34.3231C6.74054 34.3057 6.73483 34.2888 6.72592 34.2736C6.71702 34.2583 6.70512 34.245 6.69091 34.2344C6.6767 34.2238 6.66049 34.2161 6.64322 34.2118C6.62596 34.2075 6.608 34.2067 6.59041 34.2094C6.57276 34.2115 6.55572 34.2172 6.54031 34.226C6.5249 34.2347 6.51143 34.2465 6.5007 34.2605C6.48996 34.2745 6.48218 34.2906 6.47782 34.3076C6.47345 34.3247 6.47259 34.3424 6.47529 34.3598C6.48585 34.4344 6.55215 34.484 6.62761 34.4735ZM5.02555 34.6946C5.04355 34.6921 5.06089 34.6861 5.07658 34.6771C5.09934 34.6637 5.11779 34.6439 5.12907 34.6202C5.14034 34.5965 5.14417 34.5701 5.14007 34.5442C5.13788 34.5267 5.13217 34.5099 5.12326 34.4946C5.11436 34.4794 5.10245 34.4661 5.08825 34.4555C5.07404 34.4449 5.05783 34.4372 5.04056 34.4329C5.0233 34.4286 5.00534 34.4278 4.98775 34.4305C4.97013 34.4326 4.95313 34.4382 4.93776 34.447C4.92238 34.4558 4.90895 34.4675 4.89825 34.4815C4.88756 34.4956 4.87983 34.5116 4.87551 34.5286C4.87119 34.5456 4.87038 34.5633 4.87312 34.5807C4.88369 34.6553 4.95009 34.7051 5.02555 34.6946ZM6.24442 31.5102C6.51937 31.6134 6.76359 31.7835 6.95451 32.0047C6.87216 31.6479 6.65717 31.3348 6.35191 31.1279C6.04666 30.9209 5.67379 30.8353 5.30758 30.8881C4.94122 30.9364 4.60663 31.1192 4.37025 31.4002C4.13386 31.6812 4.01298 32.0398 4.0316 32.4048C4.15439 32.1409 4.34241 31.9119 4.57831 31.7387C4.81421 31.5656 5.0904 31.454 5.38139 31.4143C5.67265 31.374 5.96946 31.407 6.24442 31.5102ZM5.26996 30.623C5.30954 30.6173 5.34891 30.6148 5.38811 30.6124C5.39287 30.6122 5.39763 30.6119 5.40239 30.6116L5.3826 30.4716C5.38057 30.4541 5.37496 30.4372 5.36611 30.4219C5.35726 30.4066 5.34536 30.3933 5.33113 30.3827C5.3169 30.3721 5.30064 30.3645 5.28334 30.3603C5.26604 30.3561 5.24806 30.3554 5.23049 30.3583C5.21281 30.3603 5.19573 30.3659 5.18028 30.3746C5.16483 30.3833 5.15134 30.3951 5.14062 30.4091C5.1299 30.4232 5.12218 30.4392 5.11792 30.4563C5.11367 30.4734 5.11297 30.4912 5.11587 30.5085L5.13566 30.6485L5.14252 30.647C5.18468 30.6379 5.22661 30.6288 5.26996 30.623Z" fill="#0FCB02"/>
<path fill-rule="evenodd" clip-rule="evenodd" d="M18.0852 30.0735C18.1396 30.0346 18.2043 29.6477 18.329 29.8088L19.2423 31.0004L20.2091 32.2621C20.3384 32.432 20.4075 32.6393 20.4057 32.852C20.4039 33.0646 20.3313 33.2708 20.1992 33.4385C20.2982 33.6225 20.328 33.8354 20.2831 34.0391C20.2383 34.2428 20.1217 34.4242 19.9542 34.5508C19.7659 34.6911 19.5291 34.752 19.2956 34.7202C19.062 34.6885 18.8507 34.5666 18.7077 34.3812C18.566 34.195 18.5045 33.961 18.5367 33.7302C18.5689 33.4994 18.6922 33.2906 18.8796 33.1494C19.0366 33.0329 19.2281 32.9709 19.4244 32.9731C19.6206 32.9754 19.8107 33.0416 19.9649 33.1617C20.0926 32.953 20.0856 32.6834 19.9259 32.4746L18.9583 31.2128L18.0852 30.0735ZM19.7389 34.2705C19.7094 34.293 19.6781 34.3113 19.6461 34.3269C19.5354 34.3797 19.4099 34.3927 19.2904 34.3639C19.171 34.3351 19.0654 34.2661 18.9917 34.1688C18.949 34.1137 18.9179 34.0508 18.8999 33.9837C18.882 33.9166 18.8777 33.8467 18.8873 33.7779C18.8968 33.7092 18.92 33.643 18.9556 33.5832C18.9912 33.5234 19.0383 33.4712 19.0944 33.4295C19.1501 33.3873 19.2137 33.3564 19.2815 33.3387C19.3493 33.3209 19.42 33.3167 19.4895 33.3261C19.559 33.3356 19.6259 33.3586 19.6864 33.3938C19.7468 33.429 19.7996 33.4757 19.8417 33.5312C19.8843 33.5863 19.9155 33.6492 19.9334 33.7163C19.9513 33.7834 19.9556 33.8533 19.9461 33.922C19.9365 33.9908 19.9133 34.057 19.8777 34.1168C19.8422 34.1766 19.795 34.2288 19.7389 34.2705Z" fill="#0FCB02"/>
<path d="M19.4776 34.0156C19.4419 34.0283 19.403 34.0293 19.3667 34.0186C19.3303 34.0079 19.2984 33.986 19.2756 33.956C19.2614 33.9376 19.251 33.9166 19.245 33.8942C19.239 33.8719 19.2375 33.8485 19.2407 33.8256C19.2438 33.8027 19.2515 33.7806 19.2633 33.7606C19.2751 33.7406 19.2908 33.7231 19.3095 33.7091C19.3471 33.6811 19.3944 33.6689 19.4411 33.6754C19.4877 33.6818 19.5299 33.7062 19.5583 33.7434C19.5725 33.7618 19.5828 33.7827 19.5887 33.8051C19.5947 33.8274 19.5961 33.8507 19.593 33.8736C19.5898 33.8965 19.5821 33.9186 19.5703 33.9386C19.5585 33.9585 19.5429 33.976 19.5243 33.99C19.5101 34.0008 19.4944 34.0094 19.4776 34.0156Z" fill="#0FCB02"/>
<path d="M13.6557 24.021C13.5191 23.8859 13.2915 23.8859 13.155 24.021C12.6543 24.5161 11.8804 24.5161 11.3797 24.021C11.2432 23.8859 11.0156 23.8859 10.879 24.021C10.7425 24.156 10.7425 24.3811 10.879 24.5161C11.2432 24.8762 11.7439 25.0563 12.2446 25.0563C12.7453 25.0563 13.246 24.8762 13.6101 24.5161C13.7922 24.3811 13.7922 24.156 13.6557 24.021Z" fill="#576999"/>
<path d="M9.60452 19.52C8.96726 19.52 8.46655 20.0152 8.46655 20.6454C8.46655 21.2756 8.96726 21.7708 9.60452 21.7708C10.2418 21.7708 10.7425 21.2756 10.7425 20.6454C10.7425 20.0152 10.2418 19.52 9.60452 19.52ZM9.60452 21.1406C9.33141 21.1406 9.14933 20.9155 9.14933 20.6904C9.14933 20.4653 9.37692 20.2403 9.60452 20.2403C9.87763 20.2403 10.0597 20.4653 10.0597 20.6904C10.0597 20.9155 9.87763 21.1406 9.60452 21.1406Z" fill="#576999"/>
<path d="M14.9754 19.52C14.3381 19.52 13.8374 20.0152 13.8374 20.6454C13.8374 21.2756 14.3381 21.7708 14.9754 21.7708C15.6126 21.7708 16.1133 21.2756 16.1133 20.6454C16.1133 20.0152 15.6126 19.52 14.9754 19.52ZM14.9754 21.1406C14.7023 21.1406 14.5202 20.9155 14.5202 20.6904C14.5202 20.4653 14.7478 20.2403 14.9754 20.2403C15.203 20.2403 15.4306 20.4653 15.4306 20.6904C15.4306 20.9155 15.2485 21.1406 14.9754 21.1406Z" fill="#576999"/>
<path d="M8.78499 19.1598C8.78499 19.1598 9.60433 18.5747 10.4692 19.1598C10.6057 19.2499 10.8333 19.2499 10.9244 19.0698C11.0154 18.9348 11.0154 18.7097 10.8333 18.6197C9.83192 17.8994 8.78499 18.3046 8.32981 18.6197C8.19325 18.7097 8.14773 18.9348 8.23877 19.0698C8.42084 19.2499 8.64844 19.2949 8.78499 19.1598V19.1598Z" fill="#576999"/>
<path d="M14.1563 19.1598C14.1563 19.1598 14.9757 18.5747 15.8405 19.1598C15.9771 19.2499 16.2047 19.2499 16.2957 19.0698C16.3867 18.9348 16.3867 18.7097 16.2047 18.6197C15.2033 17.8994 14.1563 18.3046 13.7011 18.6197C13.5646 18.7097 13.5191 18.9348 13.6101 19.0698C13.7922 19.2499 13.9743 19.2949 14.1563 19.1598Z" fill="#576999"/>
<path d="M12.2902 22.8958C12.4722 22.8958 12.6543 22.7607 12.6543 22.5357V21.5903C12.6543 21.4103 12.5178 21.2302 12.2902 21.2302C12.0626 21.2302 11.926 21.3653 11.926 21.5903V22.5357C11.9715 22.7157 12.1081 22.8958 12.2902 22.8958Z" fill="#576999"/>
<path d="M24.2614 38.426C24.4435 38.426 24.6255 38.291 24.6255 38.0659C24.6255 37.8408 24.489 37.7058 24.2614 37.7058H23.5331V34.6448C23.5331 31.2236 20.7109 28.4777 17.2971 28.4777H16.5688C15.2032 27.3974 15.2487 27.4424 15.1577 27.3974V26.6771C15.5674 26.407 15.977 26.0469 16.3412 25.6418C19.3909 24.7415 20.9841 22.5357 20.9841 19.0246C20.9841 13.5327 17.115 9.03125 12.3811 9.03125C7.64712 9.03125 3.73252 13.5327 3.73252 19.0246C3.73252 22.4907 5.28015 24.7415 8.37542 25.6418C8.73957 26.0469 9.14923 26.407 9.5589 26.6771V27.3974C9.46786 27.4424 9.51338 27.3974 8.14782 28.4777H7.41953C3.96012 28.4777 1.18348 31.2686 1.18348 34.6448V37.7058H0.364149C0.182074 37.7058 0 37.8408 0 38.0659C0 38.291 0.136556 38.426 0.364149 38.426H24.2614ZM10.5603 31.5387C10.6058 31.5387 12.0624 31.0436 11.9714 31.0436V33.6995L10.8334 37.7058H8.69405L10.5603 31.5387ZM14.0197 31.5387L15.886 37.7508H13.7466L12.6086 33.7445V31.0886C12.6997 31.0886 14.1108 31.5838 14.0197 31.5387ZM12.29 35.0499L13.0638 37.7508H11.5162L12.29 35.0499V35.0499ZM22.8503 34.6898V37.7508H16.6143L14.8391 31.8088H14.8846C15.0211 31.8088 15.1122 31.7638 15.1577 31.6288L16.6143 29.198H17.2515C20.3468 29.198 22.8503 31.6738 22.8503 34.6898ZM15.977 28.9729L14.7025 31.0886C14.657 31.0886 12.7452 30.4134 12.8818 30.4584C12.9273 30.4134 15.0666 28.2076 15.0211 28.2526L15.977 28.9729V28.9729ZM4.36978 19.0696C4.36978 13.9379 7.92023 9.75149 12.3355 9.75149C16.7053 9.75149 20.2558 13.9379 20.2558 19.0696C20.2558 21.8605 19.2088 23.7061 17.0695 24.6514C17.4791 24.0212 17.8433 23.256 18.1164 22.4457C18.7992 22.2206 19.3909 21.3654 19.573 20.33C19.7551 19.3397 19.4819 17.9892 18.5261 17.6741C18.4805 17.4941 18.3895 17.404 18.2985 17.404C16.5232 16.8639 15.4763 15.1533 14.8846 13.7128L15.0211 13.5778C15.1577 13.4427 15.1122 13.2176 14.9756 13.0826C14.8391 12.9476 14.6115 12.9926 14.4749 13.1276C11.7893 16.1436 8.64853 17.0889 6.14501 16.6838C5.96293 16.6388 5.78086 16.7738 5.73534 16.9539C5.68982 17.1339 5.82638 17.314 6.00845 17.359H6.09949C6.05397 17.4491 6.05397 17.5391 6.00845 17.6741C5.05256 17.9892 4.77945 19.3397 4.96152 20.33C5.1436 21.3654 5.73534 22.2206 6.41812 22.4457C6.69123 23.256 7.05538 23.9762 7.46505 24.6514C5.41671 23.7061 4.36978 21.8605 4.36978 19.0696V19.0696ZM7.05538 22.0856C7.00986 21.9505 6.91882 21.8605 6.78227 21.8605C6.3726 21.7705 5.82638 21.1853 5.68982 20.24C5.59878 19.7448 5.6443 19.2496 5.78086 18.8445C5.8719 18.6645 6.00845 18.3493 6.32708 18.3043C6.50916 18.3043 6.64571 18.1693 6.64571 18.0342C6.69123 17.8542 6.69123 17.6291 6.73675 17.4491C9.60442 17.6291 12.2445 16.2787 14.2928 14.253C14.9301 15.6935 16.0681 17.359 17.8433 17.9892V18.0342C17.8433 18.2143 17.9798 18.3494 18.1619 18.3494C18.435 18.3944 18.6171 18.6645 18.7537 18.9345C18.8902 19.2947 18.9357 19.8348 18.8447 20.33C18.6626 21.2753 18.1619 21.8605 17.7522 21.9505C17.6157 21.9505 17.5247 22.0406 17.4791 22.1756C17.115 23.346 16.5232 24.3814 15.8405 25.1916C14.8391 26.362 13.5645 27.0372 12.29 27.0372C10.1051 26.9472 8.01127 25.0116 7.05538 22.0856V22.0856ZM12.29 27.6224C13.0183 27.6224 13.7466 27.4424 14.4294 27.0823V27.8475L12.29 30.0532C12.2445 30.0082 10.1051 27.8025 10.1506 27.8475V27.0823C10.8334 27.4424 11.5617 27.6224 12.29 27.6224ZM9.5589 28.2076C9.96857 28.6128 11.7893 30.5484 11.6983 30.4134C11.6528 30.4134 9.74097 31.0886 9.87753 31.0436L8.64853 28.9279L9.5589 28.2076V28.2076ZM1.77522 34.6898C1.77522 31.6738 4.27875 29.198 7.32849 29.198H7.96575L9.42234 31.6288C9.46786 31.7188 9.60442 31.8088 9.69546 31.8088H9.74097L7.96575 37.7508H1.77522V34.6898Z" fill="#576999"/>
<path d="M26.6371 6.58668C26.4203 6.58668 26.2446 6.76241 26.2446 6.97918C26.2446 7.19595 26.4203 7.37168 26.6371 7.37168V6.58668ZM32.5704 7.37168C32.7872 7.37168 32.9629 7.19595 32.9629 6.97918C32.9629 6.76241 32.7872 6.58668 32.5704 6.58668V7.37168ZM27.376 8.73194C27.1592 8.73194 26.9835 8.90767 26.9835 9.12444C26.9835 9.34121 27.1592 9.51694 27.376 9.51694V8.73194ZM31.8283 9.51694C32.045 9.51694 32.2208 9.34121 32.2208 9.12444C32.2208 8.90767 32.045 8.73194 31.8283 8.73194V9.51694ZM26.1995 3.05824C25.9856 3.09361 25.8409 3.29566 25.8763 3.50953C25.9117 3.72339 26.1137 3.86809 26.3276 3.83272L26.1995 3.05824ZM26.7781 3.40375L26.7773 3.79625H26.7781V3.40375ZM32.4387 3.40375L32.4416 3.01125H32.4387V3.40375ZM35.5427 6.51925L35.1502 6.51637V6.51925H35.5427ZM35.5427 10.3014H35.1502L35.1502 10.3019L35.5427 10.3014ZM35.107 10.7909C35.0687 11.0043 35.2107 11.2083 35.424 11.2465C35.6374 11.2848 35.8414 11.1429 35.8797 10.9295L35.107 10.7909ZM26.331 3.83227C26.5445 3.795 26.6874 3.59167 26.6501 3.37813C26.6129 3.16459 26.4095 3.02169 26.196 3.05896L26.331 3.83227ZM23.6709 6.51837H24.0635L24.0634 6.51623L23.6709 6.51837ZM23.6709 15.1382H23.2784C23.2784 15.2772 23.352 15.4058 23.4718 15.4764C23.5915 15.5469 23.7397 15.5488 23.8613 15.4814L23.6709 15.1382ZM26.775 13.417V13.0245C26.7084 13.0245 26.6429 13.0415 26.5847 13.0738L26.775 13.417ZM32.4355 13.417V13.8096L32.4381 13.8095L32.4355 13.417ZM35.8736 10.9316C35.9113 10.7181 35.7688 10.5145 35.5553 10.4768C35.3418 10.4392 35.1382 10.5817 35.1006 10.7952L35.8736 10.9316ZM25.8769 3.37782C25.8395 3.59133 25.9822 3.79478 26.1957 3.83224C26.4092 3.86969 26.6127 3.72697 26.6501 3.51346L25.8769 3.37782ZM29.3182 0.888916V0.49641L29.3159 0.496422L29.3182 0.888916ZM34.9787 0.888916L34.982 0.496416H34.9787V0.888916ZM38.0797 4.00442L37.6872 4.00153V4.00442H38.0797ZM38.0797 7.78658H37.6872L37.6872 7.78923L38.0797 7.78658ZM35.4197 10.4767C35.2061 10.514 35.0632 10.7173 35.1005 10.9309C35.1378 11.1444 35.3411 11.2873 35.5546 11.2501L35.4197 10.4767ZM26.6371 7.37168H32.5704V6.58668H26.6371V7.37168ZM27.376 9.51694H31.8283V8.73194H27.376V9.51694ZM26.3276 3.83272C26.4762 3.80815 26.6266 3.79595 26.7773 3.79625L26.7789 3.01125C26.5848 3.01086 26.391 3.02658 26.1995 3.05824L26.3276 3.83272ZM26.7781 3.79625H32.4387V3.01125H26.7781V3.79625ZM32.4358 3.79624C33.9501 3.80754 35.1612 5.02932 35.1502 6.51637L35.9352 6.52214C35.9494 4.59338 34.3812 3.02573 32.4416 3.01127L32.4358 3.79624ZM35.1502 6.51925V10.3014H35.9352V6.51925H35.1502ZM35.1502 10.3019C35.1504 10.4658 35.1359 10.6295 35.107 10.7909L35.8797 10.9295C35.9169 10.722 35.9355 10.5117 35.9352 10.301L35.1502 10.3019ZM26.196 3.05896C24.5046 3.35419 23.2692 4.81376 23.2785 6.5205L24.0634 6.51623C24.0563 5.19879 25.0108 4.0627 26.331 3.83227L26.196 3.05896ZM23.2784 6.51837V15.1382H24.0634V6.51837H23.2784ZM23.8613 15.4814L26.9653 13.7603L26.5847 13.0738L23.4806 14.7949L23.8613 15.4814ZM26.775 13.8095H32.4355V13.0245H26.775V13.8095ZM32.4381 13.8095C34.1322 13.7985 35.5809 12.59 35.8736 10.9316L35.1006 10.7952C34.8748 12.0744 33.7542 13.016 32.433 13.0246L32.4381 13.8095ZM26.6501 3.51346C26.8749 2.23223 27.9973 1.28893 29.3204 1.28141L29.3159 0.496422C27.6195 0.506058 26.1684 1.71673 25.8769 3.37782L26.6501 3.51346ZM29.3182 1.28142H34.9787V0.496416H29.3182V1.28142ZM34.9754 1.2814C36.4887 1.29417 37.6981 2.51551 37.6872 4.00153L38.4722 4.0073C38.4863 2.07989 36.9203 0.512779 34.982 0.49643L34.9754 1.2814ZM37.6872 4.00442V7.78658H38.4722V4.00442H37.6872ZM37.6872 7.78923C37.6961 9.108 36.7412 10.2461 35.4197 10.4767L35.5546 11.2501C37.2477 10.9545 38.4837 9.49241 38.4722 7.78392L37.6872 7.78923Z" fill="#576999"/>
<path fill-rule="evenodd" clip-rule="evenodd" d="M42.5769 19.0316C42.5769 21.111 44.2814 22.7967 46.384 22.7967C48.4866 22.7967 50.1912 21.111 50.1912 19.0316C50.1912 16.9523 48.4866 15.2666 46.384 15.2666C44.2814 15.2666 42.5769 16.9523 42.5769 19.0316Z" stroke="#576999" stroke-width="0.785" stroke-linecap="round" stroke-linejoin="round"/>
<path fill-rule="evenodd" clip-rule="evenodd" d="M38.7698 32.5874C38.7698 35.4922 42.1787 37.8597 46.3857 37.8597C50.5927 37.8597 54 35.4987 54 32.5874C54 29.676 50.591 27.3167 46.3841 27.3167C42.1771 27.3167 38.7698 29.676 38.7698 32.5874Z" stroke="#576999" stroke-width="0.785" stroke-linecap="round" stroke-linejoin="round"/>
<path fill-rule="evenodd" clip-rule="evenodd" d="M34.5172 22.5465C34.5172 23.7943 35.54 24.8058 36.8018 24.8058C38.0636 24.8058 39.0864 23.7943 39.0864 22.5465C39.0864 21.2987 38.0636 20.2871 36.8018 20.2871C36.1959 20.2871 35.6148 20.5251 35.1863 20.9489C34.7579 21.3726 34.5172 21.9472 34.5172 22.5465Z" stroke="#576999" stroke-width="0.785" stroke-linecap="round" stroke-linejoin="round"/>
<path d="M35.7231 36.3541C33.4161 36.5414 31.383 34.8654 31.1539 32.5874C31.3838 30.3101 33.4167 28.635 35.7231 28.8224" stroke="#576999" stroke-width="0.785" stroke-linecap="round" stroke-linejoin="round"/>
</svg>
