<svg width="57" height="40" viewBox="0 0 57 40" fill="none" xmlns="http://www.w3.org/2000/svg">
<path d="M22.6062 4.30361C22.3991 4.30361 22.2312 4.4715 22.2312 4.67861C22.2312 4.88572 22.3991 5.05361 22.6062 5.05361V4.30361ZM27.8195 5.05361C28.0266 5.05361 28.1945 4.88572 28.1945 4.67861C28.1945 4.4715 28.0266 4.30361 27.8195 4.30361V5.05361ZM23.2556 6.3041C23.0485 6.3041 22.8806 6.47199 22.8806 6.6791C22.8806 6.8862 23.0485 7.0541 23.2556 7.0541V6.3041ZM27.1676 7.0541C27.3747 7.0541 27.5426 6.8862 27.5426 6.6791C27.5426 6.47199 27.3747 6.3041 27.1676 6.3041V7.0541ZM22.2133 1.01478C22.0093 1.05057 21.8729 1.24496 21.9087 1.44895C21.9445 1.65294 22.1389 1.78929 22.3429 1.75349L22.2133 1.01478ZM22.7302 1.34522L22.7294 1.72022H22.7302V1.34522ZM27.7039 1.34522L27.7069 0.970221H27.7039V1.34522ZM30.4313 4.25015L30.0563 4.24755V4.25015H30.4313ZM30.4313 7.77668H30.0563V7.77709L30.4313 7.77668ZM30.0181 8.23519C29.9836 8.4394 30.1211 8.63293 30.3254 8.66745C30.5296 8.70196 30.7231 8.5644 30.7576 8.36019L30.0181 8.23519ZM22.3463 1.75252C22.5499 1.7148 22.6844 1.51913 22.6467 1.31549C22.609 1.11185 22.4133 0.977341 22.2097 1.01506L22.3463 1.75252ZM20 4.24886H20.375L20.375 4.24694L20 4.24886ZM20 12.2861H19.625C19.625 12.4206 19.6971 12.5448 19.8139 12.6116C19.9307 12.6784 20.0743 12.6775 20.1902 12.6093L20 12.2861ZM22.7274 10.6813V10.3063C22.6605 10.3063 22.5949 10.3242 22.5372 10.3581L22.7274 10.6813ZM27.7011 10.6813V11.0563L27.7037 11.0563L27.7011 10.6813ZM30.7523 8.36172C30.7862 8.15742 30.6482 7.96425 30.4438 7.93028C30.2395 7.8963 30.0464 8.03438 30.0124 8.23868L30.7523 8.36172ZM22.6062 5.05361H27.8195V4.30361H22.6062V5.05361ZM23.2556 7.0541H27.1676V6.3041H23.2556V7.0541ZM22.3429 1.75349C22.4707 1.73106 22.6 1.71994 22.7294 1.72022L22.731 0.970222C22.5575 0.969846 22.3843 0.984756 22.2133 1.01478L22.3429 1.75349ZM22.7302 1.72022H27.7039V0.970221H22.7302V1.72022ZM27.7009 1.72021C28.9946 1.73045 30.066 2.84481 30.0563 4.24755L30.8063 4.25275C30.8186 2.47056 29.4481 0.984014 27.7069 0.970233L27.7009 1.72021ZM30.0563 4.25015V7.77668H30.8063V4.25015H30.0563ZM30.0563 7.77709C30.0564 7.93071 30.0437 8.08402 30.0181 8.23519L30.7576 8.36019C30.7902 8.16739 30.8065 7.972 30.8063 7.77628L30.0563 7.77709ZM22.2097 1.01506C20.6958 1.29547 19.6169 2.67228 19.625 4.25078L20.375 4.24694C20.3687 3.00565 21.2141 1.96223 22.3463 1.75252L22.2097 1.01506ZM19.625 4.24886V12.2861H20.375V4.24886H19.625ZM20.1902 12.6093L22.9176 11.0045L22.5372 10.3581L19.8099 11.9629L20.1902 12.6093ZM22.7274 11.0563H27.7011V10.3063H22.7274V11.0563ZM27.7037 11.0563C29.2235 11.0458 30.4967 9.89831 30.7523 8.36172L30.0124 8.23868C29.8124 9.44117 28.8281 10.2985 27.6985 10.3063L27.7037 11.0563Z" fill="#576999"/>
<path fill-rule="evenodd" clip-rule="evenodd" d="M37.1533 2.03892C37.0039 2.01269 36.8527 1.99968 36.7012 2.00001H31.7275C30.2101 2.01202 28.9891 3.31247 29.0001 4.90494V8.43147C28.9999 8.60614 29.0145 8.78049 29.0435 8.95248M37.1534 2.03857C38.4765 2.28364 39.4386 3.49375 39.4314 4.90365V12.9408L36.704 11.3361H31.7303C30.4056 11.3269 29.2768 10.3245 29.0491 8.95498" fill="#576999"/>
<path d="M37.2181 1.66956C37.4221 1.70536 37.5585 1.89975 37.5227 2.10374C37.4869 2.30773 37.2925 2.44407 37.0885 2.40827L37.2181 1.66956ZM36.7012 2.00001L36.702 2.37501H36.7012V2.00001ZM31.7275 2.00001L31.7245 1.62501H31.7275V2.00001ZM29.0001 4.90494L29.3751 4.90234V4.90494H29.0001ZM29.0001 8.43147H29.3751V8.43187L29.0001 8.43147ZM29.4133 8.88998C29.4478 9.09419 29.3103 9.28772 29.106 9.32223C28.9018 9.35675 28.7083 9.21918 28.6738 9.01497L29.4133 8.88998ZM37.0851 2.4073C36.8815 2.36958 36.747 2.17392 36.7847 1.97028C36.8224 1.76663 37.0181 1.63213 37.2217 1.66985L37.0851 2.4073ZM39.4314 4.90365H39.0564L39.0564 4.90172L39.4314 4.90365ZM39.4314 12.9408H39.8064C39.8064 13.0754 39.7343 13.1996 39.6175 13.2664C39.5007 13.3332 39.3571 13.3323 39.2412 13.264L39.4314 12.9408ZM36.704 11.3361V10.9611C36.7709 10.9611 36.8365 10.9789 36.8942 11.0129L36.704 11.3361ZM31.7303 11.3361V11.7111L31.7277 11.711L31.7303 11.3361ZM28.6791 9.0165C28.6452 8.8122 28.7832 8.61904 28.9875 8.58506C29.1918 8.55109 29.385 8.68916 29.419 8.89346L28.6791 9.0165ZM37.0885 2.40827C36.9607 2.38585 36.8314 2.37473 36.702 2.37501L36.7004 1.62501C36.8739 1.62463 37.0471 1.63954 37.2181 1.66956L37.0885 2.40827ZM36.7012 2.37501H31.7275V1.62501H36.7012V2.37501ZM31.7305 2.37499C30.4368 2.38523 29.3654 3.4996 29.3751 4.90234L28.6251 4.90753C28.6128 3.12534 29.9833 1.6388 31.7245 1.62502L31.7305 2.37499ZM29.3751 4.90494V8.43147H28.6251V4.90494H29.3751ZM29.3751 8.43187C29.375 8.5855 29.3877 8.7388 29.4133 8.88998L28.6738 9.01497C28.6412 8.82217 28.6249 8.62678 28.6251 8.43106L29.3751 8.43187ZM37.2217 1.66985C38.7356 1.95025 39.8144 3.32706 39.8064 4.90557L39.0564 4.90172C39.0627 3.66044 38.2173 2.61702 37.0851 2.4073L37.2217 1.66985ZM39.8064 4.90365V12.9408H39.0564V4.90365H39.8064ZM39.2412 13.264L36.5138 11.6593L36.8942 11.0129L39.6215 12.6176L39.2412 13.264ZM36.704 11.7111H31.7303V10.9611H36.704V11.7111ZM31.7277 11.711C30.2079 11.7006 28.9347 10.5531 28.6791 9.0165L29.419 8.89346C29.619 10.096 30.6033 10.9533 31.7329 10.9611L31.7277 11.711Z" fill="#576999"/>
<path d="M31 5.6041C30.8067 5.6041 30.65 5.7608 30.65 5.9541C30.65 6.1474 30.8067 6.3041 31 6.3041V5.6041ZM37 6.3041C37.1933 6.3041 37.35 6.1474 37.35 5.9541C37.35 5.7608 37.1933 5.6041 37 5.6041V6.3041ZM31 7.38998C30.8067 7.38998 30.65 7.54668 30.65 7.73998C30.65 7.93328 30.8067 8.08998 31 8.08998V7.38998ZM35.5 8.08998C35.6933 8.08998 35.85 7.93328 35.85 7.73998C35.85 7.54668 35.6933 7.38998 35.5 7.38998V8.08998ZM31 6.3041H37V5.6041H31V6.3041ZM31 8.08998H35.5V7.38998H31V8.08998Z" fill="white"/>
<path fill-rule="evenodd" clip-rule="evenodd" d="M6.05545 36.0656C6.11391 36.0446 6.16599 36.0091 6.20678 35.9627C6.24757 35.9162 6.27572 35.8603 6.28858 35.8001L6.6686 35.7481C6.68074 35.7465 6.69256 35.743 6.70365 35.7379L6.70271 35.7357C6.72589 35.7249 6.74502 35.7071 6.75734 35.6849C6.76966 35.6627 6.77454 35.6372 6.77128 35.6121L6.73437 35.328L6.60724 34.4271C6.6071 34.4245 6.60686 34.4219 6.60655 34.4193L6.60643 34.4178L6.50617 33.7086C6.40371 32.9814 5.80607 32.4455 5.0959 32.3809L5.07349 32.2192C5.06264 32.1459 5.02922 32.0777 4.97777 32.0238C4.92632 31.97 4.85934 31.9331 4.78595 31.9183L4.65168 31.8855L4.54654 31.9517C4.48026 31.9859 4.42621 32.0394 4.39173 32.105C4.35725 32.1706 4.34401 32.2451 4.35379 32.3184L4.37698 32.4813C3.71387 32.7367 3.28855 33.4126 3.39098 34.1385L3.49108 34.8486C3.49155 34.8526 3.49223 34.8567 3.49312 34.8607L3.61948 35.7568L3.65664 36.0402C3.65868 36.0559 3.66382 36.071 3.67178 36.0847C3.67974 36.0984 3.69036 36.1104 3.70302 36.12C3.71569 36.1296 3.73015 36.1366 3.74557 36.1407C3.761 36.1447 3.77708 36.1457 3.7929 36.1436L4.17496 36.0903C4.2095 36.1559 4.26361 36.2094 4.32994 36.2435C4.39628 36.2776 4.47162 36.2907 4.54573 36.2809C4.64087 36.2673 4.72675 36.2171 4.78471 36.1413C4.84266 36.0654 4.86803 35.97 4.8553 35.8758C4.84159 35.7817 4.79086 35.6968 4.71416 35.6395C4.63745 35.5822 4.54097 35.5572 4.4457 35.5699C4.37163 35.5806 4.30268 35.6135 4.24822 35.6643C4.19376 35.7151 4.15643 35.7813 4.1413 35.8538L3.88102 35.8894L3.85942 35.7253L3.72931 34.8032C3.68352 34.4596 3.77744 34.1121 3.99047 33.8369C4.2035 33.5618 4.51823 33.3814 4.86557 33.3355C5.03835 33.3106 5.2144 33.3199 5.38356 33.3626C5.55272 33.4054 5.71164 33.4809 5.85115 33.5847C5.99066 33.6885 6.108 33.8187 6.1964 33.9676C6.28479 34.1165 6.3425 34.2812 6.36618 34.4523C6.36696 34.4568 6.36802 34.4613 6.36933 34.4658L6.49486 35.3612L6.51658 35.5268L6.25594 35.5628C6.18676 35.4319 6.03978 35.3502 5.88435 35.3715C5.78921 35.3851 5.70333 35.4352 5.6454 35.5111C5.58747 35.587 5.56217 35.6824 5.57501 35.7766C5.5827 35.8292 5.60205 35.8794 5.63168 35.9238C5.6613 35.9681 5.70047 36.0054 5.74638 36.033C5.79229 36.0606 5.8438 36.0779 5.89723 36.0835C5.95066 36.0891 6.00469 36.083 6.05545 36.0656ZM5.95129 35.8456C5.96747 35.8434 5.98307 35.8381 5.99721 35.83C6.01777 35.818 6.03425 35.8003 6.04449 35.779C6.05473 35.7577 6.05828 35.7338 6.05466 35.7105C6.0527 35.6948 6.04757 35.6797 6.03957 35.666C6.03158 35.6523 6.02089 35.6403 6.00813 35.6308C5.99537 35.6213 5.98081 35.6144 5.96531 35.6105C5.94981 35.6067 5.93368 35.606 5.91789 35.6084C5.90204 35.6103 5.88674 35.6154 5.8729 35.6233C5.85907 35.6311 5.84697 35.6417 5.83733 35.6543C5.82769 35.6669 5.82071 35.6813 5.81679 35.6966C5.81287 35.7119 5.8121 35.7278 5.81452 35.7434C5.824 35.8104 5.88353 35.8549 5.95129 35.8456ZM4.51274 36.0441C4.5289 36.0418 4.54447 36.0365 4.55856 36.0283C4.579 36.0164 4.59556 35.9985 4.60569 35.9773C4.61581 35.956 4.61925 35.9322 4.61557 35.909C4.6136 35.8934 4.60847 35.8782 4.60048 35.8645C4.59248 35.8508 4.58179 35.8389 4.56904 35.8293C4.55628 35.8198 4.54172 35.8129 4.52622 35.8091C4.51071 35.8052 4.49459 35.8045 4.47879 35.8069C4.46297 35.8088 4.44771 35.8139 4.4339 35.8218C4.4201 35.8296 4.40803 35.8402 4.39843 35.8528C4.38883 35.8653 4.38188 35.8797 4.37801 35.895C4.37413 35.9103 4.3734 35.9262 4.37587 35.9418C4.38535 36.0088 4.44498 36.0535 4.51274 36.0441ZM5.60721 33.1847C5.8541 33.2774 6.07339 33.4301 6.24483 33.6287C6.17088 33.3083 5.97783 33.0271 5.70373 32.8413C5.42963 32.6556 5.09482 32.5787 4.76598 32.6261C4.43701 32.6694 4.13657 32.8336 3.92431 33.0859C3.71205 33.3382 3.60351 33.6602 3.62022 33.988C3.73049 33.751 3.89932 33.5453 4.11114 33.3899C4.32297 33.2344 4.57097 33.1342 4.83226 33.0985C5.09379 33.0624 5.36032 33.092 5.60721 33.1847ZM4.7322 32.388C4.76774 32.3829 4.8031 32.3807 4.8383 32.3785C4.84257 32.3783 4.84684 32.378 4.85111 32.3777L4.83335 32.2521C4.83152 32.2364 4.82648 32.2212 4.81854 32.2074C4.81059 32.1937 4.7999 32.1817 4.78713 32.1722C4.77435 32.1627 4.75975 32.1559 4.74422 32.1521C4.72868 32.1484 4.71254 32.1478 4.69676 32.1504C4.68089 32.1522 4.66555 32.1571 4.65168 32.165C4.6378 32.1728 4.62569 32.1834 4.61606 32.196C4.60643 32.2086 4.5995 32.223 4.59568 32.2383C4.59186 32.2537 4.59123 32.2696 4.59384 32.2852L4.6116 32.4109L4.61777 32.4096C4.65563 32.4014 4.69328 32.3932 4.7322 32.388Z" fill="#0FCB02"/>
<path fill-rule="evenodd" clip-rule="evenodd" d="M16.2394 31.8947C16.2882 31.8598 16.3464 31.5123 16.4583 31.657L17.2784 32.727L18.1465 33.8599C18.2626 34.0125 18.3247 34.1987 18.323 34.3896C18.3214 34.5805 18.2563 34.7656 18.1376 34.9163C18.2266 35.0815 18.2533 35.2727 18.213 35.4556C18.1727 35.6385 18.0681 35.8013 17.9177 35.915C17.7486 36.041 17.536 36.0957 17.3262 36.0672C17.1165 36.0387 16.9267 35.9292 16.7984 35.7627C16.6711 35.5956 16.6159 35.3855 16.6448 35.1782C16.6738 34.971 16.7844 34.7835 16.9527 34.6567C17.0937 34.552 17.2657 34.4964 17.4419 34.4984C17.6181 34.5004 17.7888 34.5599 17.9273 34.6677C18.0419 34.4803 18.0357 34.2382 17.8922 34.0507L17.0234 32.9178L16.2394 31.8947ZM17.7243 35.6633C17.6978 35.6836 17.6697 35.7 17.641 35.714C17.5416 35.7614 17.4289 35.7731 17.3216 35.7472C17.2144 35.7213 17.1195 35.6594 17.0534 35.572C17.0151 35.5225 16.9871 35.466 16.971 35.4058C16.9549 35.3456 16.951 35.2828 16.9596 35.2211C16.9682 35.1593 16.989 35.0999 17.021 35.0462C17.0529 34.9925 17.0953 34.9456 17.1456 34.9082C17.1956 34.8703 17.2527 34.8426 17.3136 34.8266C17.3745 34.8107 17.438 34.8069 17.5004 34.8154C17.5628 34.8239 17.6229 34.8445 17.6771 34.8761C17.7314 34.9077 17.7788 34.9497 17.8166 34.9995C17.8549 35.049 17.8829 35.1055 17.899 35.1657C17.9151 35.2259 17.9189 35.2887 17.9104 35.3505C17.9018 35.4122 17.8809 35.4716 17.849 35.5253C17.8171 35.579 17.7747 35.6259 17.7243 35.6633Z" fill="#0FCB02"/>
<path d="M17.4897 35.4345C17.4576 35.4458 17.4227 35.4468 17.3901 35.4372C17.3575 35.4275 17.3288 35.4078 17.3083 35.381C17.2955 35.3644 17.2862 35.3456 17.2808 35.3255C17.2754 35.3054 17.2741 35.2845 17.277 35.2639C17.2798 35.2433 17.2867 35.2234 17.2973 35.2055C17.3079 35.1875 17.322 35.1718 17.3387 35.1592C17.3725 35.1341 17.415 35.1232 17.4569 35.129C17.4988 35.1347 17.5366 35.1567 17.5622 35.19C17.5749 35.2065 17.5842 35.2254 17.5895 35.2454C17.5948 35.2655 17.5961 35.2864 17.5933 35.307C17.5904 35.3276 17.5835 35.3474 17.5729 35.3653C17.5624 35.3832 17.5483 35.3989 17.5316 35.4114C17.5189 35.4212 17.5047 35.4289 17.4897 35.4345Z" fill="#0FCB02"/>
<path fill-rule="evenodd" clip-rule="evenodd" d="M40.0554 36.0656C40.1139 36.0446 40.166 36.0091 40.2068 35.9627C40.2476 35.9162 40.2757 35.8603 40.2886 35.8001L40.6686 35.7481C40.6807 35.7465 40.6926 35.743 40.7037 35.7379L40.7027 35.7357C40.7259 35.7249 40.745 35.7071 40.7573 35.6849C40.7697 35.6627 40.7745 35.6372 40.7713 35.6121L40.7344 35.328L40.6072 34.4271C40.6071 34.4245 40.6069 34.4219 40.6065 34.4193L40.6064 34.4178L40.5062 33.7086C40.4037 32.9814 39.8061 32.4455 39.0959 32.3809L39.0735 32.2192C39.0626 32.1459 39.0292 32.0777 38.9778 32.0238C38.9263 31.97 38.8593 31.9331 38.786 31.9183L38.6517 31.8855L38.5465 31.9517C38.4803 31.9859 38.4262 32.0394 38.3917 32.105C38.3573 32.1706 38.344 32.2451 38.3538 32.3184L38.377 32.4813C37.7139 32.7367 37.2885 33.4126 37.391 34.1385L37.4911 34.8486C37.4915 34.8526 37.4922 34.8567 37.4931 34.8607L37.6195 35.7568L37.6566 36.0402C37.6587 36.0559 37.6638 36.071 37.6718 36.0847C37.6797 36.0984 37.6904 36.1104 37.703 36.12C37.7157 36.1296 37.7301 36.1366 37.7456 36.1407C37.761 36.1447 37.7771 36.1457 37.7929 36.1436L38.175 36.0903C38.2095 36.1559 38.2636 36.2094 38.3299 36.2435C38.3963 36.2776 38.4716 36.2907 38.5457 36.2809C38.6409 36.2673 38.7267 36.2171 38.7847 36.1413C38.8427 36.0654 38.868 35.97 38.8553 35.8758C38.8416 35.7817 38.7909 35.6968 38.7142 35.6395C38.6374 35.5822 38.541 35.5572 38.4457 35.5699C38.3716 35.5806 38.3027 35.6135 38.2482 35.6643C38.1938 35.7151 38.1564 35.7813 38.1413 35.8538L37.881 35.8894L37.8594 35.7253L37.7293 34.8032C37.6835 34.4596 37.7774 34.1121 37.9905 33.8369C38.2035 33.5618 38.5182 33.3814 38.8656 33.3355C39.0384 33.3106 39.2144 33.3199 39.3836 33.3626C39.5527 33.4054 39.7116 33.4809 39.8511 33.5847C39.9907 33.6885 40.108 33.8187 40.1964 33.9676C40.2848 34.1165 40.3425 34.2812 40.3662 34.4523C40.367 34.4568 40.368 34.4613 40.3693 34.4658L40.4949 35.3612L40.5166 35.5268L40.2559 35.5628C40.1868 35.4319 40.0398 35.3502 39.8844 35.3715C39.7892 35.3851 39.7033 35.4352 39.6454 35.5111C39.5875 35.587 39.5622 35.6824 39.575 35.7766C39.5827 35.8292 39.6021 35.8794 39.6317 35.9238C39.6613 35.9681 39.7005 36.0054 39.7464 36.033C39.7923 36.0606 39.8438 36.0779 39.8972 36.0835C39.9507 36.0891 40.0047 36.083 40.0554 36.0656ZM39.9513 35.8456C39.9675 35.8434 39.9831 35.8381 39.9972 35.83C40.0178 35.818 40.0342 35.8003 40.0445 35.779C40.0547 35.7577 40.0583 35.7338 40.0547 35.7105C40.0527 35.6948 40.0476 35.6797 40.0396 35.666C40.0316 35.6523 40.0209 35.6403 40.0081 35.6308C39.9954 35.6213 39.9808 35.6144 39.9653 35.6105C39.9498 35.6067 39.9337 35.606 39.9179 35.6084C39.902 35.6103 39.8867 35.6154 39.8729 35.6233C39.8591 35.6311 39.847 35.6417 39.8373 35.6543C39.8277 35.6669 39.8207 35.6813 39.8168 35.6966C39.8129 35.7119 39.8121 35.7278 39.8145 35.7434C39.824 35.8104 39.8835 35.8549 39.9513 35.8456ZM38.5127 36.0441C38.5289 36.0418 38.5445 36.0365 38.5586 36.0283C38.579 36.0164 38.5956 35.9985 38.6057 35.9773C38.6158 35.956 38.6193 35.9322 38.6156 35.909C38.6136 35.8934 38.6085 35.8782 38.6005 35.8645C38.5925 35.8508 38.5818 35.8389 38.569 35.8293C38.5563 35.8198 38.5417 35.8129 38.5262 35.8091C38.5107 35.8052 38.4946 35.8045 38.4788 35.8069C38.463 35.8088 38.4477 35.8139 38.4339 35.8218C38.4201 35.8296 38.408 35.8402 38.3984 35.8528C38.3888 35.8653 38.3819 35.8797 38.378 35.895C38.3741 35.9103 38.3734 35.9262 38.3759 35.9418C38.3854 36.0088 38.445 36.0535 38.5127 36.0441ZM39.6072 33.1847C39.8541 33.2774 40.0734 33.4301 40.2448 33.6287C40.1709 33.3083 39.9778 33.0271 39.7037 32.8413C39.4296 32.6556 39.0948 32.5787 38.766 32.6261C38.437 32.6694 38.1366 32.8336 37.9243 33.0859C37.7121 33.3382 37.6035 33.6602 37.6202 33.988C37.7305 33.751 37.8993 33.5453 38.1111 33.3899C38.323 33.2344 38.571 33.1342 38.8323 33.0985C39.0938 33.0624 39.3603 33.092 39.6072 33.1847ZM38.7322 32.388C38.7677 32.3829 38.8031 32.3807 38.8383 32.3785C38.8426 32.3783 38.8468 32.378 38.8511 32.3777L38.8333 32.2521C38.8315 32.2364 38.8265 32.2212 38.8185 32.2074C38.8106 32.1937 38.7999 32.1817 38.7871 32.1722C38.7744 32.1627 38.7598 32.1559 38.7442 32.1521C38.7287 32.1484 38.7125 32.1478 38.6968 32.1504C38.6809 32.1522 38.6655 32.1571 38.6517 32.165C38.6378 32.1728 38.6257 32.1834 38.6161 32.196C38.6064 32.2086 38.5995 32.223 38.5957 32.2383C38.5919 32.2537 38.5912 32.2696 38.5938 32.2852L38.6116 32.4109L38.6178 32.4096C38.6556 32.4014 38.6933 32.3932 38.7322 32.388Z" fill="#0FCB02"/>
<path fill-rule="evenodd" clip-rule="evenodd" d="M50.2394 31.8947C50.2882 31.8598 50.3464 31.5123 50.4583 31.657L51.2784 32.727L52.1465 33.8599C52.2626 34.0125 52.3247 34.1987 52.323 34.3896C52.3214 34.5805 52.2563 34.7656 52.1376 34.9163C52.2266 35.0815 52.2533 35.2727 52.213 35.4556C52.1727 35.6385 52.0681 35.8013 51.9177 35.915C51.7486 36.041 51.536 36.0957 51.3262 36.0672C51.1165 36.0387 50.9267 35.9292 50.7984 35.7627C50.6711 35.5956 50.6159 35.3855 50.6448 35.1782C50.6738 34.971 50.7844 34.7835 50.9527 34.6567C51.0937 34.552 51.2657 34.4964 51.4419 34.4984C51.6181 34.5004 51.7888 34.5599 51.9273 34.6677C52.0419 34.4803 52.0357 34.2382 51.8922 34.0507L51.0234 32.9178L50.2394 31.8947ZM51.7243 35.6633C51.6978 35.6836 51.6697 35.7 51.641 35.714C51.5416 35.7614 51.4289 35.7731 51.3216 35.7472C51.2144 35.7213 51.1195 35.6594 51.0534 35.572C51.0151 35.5225 50.9871 35.466 50.971 35.4058C50.9549 35.3456 50.951 35.2828 50.9596 35.2211C50.9682 35.1593 50.989 35.0999 51.021 35.0462C51.0529 34.9925 51.0953 34.9456 51.1456 34.9082C51.1956 34.8703 51.2527 34.8426 51.3136 34.8266C51.3745 34.8107 51.438 34.8069 51.5004 34.8154C51.5628 34.8239 51.6229 34.8445 51.6771 34.8761C51.7314 34.9077 51.7788 34.9497 51.8166 34.9995C51.8549 35.049 51.8829 35.1055 51.899 35.1657C51.9151 35.2259 51.9189 35.2887 51.9104 35.3505C51.9018 35.4122 51.8809 35.4716 51.849 35.5253C51.8171 35.579 51.7747 35.6259 51.7243 35.6633Z" fill="#0FCB02"/>
<path d="M51.4897 35.4345C51.4576 35.4458 51.4227 35.4468 51.3901 35.4372C51.3575 35.4275 51.3288 35.4078 51.3083 35.381C51.2955 35.3644 51.2862 35.3456 51.2808 35.3255C51.2754 35.3054 51.2741 35.2845 51.277 35.2639C51.2798 35.2433 51.2867 35.2234 51.2973 35.2055C51.3079 35.1875 51.322 35.1718 51.3387 35.1592C51.3725 35.1341 51.415 35.1232 51.4569 35.129C51.4988 35.1347 51.5366 35.1567 51.5622 35.19C51.5749 35.2065 51.5842 35.2254 51.5895 35.2454C51.5948 35.2655 51.5961 35.2864 51.5933 35.307C51.5904 35.3276 51.5835 35.3474 51.5729 35.3653C51.5624 35.3832 51.5483 35.3989 51.5316 35.4114C51.5189 35.4212 51.5047 35.4289 51.4897 35.4345Z" fill="#0FCB02"/>
<path d="M12.262 26.4601C12.1394 26.3388 11.935 26.3388 11.8124 26.4601C11.3628 26.9047 10.6679 26.9047 10.2183 26.4601C10.0957 26.3388 9.89134 26.3388 9.76872 26.4601C9.6461 26.5813 9.6461 26.7835 9.76872 26.9047C10.0957 27.2281 10.5453 27.3898 10.9949 27.3898C11.4445 27.3898 11.8941 27.2281 12.2211 26.9047C12.3846 26.7835 12.3846 26.5813 12.262 26.4601Z" fill="#576999"/>
<path d="M8.62436 22.4185C8.05214 22.4185 7.60254 22.8631 7.60254 23.429C7.60254 23.9949 8.05214 24.4395 8.62436 24.4395C9.19659 24.4395 9.64619 23.9949 9.64619 23.429C9.64619 22.8631 9.19659 22.4185 8.62436 22.4185ZM8.62436 23.8736C8.37913 23.8736 8.21563 23.6715 8.21563 23.4694C8.21563 23.2673 8.42 23.0652 8.62436 23.0652C8.8696 23.0652 9.03309 23.2673 9.03309 23.4694C9.03309 23.6715 8.8696 23.8736 8.62436 23.8736Z" fill="#576999"/>
<path d="M13.4471 22.4185C12.8749 22.4185 12.4253 22.8631 12.4253 23.429C12.4253 23.9949 12.8749 24.4395 13.4471 24.4395C14.0193 24.4395 14.4689 23.9949 14.4689 23.429C14.4689 22.8631 14.0193 22.4185 13.4471 22.4185ZM13.4471 23.8736C13.2019 23.8736 13.0384 23.6715 13.0384 23.4694C13.0384 23.2673 13.2428 23.0652 13.4471 23.0652C13.6515 23.0652 13.8558 23.2673 13.8558 23.4694C13.8558 23.6715 13.6924 23.8736 13.4471 23.8736Z" fill="#576999"/>
<path d="M7.88847 22.0947C7.88847 22.0947 8.62419 21.5692 9.40077 22.0947C9.52339 22.1755 9.72776 22.1755 9.8095 22.0138C9.89125 21.8926 9.89125 21.6905 9.72776 21.6096C8.82855 20.9629 7.88847 21.3267 7.47974 21.6096C7.35713 21.6905 7.31625 21.8926 7.398 22.0138C7.56149 22.1755 7.76586 22.2159 7.88847 22.0947Z" fill="#576999"/>
<path d="M12.7115 22.0947C12.7115 22.0947 13.4472 21.5692 14.2238 22.0947C14.3464 22.1755 14.5508 22.1755 14.6325 22.0138C14.7142 21.8926 14.7142 21.6905 14.5508 21.6096C13.6516 20.9629 12.7115 21.3267 12.3027 21.6096C12.1801 21.6905 12.1392 21.8926 12.221 22.0138C12.3845 22.1755 12.548 22.2159 12.7115 22.0947Z" fill="#576999"/>
<path d="M11.036 25.4492C11.1995 25.4492 11.363 25.3279 11.363 25.1258V24.277C11.363 24.1153 11.2403 23.9536 11.036 23.9536C10.8316 23.9536 10.709 24.0749 10.709 24.277V25.1258C10.7499 25.2875 10.8725 25.4492 11.036 25.4492Z" fill="#576999"/>
<path d="M21.7853 39.3948C21.9488 39.3948 22.1123 39.2735 22.1123 39.0714C22.1123 38.8693 21.9897 38.748 21.7853 38.748H21.1313V35.9994C21.1313 32.9275 18.5972 30.4618 15.5317 30.4618H14.8778C13.6516 29.4917 13.6925 29.5321 13.6107 29.4917V28.845C13.9786 28.6024 14.3464 28.2791 14.6734 27.9153C17.4119 27.1069 18.8424 25.1262 18.8424 21.9734C18.8424 17.0421 15.3682 13 11.1175 13C6.86666 13 3.35159 17.0421 3.35159 21.9734C3.35159 25.0858 4.74127 27.1069 7.52063 27.9153C7.84761 28.2791 8.21547 28.6024 8.58333 28.845V29.4917C8.50158 29.5321 8.54246 29.4917 7.31627 30.4618H6.6623C3.55595 30.4618 1.0627 32.9679 1.0627 35.9994V38.748H0.326984C0.163492 38.748 0 38.8693 0 39.0714C0 39.2735 0.122619 39.3948 0.326984 39.3948H21.7853ZM9.48253 33.2104C9.52341 33.2104 10.8313 32.7658 10.7496 32.7658V35.1506L9.72777 38.748H7.80674L9.48253 33.2104ZM12.5889 33.2104L14.2647 38.7885H12.3436L11.3218 35.191V32.8062C11.4036 32.8062 12.6706 33.2508 12.5889 33.2104ZM11.0357 36.3632L11.7305 38.7885H10.3409L11.0357 36.3632ZM20.5182 36.0399V38.7885H14.9186L13.3246 33.4529H13.3655C13.4881 33.4529 13.5698 33.4125 13.6107 33.2912L14.9186 31.1085H15.4909C18.2702 31.1085 20.5182 33.3317 20.5182 36.0399ZM14.3464 30.9064L13.202 32.8062C13.1611 32.8062 11.4444 32.1999 11.5671 32.2403C11.6079 32.1999 13.529 30.2193 13.4881 30.2597L14.3464 30.9064ZM3.92381 22.0138C3.92381 17.4059 7.1119 13.6467 11.0766 13.6467C15.0004 13.6467 18.1885 17.4059 18.1885 22.0138C18.1885 24.5199 17.2484 26.1772 15.3274 27.026C15.6952 26.4601 16.0222 25.773 16.2675 25.0454C16.8805 24.8433 17.4119 24.0753 17.5754 23.1456C17.7389 22.2564 17.4936 21.0437 16.6353 20.7608C16.5944 20.5991 16.5127 20.5183 16.4309 20.5183C14.8369 20.0332 13.8968 18.4972 13.3655 17.2038L13.4881 17.0825C13.6107 16.9612 13.5698 16.7591 13.4472 16.6379C13.3246 16.5166 13.1202 16.557 12.9976 16.6783C10.5861 19.3865 7.76587 20.2353 5.51785 19.8715C5.35436 19.8311 5.19087 19.9524 5.15 20.1141C5.10912 20.2757 5.23174 20.4374 5.39523 20.4778H5.47698C5.43611 20.5587 5.43611 20.6395 5.39523 20.7608C4.5369 21.0437 4.29166 22.2564 4.45516 23.1456C4.61865 24.0753 5.15 24.8433 5.76309 25.0454C6.00833 25.773 6.33531 26.4197 6.70317 27.026C4.86389 26.1772 3.92381 24.5199 3.92381 22.0138ZM6.33531 24.722C6.29444 24.6008 6.2127 24.5199 6.09008 24.5199C5.72222 24.4391 5.23174 23.9136 5.10912 23.0648C5.02738 22.6201 5.06825 22.1755 5.19087 21.8117C5.27262 21.6501 5.39524 21.3671 5.68135 21.3267C5.84484 21.3267 5.96746 21.2054 5.96746 21.0842C6.00833 20.9225 6.00833 20.7204 6.0492 20.5587C8.6242 20.7204 10.9948 19.5077 12.8341 17.6888C13.4063 18.9823 14.4282 20.4778 16.0222 21.0437V21.0842C16.0222 21.2458 16.1448 21.3671 16.3083 21.3671C16.5536 21.4075 16.7171 21.65 16.8397 21.8926C16.9623 22.2159 17.0032 22.701 16.9214 23.1456C16.7579 23.9945 16.3083 24.5199 15.9405 24.6008C15.8178 24.6008 15.7361 24.6816 15.6952 24.8029C15.3682 25.8538 14.8369 26.7835 14.2238 27.5111C13.3246 28.562 12.1802 29.1683 11.0357 29.1683C9.0738 29.0875 7.19365 27.3494 6.33531 24.722ZM11.0357 29.6938C11.6897 29.6938 12.3436 29.5321 12.9567 29.2087V29.8959L11.0357 31.8765C10.9948 31.8361 9.0738 29.8555 9.11468 29.8959V29.2087C9.72777 29.5321 10.3817 29.6938 11.0357 29.6938ZM8.58333 30.2193C8.95119 30.583 10.5861 32.3211 10.5044 32.1999C10.4635 32.1999 8.74682 32.8062 8.86944 32.7658L7.76587 30.866L8.58333 30.2193ZM1.59405 36.0399C1.59405 33.3317 3.84206 31.1085 6.58055 31.1085H7.15277L8.46071 33.2912C8.50158 33.3721 8.6242 33.4529 8.70595 33.4529H8.74682L7.15277 38.7885H1.59405V36.0399Z" fill="#576999"/>
<path d="M46.262 26.4601C46.1394 26.3388 45.935 26.3388 45.8124 26.4601C45.3628 26.9047 44.6679 26.9047 44.2183 26.4601C44.0957 26.3388 43.8913 26.3388 43.7687 26.4601C43.6461 26.5813 43.6461 26.7835 43.7687 26.9047C44.0957 27.2281 44.5453 27.3898 44.9949 27.3898C45.4445 27.3898 45.8941 27.2281 46.2211 26.9047C46.3846 26.7835 46.3846 26.5813 46.262 26.4601Z" fill="#576999"/>
<path d="M42.6244 22.4185C42.0521 22.4185 41.6025 22.8631 41.6025 23.429C41.6025 23.9949 42.0521 24.4395 42.6244 24.4395C43.1966 24.4395 43.6462 23.9949 43.6462 23.429C43.6462 22.8631 43.1966 22.4185 42.6244 22.4185ZM42.6244 23.8736C42.3791 23.8736 42.2156 23.6715 42.2156 23.4694C42.2156 23.2673 42.42 23.0652 42.6244 23.0652C42.8696 23.0652 43.0331 23.2673 43.0331 23.4694C43.0331 23.6715 42.8696 23.8736 42.6244 23.8736Z" fill="#576999"/>
<path d="M47.4471 22.4185C46.8749 22.4185 46.4253 22.8631 46.4253 23.429C46.4253 23.9949 46.8749 24.4395 47.4471 24.4395C48.0193 24.4395 48.4689 23.9949 48.4689 23.429C48.4689 22.8631 48.0193 22.4185 47.4471 22.4185ZM47.4471 23.8736C47.2019 23.8736 47.0384 23.6715 47.0384 23.4694C47.0384 23.2673 47.2428 23.0652 47.4471 23.0652C47.6515 23.0652 47.8558 23.2673 47.8558 23.4694C47.8558 23.6715 47.6924 23.8736 47.4471 23.8736Z" fill="#576999"/>
<path d="M41.8885 22.0947C41.8885 22.0947 42.6242 21.5692 43.4008 22.0947C43.5234 22.1755 43.7278 22.1755 43.8095 22.0138C43.8913 21.8926 43.8912 21.6905 43.7278 21.6096C42.8286 20.9629 41.8885 21.3267 41.4797 21.6096C41.3571 21.6905 41.3163 21.8926 41.398 22.0138C41.5615 22.1755 41.7659 22.2159 41.8885 22.0947Z" fill="#576999"/>
<path d="M46.7115 22.0947C46.7115 22.0947 47.4472 21.5692 48.2238 22.0947C48.3464 22.1755 48.5508 22.1755 48.6325 22.0138C48.7142 21.8926 48.7142 21.6905 48.5508 21.6096C47.6516 20.9629 46.7115 21.3267 46.3027 21.6096C46.1801 21.6905 46.1392 21.8926 46.221 22.0138C46.3845 22.1755 46.548 22.2159 46.7115 22.0947Z" fill="#576999"/>
<path d="M45.036 25.4492C45.1995 25.4492 45.363 25.3279 45.363 25.1258V24.277C45.363 24.1153 45.2403 23.9536 45.036 23.9536C44.8316 23.9536 44.709 24.0749 44.709 24.277V25.1258C44.7499 25.2875 44.8725 25.4492 45.036 25.4492Z" fill="#576999"/>
<path d="M55.7853 39.3948C55.9488 39.3948 56.1123 39.2735 56.1123 39.0714C56.1123 38.8693 55.9897 38.748 55.7853 38.748H55.1313V35.9994C55.1313 32.9275 52.5972 30.4618 49.5317 30.4618H48.8778C47.6516 29.4917 47.6925 29.5321 47.6107 29.4917V28.845C47.9786 28.6024 48.3464 28.2791 48.6734 27.9153C51.4119 27.1069 52.8424 25.1262 52.8424 21.9734C52.8424 17.0421 49.3682 13 45.1175 13C40.8667 13 37.3516 17.0421 37.3516 21.9734C37.3516 25.0858 38.7413 27.1069 41.5206 27.9153C41.8476 28.2791 42.2155 28.6024 42.5833 28.845V29.4917C42.5016 29.5321 42.5425 29.4917 41.3163 30.4618H40.6623C37.5559 30.4618 35.0627 32.9679 35.0627 35.9994V38.748H34.327C34.1635 38.748 34 38.8693 34 39.0714C34 39.2735 34.1226 39.3948 34.327 39.3948H55.7853ZM43.4825 33.2104C43.5234 33.2104 44.8313 32.7658 44.7496 32.7658V35.1506L43.7278 38.748H41.8067L43.4825 33.2104ZM46.5889 33.2104L48.2647 38.7885H46.3436L45.3218 35.191V32.8062C45.4036 32.8062 46.6706 33.2508 46.5889 33.2104ZM45.0357 36.3632L45.7305 38.7885H44.3409L45.0357 36.3632ZM54.5182 36.0399V38.7885H48.9186L47.3246 33.4529H47.3655C47.4881 33.4529 47.5698 33.4125 47.6107 33.2912L48.9186 31.1085H49.4909C52.2702 31.1085 54.5182 33.3317 54.5182 36.0399ZM48.3464 30.9064L47.202 32.8062C47.1611 32.8062 45.4444 32.1999 45.5671 32.2403C45.6079 32.1999 47.529 30.2193 47.4881 30.2597L48.3464 30.9064ZM37.9238 22.0138C37.9238 17.4059 41.1119 13.6467 45.0766 13.6467C49.0004 13.6467 52.1885 17.4059 52.1885 22.0138C52.1885 24.5199 51.2484 26.1772 49.3274 27.026C49.6952 26.4601 50.0222 25.773 50.2675 25.0454C50.8805 24.8433 51.4119 24.0753 51.5754 23.1456C51.7389 22.2564 51.4936 21.0437 50.6353 20.7608C50.5944 20.5991 50.5127 20.5183 50.4309 20.5183C48.8369 20.0332 47.8968 18.4972 47.3655 17.2038L47.4881 17.0825C47.6107 16.9612 47.5698 16.7591 47.4472 16.6379C47.3246 16.5166 47.1202 16.557 46.9976 16.6783C44.5861 19.3865 41.7659 20.2353 39.5179 19.8715C39.3544 19.8311 39.1909 19.9524 39.15 20.1141C39.1091 20.2757 39.2317 20.4374 39.3952 20.4778H39.477C39.4361 20.5587 39.4361 20.6395 39.3952 20.7608C38.5369 21.0437 38.2917 22.2564 38.4552 23.1456C38.6186 24.0753 39.15 24.8433 39.7631 25.0454C40.0083 25.773 40.3353 26.4197 40.7032 27.026C38.8639 26.1772 37.9238 24.5199 37.9238 22.0138ZM40.3353 24.722C40.2944 24.6008 40.2127 24.5199 40.0901 24.5199C39.7222 24.4391 39.2317 23.9136 39.1091 23.0648C39.0274 22.6201 39.0683 22.1755 39.1909 21.8117C39.2726 21.6501 39.3952 21.3671 39.6813 21.3267C39.8448 21.3267 39.9675 21.2054 39.9675 21.0842C40.0083 20.9225 40.0083 20.7204 40.0492 20.5587C42.6242 20.7204 44.9948 19.5077 46.8341 17.6888C47.4063 18.9823 48.4282 20.4778 50.0222 21.0437V21.0842C50.0222 21.2458 50.1448 21.3671 50.3083 21.3671C50.5536 21.4075 50.7171 21.65 50.8397 21.8926C50.9623 22.2159 51.0032 22.701 50.9214 23.1456C50.7579 23.9945 50.3083 24.5199 49.9405 24.6008C49.8178 24.6008 49.7361 24.6816 49.6952 24.8029C49.3682 25.8538 48.8369 26.7835 48.2238 27.5111C47.3246 28.562 46.1802 29.1683 45.0357 29.1683C43.0738 29.0875 41.1936 27.3494 40.3353 24.722ZM45.0357 29.6938C45.6897 29.6938 46.3436 29.5321 46.9567 29.2087V29.8959L45.0357 31.8765C44.9948 31.8361 43.0738 29.8555 43.1147 29.8959V29.2087C43.7278 29.5321 44.3817 29.6938 45.0357 29.6938ZM42.5833 30.2193C42.9512 30.583 44.5861 32.3211 44.5044 32.1999C44.4635 32.1999 42.7468 32.8062 42.8694 32.7658L41.7659 30.866L42.5833 30.2193ZM35.594 36.0399C35.594 33.3317 37.8421 31.1085 40.5806 31.1085H41.1528L42.4607 33.2912C42.5016 33.3721 42.6242 33.4529 42.7059 33.4529H42.7468L41.1528 38.7885H35.594V36.0399Z" fill="#576999"/>
</svg>
