<svg width="70" height="70" viewBox="0 0 70 70" fill="none" xmlns="http://www.w3.org/2000/svg">
<path fill-rule="evenodd" clip-rule="evenodd" d="M9 20.7139V49.2831C9 52.4388 11.5868 54.997 14.7778 54.997H55.2222C58.4132 54.997 61 52.4388 61 49.2831V20.7139C61 17.5582 58.4132 15 55.2222 15H14.7778C11.5868 15 9 17.5582 9 20.7139Z" stroke="#576999" stroke-width="0.75" stroke-linecap="round" stroke-linejoin="round"/>
<path d="M43.2219 29.2847H51.8886" stroke="#576999" stroke-width="0.75" stroke-linecap="round"/>
<path d="M43.2219 35.9141H51.8886" stroke="#576999" stroke-width="0.75" stroke-linecap="round"/>
<path d="M43.2219 43.0933H51.8886" stroke="#576999" stroke-width="0.75" stroke-linecap="round"/>
<path fill-rule="evenodd" clip-rule="evenodd" d="M20.7436 45.3577C20.8087 45.3343 20.8667 45.2949 20.9121 45.2431C20.9576 45.1914 20.9889 45.1291 21.0032 45.062L21.4265 45.0042C21.44 45.0024 21.4531 44.9985 21.4655 44.9928L21.4644 44.9903C21.4903 44.9783 21.5116 44.9585 21.5253 44.9338C21.539 44.9091 21.5444 44.8807 21.5408 44.8527L21.4997 44.5363L21.3581 43.5329C21.358 43.5301 21.3577 43.5272 21.3573 43.5243L21.3572 43.5226L21.2456 42.7328C21.1314 41.923 20.4659 41.3262 19.675 41.2542L19.65 41.0741C19.638 40.9925 19.6007 40.9165 19.5434 40.8566C19.4861 40.7966 19.4115 40.7556 19.3298 40.7391L19.1803 40.7025L19.0632 40.7762C18.9894 40.8143 18.9292 40.8739 18.8908 40.947C18.8524 41.02 18.8376 41.103 18.8485 41.1846L18.8744 41.366C18.1359 41.6505 17.6622 42.4032 17.7763 43.2117L17.8878 44.0024C17.8883 44.0069 17.8891 44.0114 17.89 44.0159L18.0308 45.0138L18.0722 45.3295C18.0744 45.3469 18.0801 45.3637 18.089 45.379C18.0979 45.3942 18.1097 45.4076 18.1238 45.4183C18.1379 45.429 18.154 45.4368 18.1712 45.4413C18.1884 45.4459 18.2063 45.447 18.2239 45.4446L18.6494 45.3853C18.6879 45.4583 18.7481 45.5178 18.822 45.5558C18.8959 45.5938 18.9798 45.6084 19.0623 45.5976C19.1683 45.5824 19.2639 45.5265 19.3284 45.442C19.393 45.3575 19.4212 45.2513 19.407 45.1463C19.3918 45.0416 19.3353 44.947 19.2499 44.8832C19.1644 44.8194 19.057 44.7915 18.9509 44.8056C18.8684 44.8176 18.7916 44.8543 18.731 44.9109C18.6703 44.9674 18.6287 45.0411 18.6119 45.1218L18.322 45.1615L18.298 44.9787L18.1531 43.9518C18.1021 43.5692 18.2067 43.1822 18.4439 42.8758C18.6812 42.5693 19.0317 42.3685 19.4185 42.3173C19.6109 42.2896 19.807 42.2999 19.9954 42.3476C20.1837 42.3952 20.3607 42.4792 20.5161 42.5949C20.6715 42.7105 20.8021 42.8554 20.9006 43.0212C20.999 43.1871 21.0633 43.3705 21.0897 43.561C21.0905 43.5661 21.0917 43.5711 21.0932 43.5761L21.233 44.5733L21.2571 44.7577L20.9669 44.7978C20.8898 44.652 20.7262 44.561 20.5531 44.5848C20.4471 44.5999 20.3515 44.6557 20.2869 44.7402C20.2224 44.8247 20.1943 44.931 20.2086 45.0359C20.2171 45.0944 20.2387 45.1504 20.2717 45.1998C20.3047 45.2492 20.3483 45.2907 20.3994 45.3215C20.4505 45.3522 20.5079 45.3714 20.5674 45.3777C20.6269 45.384 20.6871 45.3771 20.7436 45.3577ZM20.6276 45.1127C20.6456 45.1102 20.663 45.1044 20.6787 45.0953C20.7016 45.082 20.72 45.0623 20.7314 45.0385C20.7428 45.0148 20.7468 44.9883 20.7427 44.9623C20.7405 44.9448 20.7348 44.928 20.7259 44.9127C20.717 44.8975 20.7051 44.8842 20.6909 44.8735C20.6767 44.8629 20.6605 44.8553 20.6432 44.851C20.626 44.8467 20.608 44.8459 20.5904 44.8486C20.5728 44.8507 20.5557 44.8563 20.5403 44.8651C20.5249 44.8739 20.5114 44.8857 20.5007 44.8997C20.49 44.9137 20.4822 44.9297 20.4778 44.9468C20.4735 44.9638 20.4726 44.9816 20.4753 44.9989C20.4859 45.0736 20.5521 45.1231 20.6276 45.1127ZM19.0255 45.3338C19.0436 45.3313 19.0609 45.3253 19.0766 45.3162C19.0993 45.3029 19.1178 45.283 19.1291 45.2594C19.1403 45.2357 19.1442 45.2092 19.1401 45.1834C19.1379 45.1659 19.1322 45.1491 19.1233 45.1338C19.1144 45.1186 19.1025 45.1052 19.0882 45.0946C19.074 45.084 19.0578 45.0763 19.0406 45.072C19.0233 45.0678 19.0053 45.0669 18.9877 45.0696C18.9701 45.0718 18.9531 45.0774 18.9378 45.0862C18.9224 45.095 18.9089 45.1067 18.8983 45.1207C18.8876 45.1347 18.8798 45.1507 18.8755 45.1677C18.8712 45.1848 18.8704 45.2025 18.8731 45.2198C18.8837 45.2944 18.9501 45.3443 19.0255 45.3338ZM20.2444 42.1494C20.5194 42.2526 20.7636 42.4227 20.9545 42.6439C20.8722 42.2871 20.6572 41.9739 20.3519 41.767C20.0467 41.5601 19.6738 41.4745 19.3076 41.5273C18.9412 41.5756 18.6066 41.7584 18.3702 42.0393C18.1339 42.3203 18.013 42.679 18.0316 43.044C18.1544 42.7801 18.3424 42.551 18.5783 42.3779C18.8142 42.2048 19.0904 42.0932 19.3814 42.0534C19.6726 42.0132 19.9695 42.0462 20.2444 42.1494ZM19.27 41.2621C19.3095 41.2564 19.3489 41.254 19.3881 41.2516C19.3929 41.2513 19.3976 41.251 19.4024 41.2507L19.3826 41.1108C19.3806 41.0933 19.375 41.0764 19.3661 41.0611C19.3573 41.0458 19.3454 41.0324 19.3311 41.0218C19.3169 41.0113 19.3006 41.0036 19.2833 40.9994C19.266 40.9953 19.2481 40.9946 19.2305 40.9975C19.2128 40.9995 19.1957 41.005 19.1803 41.0138C19.1648 41.0225 19.1513 41.0342 19.1406 41.0483C19.1299 41.0623 19.1222 41.0784 19.1179 41.0955C19.1137 41.1126 19.113 41.1303 19.1159 41.1477L19.1357 41.2877L19.1425 41.2862C19.1847 41.277 19.2266 41.2679 19.27 41.2621Z" fill="#0FCB02"/>
<path fill-rule="evenodd" clip-rule="evenodd" d="M32.0852 40.7127C32.1396 40.6738 32.2043 40.2868 32.329 40.448L33.2423 41.6396L34.2091 42.9013C34.3384 43.0712 34.4075 43.2785 34.4057 43.4911C34.4039 43.7038 34.3313 43.9099 34.1992 44.0777C34.2982 44.2617 34.328 44.4746 34.2831 44.6783C34.2383 44.882 34.1217 45.0633 33.9542 45.1899C33.7659 45.3302 33.5291 45.3912 33.2956 45.3594C33.062 45.3276 32.8507 45.2057 32.7077 45.0203C32.566 44.8342 32.5045 44.6002 32.5367 44.3694C32.5689 44.1386 32.6922 43.9298 32.8796 43.7886C33.0366 43.672 33.2281 43.6101 33.4244 43.6123C33.6206 43.6145 33.8107 43.6808 33.9649 43.8009C34.0926 43.5922 34.0856 43.3226 33.9259 43.1137L32.9583 41.852L32.0852 40.7127ZM33.7389 44.9097C33.7094 44.9322 33.6781 44.9505 33.6461 44.966C33.5354 45.0189 33.4099 45.0319 33.2904 45.003C33.171 44.9742 33.0654 44.9052 32.9917 44.8079C32.949 44.7528 32.9179 44.6899 32.8999 44.6228C32.882 44.5558 32.8777 44.4858 32.8873 44.4171C32.8968 44.3484 32.92 44.2822 32.9556 44.2224C32.9912 44.1626 33.0383 44.1103 33.0944 44.0686C33.1501 44.0264 33.2137 43.9956 33.2815 43.9778C33.3493 43.9601 33.42 43.9558 33.4895 43.9653C33.559 43.9748 33.6259 43.9978 33.6864 44.033C33.7468 44.0682 33.7996 44.1149 33.8417 44.1704C33.8843 44.2255 33.9155 44.2884 33.9334 44.3555C33.9513 44.4225 33.9556 44.4925 33.9461 44.5612C33.9365 44.6299 33.9133 44.6961 33.8777 44.7559C33.8422 44.8157 33.795 44.868 33.7389 44.9097Z" fill="#0FCB02"/>
<path d="M33.4776 44.6548C33.4419 44.6674 33.403 44.6685 33.3667 44.6578C33.3303 44.647 33.2984 44.6251 33.2756 44.5952C33.2614 44.5768 33.251 44.5558 33.245 44.5334C33.239 44.511 33.2375 44.4877 33.2407 44.4648C33.2438 44.4418 33.2515 44.4197 33.2633 44.3997C33.2751 44.3797 33.2908 44.3622 33.3095 44.3483C33.3471 44.3202 33.3944 44.3081 33.4411 44.3145C33.4877 44.3209 33.5299 44.3454 33.5583 44.3825C33.5725 44.4009 33.5828 44.4219 33.5887 44.4443C33.5947 44.4666 33.5961 44.4899 33.593 44.5128C33.5898 44.5357 33.5821 44.5578 33.5703 44.5777C33.5585 44.5977 33.5429 44.6151 33.5243 44.6291C33.5101 44.6399 33.4944 44.6486 33.4776 44.6548Z" fill="#0FCB02"/>
<path d="M27.6557 34.6601C27.5191 34.5251 27.2915 34.5251 27.155 34.6601C26.6543 35.1553 25.8804 35.1553 25.3797 34.6601C25.2432 34.5251 25.0156 34.5251 24.879 34.6601C24.7425 34.7952 24.7425 35.0202 24.879 35.1553C25.2432 35.5154 25.7439 35.6955 26.2446 35.6955C26.7453 35.6955 27.246 35.5154 27.6101 35.1553C27.7922 35.0202 27.7922 34.7952 27.6557 34.6601Z" fill="#576999"/>
<path d="M23.6045 30.1592C22.9673 30.1592 22.4666 30.6543 22.4666 31.2846C22.4666 31.9148 22.9673 32.4099 23.6045 32.4099C24.2418 32.4099 24.7425 31.9148 24.7425 31.2846C24.7425 30.6543 24.2418 30.1592 23.6045 30.1592ZM23.6045 31.7797C23.3314 31.7797 23.1493 31.5546 23.1493 31.3296C23.1493 31.1045 23.3769 30.8794 23.6045 30.8794C23.8776 30.8794 24.0597 31.1045 24.0597 31.3296C24.0597 31.5546 23.8776 31.7797 23.6045 31.7797Z" fill="#576999"/>
<path d="M28.9754 30.1592C28.3381 30.1592 27.8374 30.6543 27.8374 31.2846C27.8374 31.9148 28.3381 32.4099 28.9754 32.4099C29.6126 32.4099 30.1133 31.9148 30.1133 31.2846C30.1133 30.6543 29.6126 30.1592 28.9754 30.1592ZM28.9754 31.7797C28.7023 31.7797 28.5202 31.5546 28.5202 31.3296C28.5202 31.1045 28.7478 30.8794 28.9754 30.8794C29.203 30.8794 29.4306 31.1045 29.4306 31.3296C29.4306 31.5546 29.2485 31.7797 28.9754 31.7797Z" fill="#576999"/>
<path d="M22.785 29.799C22.785 29.799 23.6043 29.2138 24.4692 29.799C24.6057 29.889 24.8333 29.889 24.9244 29.709C25.0154 29.5739 25.0154 29.3489 24.8333 29.2588C23.8319 28.5386 22.785 28.9437 22.3298 29.2588C22.1933 29.3489 22.1477 29.5739 22.2388 29.709C22.4208 29.889 22.6484 29.9341 22.785 29.799Z" fill="#576999"/>
<path d="M28.1563 29.799C28.1563 29.799 28.9757 29.2138 29.8405 29.799C29.9771 29.889 30.2047 29.889 30.2957 29.709C30.3867 29.5739 30.3867 29.3489 30.2047 29.2588C29.2033 28.5386 28.1563 28.9437 27.7011 29.2588C27.5646 29.3489 27.5191 29.5739 27.6101 29.709C27.7922 29.889 27.9743 29.9341 28.1563 29.799Z" fill="#576999"/>
<path d="M26.2902 33.5349C26.4722 33.5349 26.6543 33.3999 26.6543 33.1748V32.2295C26.6543 32.0494 26.5178 31.8694 26.2902 31.8694C26.0626 31.8694 25.926 32.0044 25.926 32.2295V33.1748C25.9715 33.3549 26.1081 33.5349 26.2902 33.5349Z" fill="#576999"/>
<path d="M38.2614 49.0652C38.4435 49.0652 38.6255 48.9301 38.6255 48.7051C38.6255 48.48 38.489 48.3449 38.2614 48.3449H37.5331V45.2839C37.5331 41.8628 34.7109 39.1169 31.2971 39.1169H30.5688C29.2032 38.0365 29.2487 38.0815 29.1577 38.0365V37.3163C29.5674 37.0462 29.977 36.6861 30.3412 36.2809C33.3909 35.3806 34.9841 33.1749 34.9841 29.6637C34.9841 24.1719 31.115 19.6704 26.3811 19.6704C21.6471 19.6704 17.7325 24.1719 17.7325 29.6637C17.7325 33.1299 19.2802 35.3806 22.3754 36.2809C22.7396 36.6861 23.1492 37.0462 23.5589 37.3163V38.0365C23.4679 38.0815 23.5134 38.0365 22.1478 39.1169H21.4195C17.9601 39.1169 15.1835 41.9078 15.1835 45.2839V48.3449H14.3641C14.1821 48.3449 14 48.48 14 48.7051C14 48.9301 14.1366 49.0652 14.3641 49.0652H38.2614ZM24.5603 42.1779C24.6058 42.1779 26.0624 41.6827 25.9714 41.6827V44.3386L24.8334 48.3449H22.694L24.5603 42.1779ZM28.0197 42.1779L29.886 48.39H27.7466L26.6086 44.3836V41.7277C26.6997 41.7277 28.1108 42.2229 28.0197 42.1779ZM26.29 45.6891L27.0638 48.39H25.5162L26.29 45.6891ZM36.8503 45.3289V48.39H30.6143L28.8391 42.448H28.8846C29.0211 42.448 29.1122 42.403 29.1577 42.2679L30.6143 39.8371H31.2515C34.3468 39.8371 36.8503 42.3129 36.8503 45.3289ZM29.977 39.612L28.7025 41.7277C28.657 41.7277 26.7452 41.0525 26.8818 41.0975C26.9273 41.0525 29.0666 38.8468 29.0211 38.8918L29.977 39.612ZM18.3698 29.7087C18.3698 24.577 21.9202 20.3906 26.3355 20.3906C30.7053 20.3906 34.2558 24.577 34.2558 29.7087C34.2558 32.4997 33.2088 34.3453 31.0695 35.2906C31.4791 34.6604 31.8433 33.8951 32.1164 33.0849C32.7992 32.8598 33.3909 32.0045 33.573 30.9692C33.7551 29.9788 33.4819 28.6284 32.5261 28.3133C32.4805 28.1332 32.3895 28.0432 32.2985 28.0432C30.5232 27.503 29.4763 25.7924 28.8846 24.352L29.0211 24.2169C29.1577 24.0819 29.1122 23.8568 28.9756 23.7218C28.8391 23.5867 28.6115 23.6317 28.4749 23.7668C25.7893 26.7828 22.6485 27.7281 20.145 27.323C19.9629 27.2779 19.7809 27.413 19.7353 27.593C19.6898 27.7731 19.8264 27.9532 20.0085 27.9982H20.0995C20.054 28.0882 20.054 28.1782 20.0085 28.3133C19.0526 28.6284 18.7795 29.9788 18.9615 30.9692C19.1436 32.0045 19.7353 32.8598 20.4181 33.0849C20.6912 33.8951 21.0554 34.6154 21.465 35.2906C19.4167 34.3453 18.3698 32.4997 18.3698 29.7087ZM21.0554 32.7248C21.0099 32.5897 20.9188 32.4997 20.7823 32.4997C20.3726 32.4096 19.8264 31.8245 19.6898 30.8791C19.5988 30.384 19.6443 29.8888 19.7809 29.4837C19.8719 29.3036 20.0085 28.9885 20.3271 28.9435C20.5092 28.9435 20.6457 28.8084 20.6457 28.6734C20.6912 28.4933 20.6912 28.2683 20.7367 28.0882C23.6044 28.2683 26.2445 26.9178 28.2928 24.8921C28.9301 26.3326 30.0681 27.9982 31.8433 28.6284V28.6734C31.8433 28.8535 31.9798 28.9885 32.1619 28.9885C32.435 29.0335 32.6171 29.3036 32.7537 29.5737C32.8902 29.9338 32.9357 30.474 32.8447 30.9692C32.6626 31.9145 32.1619 32.4997 31.7522 32.5897C31.6157 32.5897 31.5247 32.6797 31.4791 32.8148C31.115 33.9852 30.5232 35.0205 29.8405 35.8308C28.8391 37.0012 27.5645 37.6764 26.29 37.6764C24.1051 37.5864 22.0113 35.6507 21.0554 32.7248ZM26.29 38.2616C27.0183 38.2616 27.7466 38.0815 28.4294 37.7214V38.4867L26.29 40.6924C26.2445 40.6474 24.1051 38.4417 24.1506 38.4867V37.7214C24.8334 38.0815 25.5617 38.2616 26.29 38.2616ZM23.5589 38.8468C23.9686 39.2519 25.7893 41.1876 25.6983 41.0525C25.6528 41.0525 23.741 41.7277 23.8775 41.6827L22.6485 39.567L23.5589 38.8468ZM15.7752 45.3289C15.7752 42.3129 18.2787 39.8371 21.3285 39.8371H21.9657L23.4223 42.2679C23.4679 42.358 23.6044 42.448 23.6955 42.448H23.741L21.9657 48.39H15.7752V45.3289Z" fill="#576999"/>
</svg>
