<svg width="70" height="70" viewBox="0 0 70 70" fill="none" xmlns="http://www.w3.org/2000/svg">
<path d="M19.8192 44.7116L34.8291 15.8878L49.8391 44.7116H19.8192Z" stroke="#576999" stroke-width="0.7"/>
<circle cx="34.8291" cy="22.1728" r="9.82283" fill="white" stroke="#576999" stroke-width="0.7"/>
<path fill-rule="evenodd" clip-rule="evenodd" d="M36.6256 18.3934C36.6248 19.3303 35.8648 20.0892 34.9279 20.0886C33.991 20.0881 33.2319 19.3283 33.2322 18.3914C33.2325 17.4545 33.992 16.6952 34.9289 16.6952C35.3791 16.6954 35.8108 16.8744 36.129 17.1929C36.4471 17.5114 36.6258 17.9432 36.6256 18.3934Z" stroke="#576999" stroke-width="0.75" stroke-linecap="round" stroke-linejoin="round"/>
<path fill-rule="evenodd" clip-rule="evenodd" d="M36.6799 22.5906H33.1807C31.9582 22.629 30.9871 23.6311 30.9871 24.8542C30.9871 26.0773 31.9582 27.0795 33.1807 27.1179H36.6799C37.9024 27.0795 38.8735 26.0773 38.8735 24.8542C38.8735 23.6311 37.9024 22.629 36.6799 22.5906V22.5906Z" stroke="#576999" stroke-width="0.75" stroke-linecap="round" stroke-linejoin="round"/>
<path fill-rule="evenodd" clip-rule="evenodd" d="M40.9166 19.6909C40.9162 20.4074 40.335 20.9881 39.6185 20.9878C38.9019 20.9875 38.3212 20.4065 38.3213 19.6899C38.3214 18.9733 38.9024 18.3925 39.619 18.3925C39.9632 18.3925 40.2934 18.5293 40.5368 18.7728C40.7802 19.0163 40.9168 19.3466 40.9166 19.6909V19.6909Z" stroke="#576999" stroke-width="0.75" stroke-linecap="round" stroke-linejoin="round"/>
<path fill-rule="evenodd" clip-rule="evenodd" d="M28.7415 19.691C28.7415 20.4077 29.3224 20.9886 30.0391 20.9886C30.7558 20.9886 31.3368 20.4077 31.3368 19.691C31.3368 18.9743 30.7558 18.3933 30.0391 18.3933C29.3224 18.3933 28.7415 18.9743 28.7415 19.691V19.691Z" stroke="#576999" stroke-width="0.75" stroke-linecap="round" stroke-linejoin="round"/>
<path d="M39.9855 22.7147C39.7784 22.7147 39.6105 22.8826 39.6105 23.0897C39.6105 23.2968 39.7784 23.4647 39.9855 23.4647V22.7147ZM40.9586 23.0897L40.9664 22.7147H40.9586V23.0897ZM40.9586 26.5524V26.9275L40.9664 26.9273L40.9586 26.5524ZM39.9855 26.1774C39.7784 26.1774 39.6105 26.3453 39.6105 26.5524C39.6105 26.7595 39.7784 26.9274 39.9855 26.9274V26.1774ZM29.6728 23.4647C29.8799 23.4647 30.0478 23.2968 30.0478 23.0897C30.0478 22.8826 29.8799 22.7147 29.6728 22.7147V23.4647ZM28.6997 23.0897V22.7147L28.6919 22.7148L28.6997 23.0897ZM28.6997 26.5524L28.6919 26.9274H28.6997V26.5524ZM29.6728 26.9274C29.8799 26.9274 30.0478 26.7595 30.0478 26.5524C30.0478 26.3453 29.8799 26.1774 29.6728 26.1774V26.9274ZM39.9855 23.4647H40.9586V22.7147H39.9855V23.4647ZM40.9508 23.4646C41.689 23.4799 42.2794 24.0827 42.2794 24.8211H43.0294C43.0294 23.6746 42.1126 22.7386 40.9664 22.7148L40.9508 23.4646ZM42.2794 24.8211C42.2794 25.5594 41.689 26.1622 40.9508 26.1775L40.9664 26.9273C42.1126 26.9035 43.0294 25.9675 43.0294 24.8211H42.2794ZM40.9586 26.1774H39.9855V26.9274H40.9586V26.1774ZM29.6728 22.7147H28.6997V23.4647H29.6728V22.7147ZM28.6919 22.7148C27.5457 22.7386 26.6289 23.6746 26.6289 24.8211H27.3789C27.3789 24.0827 27.9693 23.48 28.7075 23.4647L28.6919 22.7148ZM26.6289 24.8211C26.6289 25.9675 27.5457 26.9035 28.6919 26.9273L28.7075 26.1775C27.9693 26.1622 27.3789 25.5594 27.3789 24.8211H26.6289ZM28.6997 26.9274H29.6728V26.1774H28.6997V26.9274Z" fill="#576999"/>
<circle cx="17.6135" cy="47.9961" r="9.82283" fill="white" stroke="#576999" stroke-width="0.7"/>
<path fill-rule="evenodd" clip-rule="evenodd" d="M19.41 44.2168C19.4092 45.1536 18.6492 45.9125 17.7123 45.912C16.7754 45.9114 16.0163 45.1516 16.0166 44.2148C16.0169 43.2779 16.7764 42.5186 17.7133 42.5186C18.1635 42.5188 18.5952 42.6978 18.9134 43.0163C19.2316 43.3347 19.4102 43.7666 19.41 44.2168Z" stroke="#576999" stroke-width="0.75" stroke-linecap="round" stroke-linejoin="round"/>
<path fill-rule="evenodd" clip-rule="evenodd" d="M19.4643 48.4142H15.9651C14.7426 48.4526 13.7715 49.4547 13.7715 50.6778C13.7715 51.9009 14.7426 52.9031 15.9651 52.9415H19.4643C20.6868 52.9031 21.6579 51.9009 21.6579 50.6778C21.6579 49.4547 20.6868 48.4526 19.4643 48.4142V48.4142Z" stroke="#576999" stroke-width="0.75" stroke-linecap="round" stroke-linejoin="round"/>
<path fill-rule="evenodd" clip-rule="evenodd" d="M23.7015 45.5143C23.7011 46.2309 23.1199 46.8115 22.4034 46.8113C21.6868 46.811 21.1061 46.2299 21.1062 45.5134C21.1063 44.7968 21.6873 44.2159 22.4039 44.2159C22.7482 44.2159 23.0783 44.3528 23.3217 44.5963C23.5651 44.8398 23.7017 45.1701 23.7015 45.5143V45.5143Z" stroke="#576999" stroke-width="0.75" stroke-linecap="round" stroke-linejoin="round"/>
<path fill-rule="evenodd" clip-rule="evenodd" d="M11.5259 45.5145C11.5259 46.2311 12.1069 46.8121 12.8235 46.8121C13.5402 46.8121 14.1212 46.2311 14.1212 45.5145C14.1212 44.7978 13.5402 44.2168 12.8235 44.2168C12.1069 44.2168 11.5259 44.7978 11.5259 45.5145V45.5145Z" stroke="#576999" stroke-width="0.75" stroke-linecap="round" stroke-linejoin="round"/>
<path d="M22.77 48.538C22.5629 48.538 22.395 48.7059 22.395 48.913C22.395 49.1201 22.5629 49.288 22.77 49.288V48.538ZM23.7431 48.913L23.7508 48.538H23.7431V48.913ZM23.7431 52.3757V52.7508L23.7508 52.7506L23.7431 52.3757ZM22.77 52.0007C22.5629 52.0007 22.395 52.1686 22.395 52.3757C22.395 52.5828 22.5629 52.7507 22.77 52.7507V52.0007ZM12.4572 49.288C12.6643 49.288 12.8322 49.1201 12.8322 48.913C12.8322 48.7059 12.6643 48.538 12.4572 48.538V49.288ZM11.4841 48.913V48.5379L11.4764 48.538L11.4841 48.913ZM11.4841 52.3756L11.4764 52.7506H11.4841V52.3756ZM12.4572 52.7506C12.6643 52.7506 12.8322 52.5827 12.8322 52.3756C12.8322 52.1685 12.6643 52.0006 12.4572 52.0006V52.7506ZM22.77 49.288H23.7431V48.538H22.77V49.288ZM23.7353 49.2879C24.4734 49.3032 25.0639 49.906 25.0639 50.6443H25.8139C25.8139 49.4979 24.8971 48.5619 23.7508 48.5381L23.7353 49.2879ZM25.0639 50.6443C25.0639 51.3827 24.4734 51.9854 23.7353 52.0008L23.7508 52.7506C24.8971 52.7268 25.8139 51.7908 25.8139 50.6443H25.0639ZM23.7431 52.0007H22.77V52.7507H23.7431V52.0007ZM12.4572 48.538H11.4841V49.288H12.4572V48.538ZM11.4764 48.538C10.3301 48.5618 9.41333 49.4978 9.41333 50.6443H10.1633C10.1633 49.906 10.7537 49.3032 11.4919 49.2879L11.4764 48.538ZM9.41333 50.6443C9.41333 51.7908 10.3301 52.7268 11.4764 52.7505L11.4919 52.0007C10.7537 51.9854 10.1633 51.3826 10.1633 50.6443H9.41333ZM11.4841 52.7506H12.4572V52.0006H11.4841V52.7506Z" fill="#576999"/>
<circle cx="52.8271" cy="47.9961" r="9.82283" fill="white" stroke="#576999" stroke-width="0.7"/>
<path fill-rule="evenodd" clip-rule="evenodd" d="M54.6236 44.2168C54.6228 45.1536 53.8628 45.9125 52.9259 45.912C51.9891 45.9114 51.23 45.1516 51.2302 44.2148C51.2305 43.2779 51.9901 42.5186 52.9269 42.5186C53.3771 42.5188 53.8088 42.6978 54.127 43.0163C54.4452 43.3347 54.6238 43.7666 54.6236 44.2168Z" fill="white" stroke="#576999" stroke-width="0.75" stroke-linecap="round" stroke-linejoin="round"/>
<path fill-rule="evenodd" clip-rule="evenodd" d="M54.6779 48.4142H51.1788C49.9563 48.4526 48.9851 49.4547 48.9851 50.6778C48.9851 51.9009 49.9563 52.9031 51.1788 52.9415H54.6779C55.9004 52.9031 56.8716 51.9009 56.8716 50.6778C56.8716 49.4547 55.9004 48.4526 54.6779 48.4142V48.4142Z" fill="white" stroke="#576999" stroke-width="0.75" stroke-linecap="round" stroke-linejoin="round"/>
<path fill-rule="evenodd" clip-rule="evenodd" d="M58.9151 45.5143C58.9147 46.2309 58.3336 46.8115 57.617 46.8113C56.9004 46.811 56.3197 46.2299 56.3198 45.5134C56.32 44.7968 56.9009 44.2159 57.6175 44.2159C57.9618 44.2159 58.292 44.3528 58.5353 44.5963C58.7787 44.8398 58.9153 45.1701 58.9151 45.5143Z" fill="white" stroke="#576999" stroke-width="0.75" stroke-linecap="round" stroke-linejoin="round"/>
<path fill-rule="evenodd" clip-rule="evenodd" d="M46.7397 45.5145C46.7397 46.2311 47.3207 46.8121 48.0374 46.8121C48.7541 46.8121 49.3351 46.2311 49.3351 45.5145C49.3351 44.7978 48.7541 44.2168 48.0374 44.2168C47.3207 44.2168 46.7397 44.7978 46.7397 45.5145Z" fill="white" stroke="#576999" stroke-width="0.75" stroke-linecap="round" stroke-linejoin="round"/>
<path fill-rule="evenodd" clip-rule="evenodd" d="M57.9834 48.913H58.9564C59.8986 48.9325 60.6522 49.7019 60.6522 50.6443C60.6522 51.5867 59.8986 52.3561 58.9564 52.3757H57.9834M47.6708 48.913H46.6978C45.7556 48.9325 45.002 49.7019 45.002 50.6443C45.002 51.5867 45.7556 52.3561 46.6978 52.3756H47.6708" fill="white"/>
<path d="M57.9834 48.538C57.7763 48.538 57.6084 48.7059 57.6084 48.913C57.6084 49.1201 57.7763 49.288 57.9834 49.288V48.538ZM58.9564 48.913L58.9642 48.538H58.9564V48.913ZM58.9564 52.3757V52.7508L58.9642 52.7506L58.9564 52.3757ZM57.9834 52.0007C57.7763 52.0007 57.6084 52.1686 57.6084 52.3757C57.6084 52.5828 57.7763 52.7507 57.9834 52.7507V52.0007ZM47.6708 49.288C47.8779 49.288 48.0458 49.1201 48.0458 48.913C48.0458 48.7059 47.8779 48.538 47.6708 48.538V49.288ZM46.6978 48.913V48.5379L46.69 48.538L46.6978 48.913ZM46.6978 52.3756L46.69 52.7506H46.6978V52.3756ZM47.6708 52.7506C47.8779 52.7506 48.0458 52.5827 48.0458 52.3756C48.0458 52.1685 47.8779 52.0006 47.6708 52.0006V52.7506ZM57.9834 49.288H58.9564V48.538H57.9834V49.288ZM58.9486 49.2879C59.6868 49.3032 60.2772 49.906 60.2772 50.6443H61.0272C61.0272 49.4979 60.1104 48.5619 58.9642 48.5381L58.9486 49.2879ZM60.2772 50.6443C60.2772 51.3827 59.6868 51.9854 58.9486 52.0008L58.9642 52.7506C60.1104 52.7268 61.0272 51.7908 61.0272 50.6443H60.2772ZM58.9564 52.0007H57.9834V52.7507H58.9564V52.0007ZM47.6708 48.538H46.6978V49.288H47.6708V48.538ZM46.69 48.538C45.5437 48.5618 44.627 49.4978 44.627 50.6443H45.377C45.377 49.906 45.9674 49.3032 46.7055 49.2879L46.69 48.538ZM44.627 50.6443C44.627 51.7908 45.5437 52.7268 46.69 52.7505L46.7055 52.0007C45.9674 51.9854 45.377 51.3826 45.377 50.6443H44.627ZM46.6978 52.7506H47.6708V52.0006H46.6978V52.7506Z" fill="#576999"/>
</svg>
