<svg width="70" height="70" viewBox="0 0 70 70" fill="none" xmlns="http://www.w3.org/2000/svg">
<path fill-rule="evenodd" clip-rule="evenodd" d="M33.4232 49.7952C33.5147 49.7598 33.5963 49.7003 33.6602 49.6221C33.724 49.544 33.7681 49.4499 33.7883 49.3486L34.3833 49.2613C34.4023 49.2585 34.4208 49.2527 34.4382 49.244L34.4367 49.2403C34.473 49.2222 34.503 49.1923 34.5223 49.1549C34.5416 49.1176 34.5492 49.0747 34.5441 49.0324L34.4863 48.5546L34.2872 47.0393C34.287 47.0349 34.2866 47.0305 34.2861 47.0262L34.2859 47.0236L34.129 45.8309C33.9685 44.6077 33.0327 43.7065 31.9207 43.5977L31.8856 43.3257C31.8686 43.2024 31.8163 43.0877 31.7357 42.9971C31.6551 42.9066 31.5502 42.8446 31.4353 42.8197L31.2251 42.7644L31.0604 42.8758C30.9567 42.9333 30.872 43.0233 30.818 43.1336C30.7641 43.244 30.7433 43.3693 30.7586 43.4925L30.7949 43.7666C29.7566 44.1962 29.0906 45.333 29.251 46.554L29.4077 47.7482C29.4085 47.7551 29.4095 47.7619 29.4109 47.7686L29.6088 49.2758L29.667 49.7526C29.6702 49.7789 29.6782 49.8043 29.6907 49.8273C29.7032 49.8503 29.7198 49.8705 29.7396 49.8867C29.7594 49.9028 29.7821 49.9147 29.8062 49.9215C29.8304 49.9283 29.8556 49.93 29.8804 49.9265L30.4786 49.8368C30.5327 49.9471 30.6174 50.037 30.7213 50.0944C30.8252 50.1517 30.9431 50.1737 31.0592 50.1574C31.2082 50.1345 31.3426 50.0501 31.4334 49.9225C31.5241 49.7949 31.5639 49.6345 31.5439 49.476C31.5225 49.3177 31.443 49.1749 31.3229 49.0785C31.2028 48.9821 31.0517 48.94 30.9026 48.9614C30.7866 48.9794 30.6786 49.0349 30.5933 49.1203C30.508 49.2057 30.4496 49.317 30.4259 49.4389L30.0183 49.4988L29.9845 49.2228L29.7808 47.6719C29.7091 47.094 29.8562 46.5095 30.1897 46.0467C30.5233 45.5839 31.0161 45.2806 31.56 45.2033C31.8306 45.1615 32.1062 45.177 32.3711 45.249C32.636 45.3209 32.8848 45.4478 33.1033 45.6225C33.3217 45.7971 33.5055 46.016 33.6439 46.2664C33.7823 46.5169 33.8727 46.794 33.9098 47.0817C33.911 47.0894 33.9126 47.0969 33.9147 47.1044L34.1113 48.6104L34.1453 48.889L33.7371 48.9496C33.6288 48.7294 33.3987 48.5919 33.1553 48.6278C33.0063 48.6506 32.8718 48.735 32.7811 48.8626C32.6904 48.9902 32.6508 49.1507 32.6709 49.3091C32.6829 49.3976 32.7132 49.4821 32.7596 49.5567C32.806 49.6312 32.8673 49.694 32.9392 49.7404C33.0111 49.7869 33.0918 49.8159 33.1754 49.8253C33.2591 49.8348 33.3437 49.8245 33.4232 49.7952ZM33.2601 49.4251C33.2854 49.4214 33.3099 49.4125 33.332 49.3989C33.3642 49.3788 33.39 49.349 33.406 49.3131C33.4221 49.2773 33.4276 49.2372 33.422 49.198C33.4189 49.1716 33.4108 49.1461 33.3983 49.1231C33.3858 49.1001 33.3691 49.08 33.3491 49.0639C33.3291 49.0479 33.3063 49.0363 33.282 49.0298C33.2578 49.0234 33.2325 49.0221 33.2078 49.0262C33.183 49.0295 33.159 49.038 33.1374 49.0512C33.1157 49.0645 33.0967 49.0822 33.0817 49.1034C33.0666 49.1246 33.0556 49.1488 33.0495 49.1745C33.0433 49.2003 33.0421 49.2271 33.0459 49.2533C33.0608 49.366 33.154 49.4409 33.2601 49.4251ZM31.0075 49.7591C31.0328 49.7553 31.0572 49.7462 31.0793 49.7325C31.1113 49.7124 31.1372 49.6824 31.1531 49.6466C31.1689 49.6109 31.1743 49.5709 31.1685 49.5319C31.1655 49.5055 31.1574 49.48 31.1449 49.457C31.1324 49.434 31.1156 49.4139 31.0957 49.3978C31.0757 49.3818 31.0529 49.3702 31.0286 49.3637C31.0044 49.3573 30.9791 49.356 30.9544 49.3601C30.9296 49.3633 30.9057 49.3718 30.8841 49.3851C30.8625 49.3983 30.8436 49.4161 30.8285 49.4372C30.8135 49.4584 30.8026 49.4826 30.7966 49.5083C30.7905 49.534 30.7893 49.5607 30.7932 49.5869C30.8081 49.6996 30.9014 49.7749 31.0075 49.7591ZM32.7213 44.9497C33.1079 45.1055 33.4513 45.3624 33.7197 45.6965C33.6039 45.1576 33.3017 44.6847 32.8725 44.3722C32.4432 44.0597 31.919 43.9304 31.4041 44.0101C30.8889 44.083 30.4185 44.3591 30.0861 44.7835C29.7538 45.2078 29.5838 45.7495 29.61 46.3008C29.7826 45.9022 30.047 45.5562 30.3787 45.2948C30.7104 45.0333 31.0987 44.8648 31.5078 44.8048C31.9174 44.744 32.3347 44.7938 32.7213 44.9497ZM31.3512 43.6097C31.4068 43.601 31.4622 43.5974 31.5173 43.5937C31.524 43.5933 31.5307 43.5929 31.5374 43.5924L31.5096 43.381C31.5067 43.3546 31.4988 43.3291 31.4864 43.306C31.4739 43.2829 31.4572 43.2627 31.4372 43.2467C31.4172 43.2307 31.3943 43.2192 31.37 43.2129C31.3457 43.2066 31.3204 43.2056 31.2957 43.21C31.2708 43.213 31.2468 43.2214 31.2251 43.2346C31.2034 43.2477 31.1844 43.2655 31.1693 43.2867C31.1542 43.3079 31.1434 43.3321 31.1374 43.358C31.1314 43.3838 31.1304 43.4106 31.1345 43.4368L31.1623 43.6482L31.172 43.6459C31.2313 43.6321 31.2902 43.6184 31.3512 43.6097Z" fill="#0FCB02"/>
<path fill-rule="evenodd" clip-rule="evenodd" d="M47.8039 42.7795C47.8804 42.7208 47.9715 42.1364 48.1467 42.3798L49.4309 44.1795L50.7903 46.085C50.972 46.3416 51.0692 46.6547 51.0667 46.9759C51.0641 47.297 50.9621 47.6084 50.7763 47.8617C50.9156 48.1397 50.9575 48.4611 50.8944 48.7688C50.8313 49.0765 50.6674 49.3503 50.4319 49.5415C50.1672 49.7535 49.8342 49.8455 49.5058 49.7975C49.1774 49.7495 48.8802 49.5654 48.6792 49.2854C48.48 49.0043 48.3935 48.6508 48.4388 48.3023C48.4841 47.9537 48.6574 47.6383 48.9209 47.4251C49.1417 47.2491 49.4109 47.1555 49.6869 47.1589C49.9629 47.1622 50.2301 47.2623 50.4469 47.4436C50.6264 47.1284 50.6167 46.7213 50.392 46.4059L49.0316 44.5003L47.8039 42.7795ZM50.1292 49.1183C50.0877 49.1523 50.0437 49.1799 49.9987 49.2034C49.843 49.2832 49.6665 49.3028 49.4986 49.2593C49.3306 49.2158 49.1821 49.1116 49.0785 48.9646C49.0186 48.8814 48.9747 48.7864 48.9495 48.6851C48.9243 48.5838 48.9183 48.4782 48.9317 48.3743C48.9451 48.2705 48.9778 48.1706 49.0278 48.0803C49.0778 47.9899 49.1441 47.911 49.223 47.8481C49.3013 47.7843 49.3907 47.7377 49.486 47.7109C49.5814 47.6841 49.6808 47.6777 49.7785 47.692C49.8762 47.7063 49.9703 47.741 50.0553 47.7942C50.1403 47.8473 50.2145 47.9179 50.2736 48.0017C50.3336 48.0849 50.3774 48.1799 50.4026 48.2812C50.4278 48.3826 50.4339 48.4882 50.4205 48.592C50.407 48.6958 50.3744 48.7957 50.3244 48.8861C50.2744 48.9764 50.208 49.0553 50.1292 49.1183Z" fill="#0FCB02"/>
<path d="M49.7617 48.7333C49.7115 48.7524 49.6569 48.754 49.6058 48.7378C49.5547 48.7216 49.5098 48.6885 49.4777 48.6433C49.4577 48.6155 49.4431 48.5838 49.4347 48.55C49.4263 48.5162 49.4242 48.481 49.4286 48.4463C49.4331 48.4117 49.4439 48.3783 49.4605 48.3481C49.4771 48.3179 49.4991 48.2915 49.5254 48.2704C49.5783 48.228 49.6448 48.2097 49.7104 48.2194C49.776 48.2291 49.8352 48.2661 49.8752 48.3221C49.8951 48.3499 49.9097 48.3816 49.918 48.4154C49.9264 48.4491 49.9284 48.4843 49.9239 48.5189C49.9195 48.5535 49.9087 48.5868 49.8921 48.6169C49.8755 48.6471 49.8535 48.6735 49.8274 48.6946C49.8074 48.7109 49.7853 48.724 49.7617 48.7333Z" fill="#0FCB02"/>
<path d="M41.5759 33.6393C41.3839 33.4353 41.0639 33.4353 40.8719 33.6393C40.1679 34.3871 39.0799 34.3871 38.3759 33.6393C38.1838 33.4353 37.8638 33.4353 37.6718 33.6393C37.4798 33.8433 37.4798 34.1832 37.6718 34.3871C38.1838 34.931 38.8879 35.203 39.5919 35.203C40.2959 35.203 40.9999 34.931 41.5119 34.3871C41.7679 34.1832 41.7679 33.8433 41.5759 33.6393Z" fill="#576999"/>
<path d="M35.8798 26.8411C34.9838 26.8411 34.2798 27.5889 34.2798 28.5407C34.2798 29.4925 34.9838 30.2404 35.8798 30.2404C36.7758 30.2404 37.4799 29.4925 37.4799 28.5407C37.4799 27.5889 36.7758 26.8411 35.8798 26.8411ZM35.8798 29.2886C35.4958 29.2886 35.2398 28.9486 35.2398 28.6087C35.2398 28.2688 35.5598 27.9288 35.8798 27.9288C36.2638 27.9288 36.5198 28.2688 36.5198 28.6087C36.5198 28.9486 36.2638 29.2886 35.8798 29.2886Z" fill="#576999"/>
<path d="M43.4316 26.8411C42.5356 26.8411 41.8315 27.5889 41.8315 28.5407C41.8315 29.4925 42.5356 30.2404 43.4316 30.2404C44.3276 30.2404 45.0316 29.4925 45.0316 28.5407C45.0316 27.5889 44.3276 26.8411 43.4316 26.8411ZM43.4316 29.2886C43.0476 29.2886 42.7916 28.9486 42.7916 28.6087C42.7916 28.2688 43.1116 27.9288 43.4316 27.9288C43.7516 27.9288 44.0716 28.2688 44.0716 28.6087C44.0716 28.9486 43.8156 29.2886 43.4316 29.2886Z" fill="#576999"/>
<path d="M34.7274 26.2972C34.7274 26.2972 35.8795 25.4134 37.0955 26.2972C37.2875 26.4332 37.6075 26.4332 37.7355 26.1612C37.8635 25.9573 37.8635 25.6173 37.6075 25.4814C36.1995 24.3936 34.7274 25.0055 34.0874 25.4814C33.8954 25.6173 33.8314 25.9573 33.9594 26.1612C34.2154 26.4332 34.5354 26.5012 34.7274 26.2972Z" fill="#576999"/>
<path d="M42.2797 26.2972C42.2797 26.2972 43.4317 25.4134 44.6477 26.2972C44.8397 26.4332 45.1597 26.4332 45.2877 26.1612C45.4157 25.9573 45.4158 25.6173 45.1597 25.4814C43.7517 24.3936 42.2797 25.0055 41.6397 25.4814C41.4477 25.6173 41.3837 25.9573 41.5117 26.1612C41.7677 26.4332 42.0237 26.5012 42.2797 26.2972Z" fill="#576999"/>
<path d="M39.6561 31.9393C39.9121 31.9393 40.1681 31.7353 40.1681 31.3954V29.9677C40.1681 29.6958 39.9761 29.4238 39.6561 29.4238C39.336 29.4238 39.144 29.6278 39.144 29.9677V31.3954C39.208 31.6674 39.4 31.9393 39.6561 31.9393Z" fill="#576999"/>
<path d="M56.488 55.3948C56.744 55.3948 57 55.1908 57 54.8509C57 54.511 56.808 54.307 56.488 54.307H55.464V49.684C55.464 44.517 51.4959 40.3699 46.6958 40.3699H45.6718C43.7517 38.7382 43.8157 38.8062 43.6877 38.7382V37.6505C44.2637 37.2425 44.8398 36.6987 45.3518 36.0868C49.6399 34.7271 51.8799 31.3958 51.8799 26.0929C51.8799 17.7986 46.4398 11 39.7836 11C33.1275 11 27.6234 17.7986 27.6234 26.0929C27.6234 31.3278 29.7994 34.7271 34.1515 36.0868C34.6635 36.6987 35.2395 37.2425 35.8155 37.6505V38.7382C35.6875 38.8062 35.7515 38.7382 33.8315 40.3699H32.8075C27.9434 40.3699 24.0393 44.585 24.0393 49.684V54.307H22.8873C22.6313 54.307 22.3752 54.511 22.3752 54.8509C22.3752 55.1908 22.5672 55.3948 22.8873 55.3948H56.488ZM37.2236 44.9929C37.2876 44.9929 39.3356 44.2451 39.2076 44.2451V48.2563L37.6076 54.307H34.5995L37.2236 44.9929ZM42.0877 44.9929L44.7118 54.375H41.7037L40.1036 48.3242V44.3131C40.2316 44.3131 42.2157 45.0609 42.0877 44.9929ZM39.6556 50.2958L40.7437 54.375H38.5676L39.6556 50.2958ZM54.504 49.752V54.375H45.7358L43.2397 45.4009H43.3037C43.4957 45.4009 43.6237 45.3329 43.6877 45.1289L45.7358 41.4577H46.6318C50.9839 41.4577 54.504 45.1969 54.504 49.752ZM44.8398 41.1177L43.0477 44.3131C42.9837 44.3131 40.2957 43.2933 40.4877 43.3613C40.5517 43.2933 43.5597 39.962 43.4957 40.03L44.8398 41.1177ZM28.5194 26.1609C28.5194 18.4105 33.5115 12.0878 39.7196 12.0878C45.8638 12.0878 50.8559 18.4105 50.8559 26.1609C50.8559 30.376 49.3839 33.1634 46.3758 34.5911C46.9518 33.6393 47.4638 32.4835 47.8478 31.2598C48.8078 30.9199 49.6399 29.6281 49.8959 28.0645C50.1519 26.5688 49.7679 24.5292 48.4238 24.0533C48.3598 23.7813 48.2318 23.6454 48.1038 23.6454C45.6078 22.8295 44.1357 20.2461 43.3037 18.0705L43.4957 17.8666C43.6877 17.6626 43.6237 17.3227 43.4317 17.1187C43.2397 16.9148 42.9197 16.9828 42.7277 17.1867C38.9516 21.7418 34.5355 23.1695 31.0154 22.5576C30.7594 22.4896 30.5034 22.6936 30.4394 22.9655C30.3754 23.2375 30.5674 23.5094 30.8234 23.5774H30.9514C30.8874 23.7134 30.8874 23.8493 30.8234 24.0533C29.4794 24.5292 29.0954 26.5688 29.3514 28.0645C29.6074 29.6281 30.4394 30.9199 31.3994 31.2598C31.7835 32.4835 32.2955 33.5713 32.8715 34.5911C29.9914 33.1634 28.5194 30.376 28.5194 26.1609ZM32.2955 30.7159C32.2315 30.5119 32.1035 30.376 31.9115 30.376C31.3354 30.24 30.5674 29.3562 30.3754 27.9285C30.2474 27.1806 30.3114 26.4328 30.5034 25.8209C30.6314 25.549 30.8234 25.0731 31.2714 25.0051C31.5275 25.0051 31.7195 24.8011 31.7195 24.5972C31.7835 24.3252 31.7835 23.9853 31.8475 23.7134C35.8796 23.9853 39.5916 21.9457 42.4717 18.8864C43.3677 21.0619 44.9678 23.5774 47.4638 24.5292V24.5972C47.4638 24.8691 47.6558 25.0731 47.9118 25.0731C48.2958 25.1411 48.5518 25.549 48.7438 25.9569C48.9358 26.5008 48.9998 27.3166 48.8718 28.0645C48.6158 29.4922 47.9118 30.376 47.3358 30.5119C47.1438 30.5119 47.0158 30.6479 46.9518 30.8519C46.4398 32.6195 45.6078 34.1832 44.6477 35.4069C43.2397 37.1746 41.4477 38.1944 39.6556 38.1944C36.5836 38.0584 33.6395 35.135 32.2955 30.7159ZM39.6556 39.0782C40.6797 39.0782 41.7037 38.8062 42.6637 38.2623V39.4181L39.6556 42.7494C39.5916 42.6814 36.5836 39.3501 36.6476 39.4181V38.2623C37.6076 38.8062 38.6316 39.0782 39.6556 39.0782ZM35.8155 39.962C36.3916 40.5739 38.9516 43.4972 38.8236 43.2933C38.7596 43.2933 36.0716 44.3131 36.2636 44.2451L34.5355 41.0498L35.8155 39.962ZM24.8713 49.752C24.8713 45.1969 28.3914 41.4577 32.6795 41.4577H33.5755L35.6235 45.1289C35.6875 45.2649 35.8795 45.4009 36.0076 45.4009H36.0716L33.5755 54.375H24.8713V49.752Z" fill="#576999"/>
<path fill-rule="evenodd" clip-rule="evenodd" d="M19.3633 29.4915C22.3685 28.78 25.3768 30.3083 26.5485 33.1416C27.7201 35.9749 26.7288 39.3241 24.1808 41.1409C21.6327 42.9577 18.2377 42.7361 16.0719 40.6115C13.9062 38.487 13.5731 35.0513 15.2762 32.4056C16.2229 30.9351 17.693 29.8869 19.3633 29.4915Z" fill="white" stroke="#576999" stroke-width="0.7" stroke-linecap="round" stroke-linejoin="round"/>
<rect x="9.41809" y="51.6179" width="12.4548" height="1.19134" transform="rotate(-54.9791 9.41809 51.6179)" stroke="#576999" stroke-width="0.6"/>
<path d="M23.2001 36.1521L21.3449 36.1521L21.3449 38.0334L20.6045 38.0334L20.6045 36.1521L18.758 36.1521L18.758 35.4814L20.6045 35.4814L20.6045 33.5913L21.3449 33.5913L21.3449 35.4814L23.2001 35.4814L23.2001 36.1521Z" fill="#576999"/>
</svg>
