<svg width="70" height="70" viewBox="0 0 70 70" fill="none" xmlns="http://www.w3.org/2000/svg">
<path fill-rule="evenodd" clip-rule="evenodd" d="M14 34.3621V43.8383C14 52.561 20.8863 59.632 29.381 59.632H41.6857C45.765 59.632 49.6772 57.9681 52.5617 55.0062C55.4462 52.0443 57.0667 48.0271 57.0667 43.8383V34.3621C57.0708 30.172 55.4516 26.1524 52.5662 23.1896C49.6808 20.2268 45.7663 18.5642 41.6857 18.5684H29.381C25.3004 18.5642 21.3858 20.2268 18.5005 23.1896C15.6151 26.1524 13.9959 30.172 14 34.3621V34.3621Z" stroke="#576999" stroke-width="1.5" stroke-linecap="round" stroke-linejoin="round"/>
<path d="M25.5547 24.8857C25.5547 25.2999 25.8905 25.6357 26.3047 25.6357C26.7189 25.6357 27.0547 25.2999 27.0547 24.8857H25.5547ZM27.0547 12.2507C27.0547 11.8365 26.7189 11.5007 26.3047 11.5007C25.8905 11.5007 25.5547 11.8365 25.5547 12.2507H27.0547ZM44.0119 24.8857C44.0119 25.2999 44.3477 25.6357 44.7619 25.6357C45.1761 25.6357 45.5119 25.2999 45.5119 24.8857H44.0119ZM45.5119 12.2507C45.5119 11.8365 45.1761 11.5007 44.7619 11.5007C44.3477 11.5007 44.0119 11.8365 44.0119 12.2507H45.5119ZM44.4955 33.398C44.1846 33.1243 43.7107 33.1545 43.437 33.4655C43.1633 33.7764 43.1935 34.2503 43.5045 34.524L44.4955 33.398ZM46.3333 36.0146L45.8378 36.5776C46.1211 36.827 46.5455 36.827 46.8288 36.5776L46.3333 36.0146ZM51.4955 32.4703C51.8064 32.1966 51.8367 31.7227 51.563 31.4118C51.2893 31.1009 50.8154 31.0706 50.5045 31.3443L51.4955 32.4703ZM27.0547 24.8857V12.2507H25.5547V24.8857H27.0547ZM45.5119 24.8857V12.2507H44.0119V24.8857H45.5119ZM43.5045 34.524L45.8378 36.5776L46.8288 35.4517L44.4955 33.398L43.5045 34.524ZM46.8288 36.5776L51.4955 32.4703L50.5045 31.3443L45.8378 35.4517L46.8288 36.5776Z" fill="#576999"/>
<circle cx="25.5" cy="44.5" r="3.125" stroke="#576999" stroke-width="0.75"/>
<circle cx="25.5" cy="34.5" r="3.125" stroke="#576999" stroke-width="0.75"/>
<circle cx="35.5" cy="44.5" r="3.125" stroke="#576999" stroke-width="0.75"/>
<circle cx="35.5" cy="34.5" r="3.125" stroke="#576999" stroke-width="0.75"/>
<circle cx="45.5" cy="44.5" r="3.125" stroke="#576999" stroke-width="0.75"/>
<circle cx="45.5" cy="34.5" r="3.125" stroke="#576999" stroke-width="0.75"/>
</svg>
