<svg width="100" height="100" viewBox="0 0 100 100" fill="none" xmlns="http://www.w3.org/2000/svg">
<path d="M16.7145 18.113C15.3703 18.4237 14.1129 19.4265 13.4336 20.7258L13.0723 21.4179L13.0289 45.5268L13 69.6355L13.3035 70.4547C13.7227 71.5705 14.9223 72.7285 16.1074 73.1946L16.9746 73.5336L29.7222 73.576C39.6082 73.6042 42.4844 73.6465 42.4844 73.7878C42.4844 73.8866 42.3977 74.4657 42.2821 75.0872C41.7472 78.0813 40.3164 79.9033 38.0762 80.454C37.8449 80.5106 36.573 80.5953 35.2579 80.6519C32.6418 80.7507 32.2227 80.8636 31.3554 81.6969C31.0954 81.9512 30.7196 82.4879 30.5171 82.9116C29.6645 84.7335 30.6472 87.0074 32.613 87.7276C33.3789 88.0102 33.7546 88.0102 50 88.0102C66.2454 88.0102 66.6211 88.0102 67.387 87.7276C68.7602 87.2193 69.6418 86.0469 69.7719 84.5358C69.8296 83.8155 69.7719 83.5329 69.4829 82.9116C69.2804 82.4879 68.9046 81.9512 68.6446 81.6969C67.7773 80.8636 67.3582 80.7507 64.7421 80.6519C63.427 80.5953 62.1696 80.5106 61.9238 80.454C59.6836 79.9033 58.2528 78.0813 57.7179 75.0872C57.6023 74.4657 57.5156 73.8866 57.5156 73.7878C57.5156 73.6465 60.3918 73.6042 70.2778 73.576L83.0255 73.5336L83.8926 73.1946C85.0778 72.7285 86.2773 71.5705 86.6964 70.4547L87 69.6355L86.9711 45.5268L86.9278 21.4179L86.5664 20.7258C86.0605 19.7513 85.1211 18.8474 84.1383 18.4096L83.3145 18.0282L50.289 18C31.341 18 17.0324 18.0424 16.7145 18.113ZM83.0398 20.7682C83.3722 20.9094 83.7914 21.2484 83.9793 21.5026L84.3262 21.9828L84.3696 41.6427L84.3985 61.3167H83.2421H82.086V42.4195C82.0714 22.0252 82.1293 23.2116 81.3054 22.9009C80.7562 22.7031 19.2438 22.7031 18.6945 22.9009C17.8707 23.2116 17.9285 22.0252 17.9141 42.4195V61.3167H16.7578H15.6016L15.6305 41.6427L15.6738 21.9828L16.0207 21.5026C16.2086 21.2484 16.6277 20.9094 16.9602 20.7682C17.5383 20.514 18.6656 20.4999 50 20.4999C81.3344 20.4999 82.4617 20.514 83.0398 20.7682ZM79.4844 43.3092V61.3167H50H20.5156V43.3092V25.3019H50H79.4844V43.3092ZM84.3985 66.5566C84.3985 69.6637 84.2829 70.0451 83.1844 70.6524L82.5918 70.9914H50H17.4082L16.8156 70.6524C15.7172 70.0451 15.6016 69.6637 15.6016 66.5566V63.8589H50H84.3985V66.5566ZM55.0296 74.8612C55.3043 76.9091 56.0847 78.9712 57.0387 80.1999L57.3855 80.6659H50H42.6145L42.9613 80.1999C43.9153 78.9712 44.6957 76.9091 44.9704 74.8612L45.1438 73.6042H50H54.8562L55.0296 74.8612ZM66.6355 83.3918C66.9245 83.6037 67.1992 84.112 67.1992 84.4086C67.1992 84.5358 67.0113 84.8324 66.7801 85.0583L66.361 85.4679H50H33.639L33.2199 85.0583C32.9887 84.8324 32.8008 84.5358 32.8008 84.4086C32.8008 84.112 33.0755 83.6037 33.3645 83.3918C33.6969 83.1375 66.3031 83.1375 66.6355 83.3918Z" fill="#576999"/>
<path fill-rule="evenodd" clip-rule="evenodd" d="M55.9652 28H60.8565C63.0175 28 64.7694 29.454 64.7694 31.2476V31.3491L66.6672 30.3643C67.2704 30.0514 68.0305 30.0348 68.6526 30.321C69.2747 30.6072 69.6607 31.151 69.6607 31.7413V34.0016C69.6621 34.5925 69.2767 35.1374 68.6543 35.4243C68.032 35.7113 67.271 35.695 66.6672 35.3818L64.7694 34.3938V34.4952C64.7694 36.2888 63.0175 37.7429 60.8565 37.7429H55.9652C53.8041 37.7429 52.0522 36.2888 52.0522 34.4952V31.2476C52.0522 29.454 53.8041 28 55.9652 28Z" stroke="#576999" stroke-width="0.7" stroke-linecap="round" stroke-linejoin="round"/>
<path fill-rule="evenodd" clip-rule="evenodd" d="M58.4105 34.495C57.33 34.495 56.4541 33.768 56.4541 32.8713C56.4541 31.9745 57.33 31.2476 58.4105 31.2476C59.4909 31.2476 60.3668 31.9745 60.3668 32.8713C60.3668 33.3019 60.1607 33.7149 59.7938 34.0194C59.4269 34.3239 58.9293 34.495 58.4105 34.495Z" stroke="#0FCB02" stroke-width="0.7" stroke-linecap="round" stroke-linejoin="round"/>
<path d="M64.7694 31.3491V34.3936" stroke="#576999" stroke-width="0.7" stroke-linecap="round"/>
<path d="M46.7752 29.2607C46.9823 29.2607 47.1502 29.0928 47.1502 28.8857C47.1502 28.6786 46.9823 28.5107 46.7752 28.5107V29.2607ZM32 28.5107C31.7929 28.5107 31.625 28.6786 31.625 28.8857C31.625 29.0928 31.7929 29.2607 32 29.2607V28.5107ZM46.7752 34.1326C46.9823 34.1326 47.1502 33.9647 47.1502 33.7576C47.1502 33.5504 46.9823 33.3826 46.7752 33.3826V34.1326ZM32 33.3826C31.7929 33.3826 31.625 33.5504 31.625 33.7576C31.625 33.9647 31.7929 34.1326 32 34.1326V33.3826ZM47.0767 38.9401C47.2838 38.9401 47.4517 38.7722 47.4517 38.5651C47.4517 38.358 47.2838 38.1901 47.0767 38.1901V38.9401ZM32 38.1901C31.7929 38.1901 31.625 38.358 31.625 38.5651C31.625 38.7722 31.7929 38.9401 32 38.9401V38.1901ZM46.7752 28.5107H32V29.2607H46.7752V28.5107ZM46.7752 33.3826H32V34.1326H46.7752V33.3826ZM47.0767 38.1901H32V38.9401H47.0767V38.1901Z" fill="#576999"/>
<path fill-rule="evenodd" clip-rule="evenodd" d="M63.264 58.1167C62.4022 58.1281 61.6176 57.7011 61.2784 57.0361C60.9391 56.371 61.1125 55.5999 61.7172 55.0843C62.3218 54.5688 63.2378 54.4111 64.0355 54.6852C64.8332 54.9594 65.3543 55.611 65.3544 56.3344C65.3588 56.8034 65.1411 57.2546 64.7491 57.5889C64.357 57.9232 63.8228 58.113 63.264 58.1167Z" stroke="#576999" stroke-width="0.7" stroke-linecap="round" stroke-linejoin="round"/>
<path d="M62.1538 46.9522C62.3471 46.9522 62.5038 46.7955 62.5038 46.6022C62.5038 46.4089 62.3471 46.2522 62.1538 46.2522V46.9522ZM56.2737 46.2522C56.0804 46.2522 55.9237 46.4089 55.9237 46.6022C55.9237 46.7955 56.0804 46.9522 56.2737 46.9522V46.2522ZM62.1538 49.4201C62.3471 49.4201 62.5038 49.2634 62.5038 49.0701C62.5038 48.8768 62.3471 48.7201 62.1538 48.7201V49.4201ZM56.2737 48.7201C56.0804 48.7201 55.9237 48.8768 55.9237 49.0701C55.9237 49.2634 56.0804 49.4201 56.2737 49.4201V48.7201ZM60.1938 51.8873C60.3871 51.8873 60.5438 51.7306 60.5438 51.5373C60.5438 51.344 60.3871 51.1873 60.1938 51.1873V51.8873ZM56.2737 51.1873C56.0804 51.1873 55.9237 51.344 55.9237 51.5373C55.9237 51.7306 56.0804 51.8873 56.2737 51.8873V51.1873ZM65.0033 56.3344C65.0033 56.5277 65.16 56.6844 65.3533 56.6844C65.5466 56.6844 65.7033 56.5277 65.7033 56.3344H65.0033ZM65.7033 49.4807C65.7033 49.2874 65.5466 49.1307 65.3533 49.1307C65.16 49.1307 65.0033 49.2874 65.0033 49.4807H65.7033ZM65.3534 49.4811H65.0034C65.0034 49.5792 65.0447 49.6729 65.1171 49.7392C65.1895 49.8055 65.2864 49.8384 65.3843 49.8297L65.3534 49.4811ZM65.3534 48.2473H65.7034C65.7034 48.2398 65.7032 48.2323 65.7027 48.2248L65.3534 48.2473ZM65.8961 47.0578L65.6711 46.7897L65.8961 47.0578ZM67.3135 46.6024L67.2976 46.952C67.3029 46.9523 67.3082 46.9524 67.3135 46.9524V46.6024ZM68.4454 46.6024V46.9524L68.4468 46.9524L68.4454 46.6024ZM69.998 47.8327L69.6487 47.8547V47.8547L69.998 47.8327ZM68.6081 49.1932L68.5785 48.8444L68.5772 48.8446L68.6081 49.1932ZM62.1538 46.2522H56.2737V46.9522H62.1538V46.2522ZM62.1538 48.7201H56.2737V49.4201H62.1538V48.7201ZM60.1938 51.1873H56.2737V51.8873H60.1938V51.1873ZM65.7033 56.3344V49.4807H65.0033V56.3344H65.7033ZM65.7034 49.4811V48.2473H65.0034V49.4811H65.7034ZM65.7027 48.2248C65.682 47.9049 65.8226 47.5764 66.1211 47.3259L65.6711 46.7897C65.2216 47.1669 64.9676 47.7034 65.0041 48.2699L65.7027 48.2248ZM66.1211 47.3259C66.422 47.0734 66.8492 46.9316 67.2976 46.952L67.3294 46.2527C66.7215 46.2251 66.1181 46.4145 65.6711 46.7897L66.1211 47.3259ZM67.3135 46.9524H68.4454V46.2524H67.3135V46.9524ZM68.4468 46.9524C69.142 46.9496 69.62 47.3976 69.6487 47.8547L70.3473 47.8108C70.2891 46.8836 69.4003 46.2486 68.444 46.2524L68.4468 46.9524ZM69.6487 47.8547C69.6769 48.3043 69.2676 48.7861 68.5785 48.8444L68.6376 49.5419C69.5917 49.4611 70.406 48.7453 70.3473 47.8108L69.6487 47.8547ZM68.5772 48.8446L65.3226 49.1324L65.3843 49.8297L68.6389 49.5418L68.5772 48.8446Z" fill="#576999"/>
<path fill-rule="evenodd" clip-rule="evenodd" d="M42.2287 46.6001H36.5466C35.3341 46.6057 34.1739 47.0154 33.3212 47.7389C32.4686 48.4625 31.9933 49.4407 32.0001 50.4583V55.1419C32.0001 55.292 32.0103 55.4419 32.0307 55.591C32.2863 57.5248 34.2283 58.9908 36.5466 59.0001H42.2287C43.4412 58.9945 44.6015 58.5848 45.4541 57.8613C46.3068 57.1377 46.782 56.1595 46.7752 55.1419V50.4583C46.782 49.4407 46.3068 48.4625 45.4541 47.7389C44.6015 47.0154 43.4412 46.6057 42.2287 46.6001Z" stroke="#576999" stroke-width="0.75" stroke-linecap="round" stroke-linejoin="round"/>
<path fill-rule="evenodd" clip-rule="evenodd" d="M36.2774 49.741C36.2774 49.9891 36.0379 50.1901 35.7423 50.1901C35.4468 50.1901 35.2073 49.9891 35.2073 49.741C35.2073 49.493 35.4468 49.292 35.7423 49.292C36.0379 49.292 36.2774 49.493 36.2774 49.741Z" stroke="#576999" stroke-width="0.75" stroke-linecap="round" stroke-linejoin="round"/>
<path d="M32.0305 55.5906C32.5968 55.1645 33.1229 54.7023 33.6041 54.208C34.3161 53.3995 35.5779 53.0818 36.7026 53.4276C39.3664 54.1362 41.7441 56.7393 44.0248 55.386C44.8624 54.8496 45.5106 54.1323 45.9002 53.3107C46.1294 52.8594 46.4232 52.4332 46.7751 52.0415" stroke="#576999" stroke-width="0.75" stroke-linecap="round" stroke-linejoin="round"/>
</svg>
